<svg xmlns="http://www.w3.org/2000/svg" xmlns:xlink="http://www.w3.org/1999/xlink" width="223.2mm" height="903.385" version="1.1" viewBox="0 0 223.2 239.021"><desc>Output from Flights of Ideas SVG Sketchup Plugin</desc><g id="face0" fill="none" stroke="#00F" stroke-dasharray="none" stroke-linecap="round" stroke-linejoin="round" stroke-miterlimit="4" stroke-width="1"><line x1="213.2" x2="210.025" y1="200.446" y2="200.446"/><line x1="210.025" x2="210.025" y1="200.446" y2="197.271"/><line x1="210.025" x2="213.2" y1="197.271" y2="197.271"/><line x1="213.2" x2="213.2" y1="197.271" y2="194.096"/><line x1="213.2" x2="210.025" y1="194.096" y2="194.096"/><line x1="210.025" x2="210.025" y1="194.096" y2="190.921"/><line x1="210.025" x2="213.2" y1="190.921" y2="190.921"/><line x1="213.2" x2="213.2" y1="190.921" y2="187.746"/><line x1="213.2" x2="210.025" y1="187.746" y2="187.746"/><line x1="210.025" x2="210.025" y1="187.746" y2="184.571"/><line x1="210.025" x2="213.2" y1="184.571" y2="184.571"/><line x1="213.2" x2="213.2" y1="184.571" y2="181.396"/><line x1="213.2" x2="210.025" y1="181.396" y2="181.396"/><line x1="210.025" x2="210.025" y1="181.396" y2="178.221"/><line x1="210.025" x2="213.2" y1="178.221" y2="178.221"/><line x1="213.2" x2="213.2" y1="178.221" y2="175.046"/><line x1="213.2" x2="210.025" y1="175.046" y2="175.046"/><line x1="210.025" x2="210.025" y1="175.046" y2="171.871"/><line x1="210.025" x2="213.2" y1="171.871" y2="171.871"/><line x1="213.2" x2="213.2" y1="171.871" y2="168.696"/><line x1="213.2" x2="210.025" y1="168.696" y2="168.696"/><line x1="210.025" x2="210.025" y1="168.696" y2="165.521"/><line x1="210.025" x2="213.2" y1="165.521" y2="165.521"/><line x1="213.2" x2="213.2" y1="165.521" y2="162.346"/><line x1="213.2" x2="210.025" y1="162.346" y2="162.346"/><line x1="210.025" x2="210.025" y1="162.346" y2="159.171"/><line x1="210.025" x2="213.2" y1="159.171" y2="159.171"/><line x1="213.2" x2="213.2" y1="159.171" y2="155.996"/><line x1="213.2" x2="210.025" y1="155.996" y2="155.996"/><line x1="210.025" x2="210.025" y1="155.996" y2="152.821"/><line x1="210.025" x2="213.2" y1="152.821" y2="152.821"/><line x1="213.2" x2="213.2" y1="152.821" y2="149.646"/><line x1="213.2" x2="210.025" y1="149.646" y2="149.646"/><line x1="210.025" x2="210.025" y1="149.646" y2="146.471"/><line x1="210.025" x2="213.2" y1="146.471" y2="146.471"/><line x1="213.2" x2="213.2" y1="146.471" y2="143.296"/><line x1="213.2" x2="210.025" y1="143.296" y2="143.296"/><line x1="210.025" x2="210.025" y1="143.296" y2="140.121"/><line x1="210.025" x2="213.2" y1="140.121" y2="140.121"/><line x1="213.2" x2="213.2" y1="140.121" y2="136.946"/><line x1="213.2" x2="210.025" y1="136.946" y2="136.946"/><line x1="210.025" x2="210.025" y1="136.946" y2="133.771"/><line x1="210.025" x2="213.2" y1="133.771" y2="133.771"/><line x1="213.2" x2="213.2" y1="133.771" y2="130.596"/><line x1="213.2" x2="210.025" y1="130.596" y2="130.596"/><line x1="210.025" x2="210.025" y1="130.596" y2="127.421"/><line x1="210.025" x2="213.2" y1="127.421" y2="127.421"/><line x1="213.2" x2="213.2" y1="127.421" y2="124.246"/><line x1="213.2" x2="210.025" y1="124.246" y2="124.246"/><line x1="210.025" x2="210.025" y1="124.246" y2="121.071"/><line x1="210.025" x2="213.2" y1="121.071" y2="121.071"/><line x1="213.2" x2="213.2" y1="121.071" y2="117.896"/><line x1="213.2" x2="210.025" y1="117.896" y2="117.896"/><line x1="210.025" x2="210.025" y1="117.896" y2="114.721"/><line x1="210.025" x2="213.2" y1="114.721" y2="114.721"/><line x1="213.2" x2="213.2" y1="114.721" y2="111.546"/><line x1="213.2" x2="210.025" y1="111.546" y2="111.546"/><line x1="210.025" x2="210.025" y1="111.546" y2="108.371"/><line x1="210.025" x2="213.2" y1="108.371" y2="108.371"/><line x1="213.2" x2="213.2" y1="108.371" y2="105.196"/><line x1="213.2" x2="210.025" y1="105.196" y2="105.196"/><line x1="210.025" x2="210.025" y1="105.196" y2="102.021"/><line x1="210.025" x2="213.2" y1="102.021" y2="102.021"/><line x1="213.2" x2="213.2" y1="102.021" y2="98.846"/><line x1="213.2" x2="210.025" y1="98.846" y2="98.846"/><line x1="210.025" x2="210.025" y1="98.846" y2="95.671"/><line x1="210.025" x2="213.2" y1="95.671" y2="95.671"/><line x1="213.2" x2="213.2" y1="95.671" y2="92.496"/><line x1="213.2" x2="210.025" y1="92.496" y2="92.496"/><line x1="210.025" x2="210.025" y1="92.496" y2="89.321"/><line x1="210.025" x2="213.2" y1="89.321" y2="89.321"/><line x1="213.2" x2="213.2" y1="89.321" y2="86.146"/><line x1="213.2" x2="210.025" y1="86.146" y2="86.146"/><line x1="210.025" x2="210.025" y1="86.146" y2="82.971"/><line x1="210.025" x2="213.2" y1="82.971" y2="82.971"/><line x1="213.2" x2="213.2" y1="82.971" y2="79.796"/><line x1="213.2" x2="210.025" y1="79.796" y2="79.796"/><line x1="210.025" x2="210.025" y1="79.796" y2="76.621"/><line x1="210.025" x2="213.2" y1="76.621" y2="76.621"/><line x1="213.2" x2="213.2" y1="76.621" y2="73.446"/><line x1="213.2" x2="210.025" y1="73.446" y2="73.446"/><line x1="210.025" x2="210.025" y1="73.446" y2="70.271"/><line x1="210.025" x2="213.2" y1="70.271" y2="70.271"/><line x1="213.2" x2="213.2" y1="70.271" y2="67.096"/><line x1="213.2" x2="210.025" y1="67.096" y2="67.096"/><line x1="210.025" x2="210.025" y1="67.096" y2="63.921"/><line x1="210.025" x2="213.2" y1="63.921" y2="63.921"/><line x1="213.2" x2="213.2" y1="63.921" y2="60.746"/><line x1="213.2" x2="210.025" y1="60.746" y2="60.746"/><line x1="210.025" x2="210.025" y1="60.746" y2="57.571"/><line x1="210.025" x2="213.2" y1="57.571" y2="57.571"/><line x1="213.2" x2="213.2" y1="57.571" y2="54.396"/><line x1="213.2" x2="210.025" y1="54.396" y2="54.396"/><line x1="210.025" x2="210.025" y1="54.396" y2="51.221"/><line x1="210.025" x2="213.2" y1="51.221" y2="51.221"/><line x1="213.2" x2="213.2" y1="51.221" y2="48.046"/><line x1="213.2" x2="210.025" y1="48.046" y2="48.046"/><line x1="210.025" x2="210.025" y1="48.046" y2="44.871"/><line x1="210.025" x2="213.2" y1="44.871" y2="44.871"/><line x1="213.2" x2="213.2" y1="44.871" y2="41.696"/><line x1="213.2" x2="210.025" y1="41.696" y2="41.696"/><line x1="210.025" x2="210.025" y1="41.696" y2="38.521"/><line x1="210.025" x2="213.2" y1="38.521" y2="38.521"/><line x1="213.2" x2="213.2" y1="38.521" y2="35.346"/><line x1="213.2" x2="210.025" y1="35.346" y2="35.346"/><line x1="210.025" x2="210.025" y1="35.346" y2="32.171"/><line x1="210.025" x2="213.2" y1="32.171" y2="32.171"/><line x1="213.2" x2="213.2" y1="32.171" y2="28.996"/><line x1="213.2" x2="210.025" y1="28.996" y2="28.996"/><line x1="210.025" x2="210.025" y1="28.996" y2="25.821"/><line x1="210.025" x2="213.2" y1="25.821" y2="25.821"/><line x1="213.2" x2="213.2" y1="25.821" y2="22.646"/><line x1="213.2" x2="210.025" y1="22.646" y2="22.646"/><line x1="210.025" x2="210.025" y1="22.646" y2="19.471"/><line x1="210.025" x2="213.2" y1="19.471" y2="19.471"/><line x1="213.2" x2="213.2" y1="19.471" y2="16.296"/><line x1="213.2" x2="210.025" y1="16.296" y2="16.296"/><line x1="210.025" x2="208.551" y1="16.296" y2="15.096"/><line x1="208.551" x2="180.426" y1="15.096" y2="10.596"/><line x1="180.426" x2="180.426" y1="10.596" y2="35.346"/><line x1="180.426" x2="183.463" y1="35.346" y2="35.346"/><line x1="183.463" x2="183.463" y1="35.346" y2="26.346"/><line x1="183.463" x2="187.513" y1="26.346" y2="26.346"/><line x1="187.513" x2="187.513" y1="26.346" y2="35.346"/><line x1="187.513" x2="192.801" y1="35.346" y2="35.346"/><line x1="192.801" x2="192.801" y1="35.346" y2="37.596"/><line x1="192.801" x2="191.676" y1="37.596" y2="37.596"/><line x1="191.676" x2="191.676" y1="37.596" y2="60.861"/><line x1="191.676" x2="189.426" y1="60.861" y2="60.861"/><line x1="189.426" x2="189.426" y1="60.861" y2="59.736"/><line x1="189.426" x2="163.551" y1="59.736" y2="55.596"/><line x1="163.551" x2="162.4" y1="55.596" y2="54.396"/><line x1="162.4" x2="162.4" y1="54.396" y2="57.571"/><line x1="162.4" x2="159.225" y1="57.571" y2="57.571"/><line x1="159.225" x2="159.225" y1="57.571" y2="60.746"/><line x1="159.225" x2="162.4" y1="60.746" y2="60.746"/><line x1="162.4" x2="162.4" y1="60.746" y2="63.921"/><line x1="162.4" x2="159.225" y1="63.921" y2="63.921"/><line x1="159.225" x2="159.225" y1="63.921" y2="67.096"/><line x1="159.225" x2="162.4" y1="67.096" y2="67.096"/><line x1="162.4" x2="162.4" y1="67.096" y2="70.271"/><line x1="162.4" x2="159.225" y1="70.271" y2="70.271"/><line x1="159.225" x2="159.225" y1="70.271" y2="73.446"/><line x1="159.225" x2="162.4" y1="73.446" y2="73.446"/><line x1="162.4" x2="162.4" y1="73.446" y2="76.621"/><line x1="162.4" x2="159.225" y1="76.621" y2="76.621"/><line x1="159.225" x2="159.225" y1="76.621" y2="79.796"/><line x1="159.225" x2="162.4" y1="79.796" y2="79.796"/><line x1="162.4" x2="162.4" y1="79.796" y2="82.971"/><line x1="162.4" x2="159.225" y1="82.971" y2="82.971"/><line x1="159.225" x2="159.225" y1="82.971" y2="86.146"/><line x1="159.225" x2="162.4" y1="86.146" y2="86.146"/><line x1="162.4" x2="162.4" y1="86.146" y2="89.321"/><line x1="162.4" x2="159.225" y1="89.321" y2="89.321"/><line x1="159.225" x2="159.225" y1="89.321" y2="92.496"/><line x1="159.225" x2="162.4" y1="92.496" y2="92.496"/><line x1="162.4" x2="162.4" y1="92.496" y2="95.671"/><line x1="162.4" x2="159.225" y1="95.671" y2="95.671"/><line x1="159.225" x2="159.225" y1="95.671" y2="98.846"/><line x1="159.225" x2="162.4" y1="98.846" y2="98.846"/><line x1="162.4" x2="162.4" y1="98.846" y2="102.021"/><line x1="162.4" x2="159.225" y1="102.021" y2="102.021"/><line x1="159.225" x2="159.225" y1="102.021" y2="105.196"/><line x1="159.225" x2="162.4" y1="105.196" y2="105.196"/><line x1="162.4" x2="162.4" y1="105.196" y2="108.371"/><line x1="162.4" x2="159.225" y1="108.371" y2="108.371"/><line x1="159.225" x2="159.225" y1="108.371" y2="111.546"/><line x1="159.225" x2="162.4" y1="111.546" y2="111.546"/><line x1="162.4" x2="162.4" y1="111.546" y2="114.721"/><line x1="162.4" x2="159.225" y1="114.721" y2="114.721"/><line x1="159.225" x2="159.225" y1="114.721" y2="117.896"/><line x1="159.225" x2="162.4" y1="117.896" y2="117.896"/><line x1="162.4" x2="162.4" y1="117.896" y2="121.071"/><line x1="162.4" x2="159.225" y1="121.071" y2="121.071"/><line x1="159.225" x2="159.225" y1="121.071" y2="124.246"/><line x1="159.225" x2="162.4" y1="124.246" y2="124.246"/><line x1="162.4" x2="162.4" y1="124.246" y2="127.421"/><line x1="162.4" x2="159.225" y1="127.421" y2="127.421"/><line x1="159.225" x2="159.225" y1="127.421" y2="130.596"/><line x1="159.225" x2="162.4" y1="130.596" y2="130.596"/><line x1="162.4" x2="162.4" y1="130.596" y2="133.771"/><line x1="162.4" x2="159.225" y1="133.771" y2="133.771"/><line x1="159.225" x2="159.225" y1="133.771" y2="136.946"/><line x1="159.225" x2="162.4" y1="136.946" y2="136.946"/><line x1="162.4" x2="162.4" y1="136.946" y2="140.121"/><line x1="162.4" x2="159.225" y1="140.121" y2="140.121"/><line x1="159.225" x2="159.225" y1="140.121" y2="143.296"/><line x1="159.225" x2="162.4" y1="143.296" y2="143.296"/><line x1="162.4" x2="162.4" y1="143.296" y2="146.471"/><line x1="162.4" x2="159.225" y1="146.471" y2="146.471"/><line x1="159.225" x2="159.225" y1="146.471" y2="149.646"/><line x1="159.225" x2="162.4" y1="149.646" y2="149.646"/><line x1="162.4" x2="162.4" y1="149.646" y2="152.821"/><line x1="162.4" x2="159.225" y1="152.821" y2="152.821"/><line x1="159.225" x2="159.225" y1="152.821" y2="155.996"/><line x1="159.225" x2="162.4" y1="155.996" y2="155.996"/><line x1="162.4" x2="162.4" y1="155.996" y2="159.171"/><line x1="162.4" x2="159.225" y1="159.171" y2="159.171"/><line x1="159.225" x2="159.225" y1="159.171" y2="162.346"/><line x1="159.225" x2="162.4" y1="162.346" y2="162.346"/><line x1="162.4" x2="162.4" y1="162.346" y2="165.521"/><line x1="162.4" x2="159.225" y1="165.521" y2="165.521"/><line x1="159.225" x2="159.225" y1="165.521" y2="168.696"/><line x1="159.225" x2="162.4" y1="168.696" y2="168.696"/><line x1="162.4" x2="162.4" y1="168.696" y2="171.871"/><line x1="162.4" x2="159.225" y1="171.871" y2="171.871"/><line x1="159.225" x2="159.225" y1="171.871" y2="175.046"/><line x1="159.225" x2="162.4" y1="175.046" y2="175.046"/><line x1="162.4" x2="162.4" y1="175.046" y2="178.221"/><line x1="162.4" x2="159.225" y1="178.221" y2="178.221"/><line x1="159.225" x2="159.225" y1="178.221" y2="181.396"/><line x1="159.225" x2="162.4" y1="181.396" y2="181.396"/><line x1="162.4" x2="162.4" y1="181.396" y2="184.571"/><line x1="162.4" x2="159.225" y1="184.571" y2="184.571"/><line x1="159.225" x2="159.225" y1="184.571" y2="187.746"/><line x1="159.225" x2="162.4" y1="187.746" y2="187.746"/><line x1="162.4" x2="162.4" y1="187.746" y2="190.921"/><line x1="162.4" x2="159.225" y1="190.921" y2="190.921"/><line x1="159.225" x2="159.225" y1="190.921" y2="197.271"/><line x1="159.225" x2="156.05" y1="197.271" y2="197.271"/><line x1="156.05" x2="156.05" y1="197.271" y2="194.096"/><line x1="156.05" x2="152.875" y1="194.096" y2="194.096"/><line x1="152.875" x2="152.875" y1="194.096" y2="197.271"/><line x1="152.875" x2="149.7" y1="197.271" y2="197.271"/><line x1="149.7" x2="149.7" y1="197.271" y2="194.096"/><line x1="149.7" x2="146.525" y1="194.096" y2="194.096"/><line x1="146.525" x2="146.525" y1="194.096" y2="197.271"/><line x1="146.525" x2="143.35" y1="197.271" y2="197.271"/><line x1="143.35" x2="143.35" y1="197.271" y2="194.096"/><line x1="143.35" x2="140.175" y1="194.096" y2="194.096"/><line x1="140.175" x2="140.175" y1="194.096" y2="197.271"/><line x1="140.175" x2="137" y1="197.271" y2="197.271"/><line x1="137" x2="137" y1="197.271" y2="194.096"/><line x1="137" x2="133.825" y1="194.096" y2="194.096"/><line x1="133.825" x2="133.825" y1="194.096" y2="197.271"/><line x1="133.825" x2="130.65" y1="197.271" y2="197.271"/><line x1="130.65" x2="130.65" y1="197.271" y2="194.096"/><line x1="130.65" x2="127.475" y1="194.096" y2="194.096"/><line x1="127.475" x2="127.475" y1="194.096" y2="197.271"/><line x1="127.475" x2="124.3" y1="197.271" y2="197.271"/><line x1="124.3" x2="124.3" y1="197.271" y2="194.096"/><line x1="124.3" x2="121.125" y1="194.096" y2="194.096"/><line x1="121.125" x2="121.125" y1="194.096" y2="197.271"/><line x1="121.125" x2="117.95" y1="197.271" y2="197.271"/><line x1="117.95" x2="117.95" y1="197.271" y2="194.096"/><line x1="117.95" x2="114.775" y1="194.096" y2="194.096"/><line x1="114.775" x2="114.775" y1="194.096" y2="197.271"/><line x1="114.775" x2="111.6" y1="197.271" y2="197.271"/><line x1="111.6" x2="111.6" y1="197.271" y2="194.096"/><line x1="111.6" x2="108.425" y1="194.096" y2="194.096"/><line x1="108.425" x2="108.425" y1="194.096" y2="197.271"/><line x1="108.425" x2="105.25" y1="197.271" y2="197.271"/><line x1="105.25" x2="105.25" y1="197.271" y2="194.096"/><line x1="105.25" x2="102.075" y1="194.096" y2="194.096"/><line x1="102.075" x2="102.075" y1="194.096" y2="197.271"/><line x1="102.075" x2="98.9" y1="197.271" y2="197.271"/><line x1="98.9" x2="98.9" y1="197.271" y2="194.096"/><line x1="98.9" x2="95.725" y1="194.096" y2="194.096"/><line x1="95.725" x2="95.725" y1="194.096" y2="197.271"/><line x1="95.725" x2="92.55" y1="197.271" y2="197.271"/><line x1="92.55" x2="92.55" y1="197.271" y2="194.096"/><line x1="92.55" x2="89.375" y1="194.096" y2="194.096"/><line x1="89.375" x2="89.375" y1="194.096" y2="197.271"/><line x1="89.375" x2="86.2" y1="197.271" y2="197.271"/><line x1="86.2" x2="86.2" y1="197.271" y2="194.096"/><line x1="86.2" x2="83.025" y1="194.096" y2="194.096"/><line x1="83.025" x2="83.025" y1="194.096" y2="197.271"/><line x1="83.025" x2="79.85" y1="197.271" y2="197.271"/><line x1="79.85" x2="79.85" y1="197.271" y2="194.096"/><line x1="79.85" x2="76.675" y1="194.096" y2="194.096"/><line x1="76.675" x2="76.675" y1="194.096" y2="197.271"/><line x1="76.675" x2="73.5" y1="197.271" y2="197.271"/><line x1="73.5" x2="73.5" y1="197.271" y2="194.096"/><line x1="73.5" x2="70.325" y1="194.096" y2="194.096"/><line x1="70.325" x2="70.325" y1="194.096" y2="197.271"/><line x1="70.325" x2="67.15" y1="197.271" y2="197.271"/><line x1="67.15" x2="67.15" y1="197.271" y2="194.096"/><line x1="67.15" x2="60.8" y1="194.096" y2="194.096"/><line x1="60.8" x2="60.8" y1="194.096" y2="190.921"/><line x1="60.8" x2="63.975" y1="190.921" y2="190.921"/><line x1="63.975" x2="63.975" y1="190.921" y2="187.746"/><line x1="63.975" x2="60.8" y1="187.746" y2="187.746"/><line x1="60.8" x2="60.8" y1="187.746" y2="184.571"/><line x1="60.8" x2="63.975" y1="184.571" y2="184.571"/><line x1="63.975" x2="63.975" y1="184.571" y2="181.396"/><line x1="63.975" x2="60.8" y1="181.396" y2="181.396"/><line x1="60.8" x2="60.8" y1="181.396" y2="178.221"/><line x1="60.8" x2="63.975" y1="178.221" y2="178.221"/><line x1="63.975" x2="63.975" y1="178.221" y2="175.046"/><line x1="63.975" x2="60.8" y1="175.046" y2="175.046"/><line x1="60.8" x2="60.8" y1="175.046" y2="171.871"/><line x1="60.8" x2="63.975" y1="171.871" y2="171.871"/><line x1="63.975" x2="63.975" y1="171.871" y2="168.696"/><line x1="63.975" x2="60.8" y1="168.696" y2="168.696"/><line x1="60.8" x2="60.8" y1="168.696" y2="165.521"/><line x1="60.8" x2="63.975" y1="165.521" y2="165.521"/><line x1="63.975" x2="63.975" y1="165.521" y2="162.346"/><line x1="63.975" x2="60.8" y1="162.346" y2="162.346"/><line x1="60.8" x2="60.8" y1="162.346" y2="159.171"/><line x1="60.8" x2="63.975" y1="159.171" y2="159.171"/><line x1="63.975" x2="63.975" y1="159.171" y2="155.996"/><line x1="63.975" x2="60.8" y1="155.996" y2="155.996"/><line x1="60.8" x2="60.8" y1="155.996" y2="152.821"/><line x1="60.8" x2="63.975" y1="152.821" y2="152.821"/><line x1="63.975" x2="63.975" y1="152.821" y2="149.646"/><line x1="63.975" x2="60.8" y1="149.646" y2="149.646"/><line x1="60.8" x2="60.8" y1="149.646" y2="146.471"/><line x1="60.8" x2="63.975" y1="146.471" y2="146.471"/><line x1="63.975" x2="63.975" y1="146.471" y2="143.296"/><line x1="63.975" x2="60.8" y1="143.296" y2="143.296"/><line x1="60.8" x2="60.8" y1="143.296" y2="140.121"/><line x1="60.8" x2="63.975" y1="140.121" y2="140.121"/><line x1="63.975" x2="63.975" y1="140.121" y2="136.946"/><line x1="63.975" x2="60.8" y1="136.946" y2="136.946"/><line x1="60.8" x2="60.8" y1="136.946" y2="133.771"/><line x1="60.8" x2="63.975" y1="133.771" y2="133.771"/><line x1="63.975" x2="63.975" y1="133.771" y2="130.596"/><line x1="63.975" x2="60.8" y1="130.596" y2="130.596"/><line x1="60.8" x2="60.8" y1="130.596" y2="127.421"/><line x1="60.8" x2="63.975" y1="127.421" y2="127.421"/><line x1="63.975" x2="63.975" y1="127.421" y2="124.246"/><line x1="63.975" x2="60.8" y1="124.246" y2="124.246"/><line x1="60.8" x2="60.8" y1="124.246" y2="121.071"/><line x1="60.8" x2="63.975" y1="121.071" y2="121.071"/><line x1="63.975" x2="63.975" y1="121.071" y2="117.896"/><line x1="63.975" x2="60.8" y1="117.896" y2="117.896"/><line x1="60.8" x2="60.8" y1="117.896" y2="114.721"/><line x1="60.8" x2="63.975" y1="114.721" y2="114.721"/><line x1="63.975" x2="63.975" y1="114.721" y2="111.546"/><line x1="63.975" x2="60.8" y1="111.546" y2="111.546"/><line x1="60.8" x2="60.8" y1="111.546" y2="108.371"/><line x1="60.8" x2="63.975" y1="108.371" y2="108.371"/><line x1="63.975" x2="63.975" y1="108.371" y2="105.196"/><line x1="63.975" x2="60.8" y1="105.196" y2="105.196"/><line x1="60.8" x2="60.8" y1="105.196" y2="102.021"/><line x1="60.8" x2="63.975" y1="102.021" y2="102.021"/><line x1="63.975" x2="63.975" y1="102.021" y2="98.846"/><line x1="63.975" x2="60.8" y1="98.846" y2="98.846"/><line x1="60.8" x2="60.8" y1="98.846" y2="95.671"/><line x1="60.8" x2="63.975" y1="95.671" y2="95.671"/><line x1="63.975" x2="63.975" y1="95.671" y2="92.496"/><line x1="63.975" x2="60.8" y1="92.496" y2="92.496"/><line x1="60.8" x2="60.8" y1="92.496" y2="89.321"/><line x1="60.8" x2="63.975" y1="89.321" y2="89.321"/><line x1="63.975" x2="63.975" y1="89.321" y2="86.146"/><line x1="63.975" x2="60.8" y1="86.146" y2="86.146"/><line x1="60.8" x2="60.8" y1="86.146" y2="82.971"/><line x1="60.8" x2="63.975" y1="82.971" y2="82.971"/><line x1="63.975" x2="63.975" y1="82.971" y2="79.796"/><line x1="63.975" x2="60.8" y1="79.796" y2="79.796"/><line x1="60.8" x2="60.8" y1="79.796" y2="76.621"/><line x1="60.8" x2="63.975" y1="76.621" y2="76.621"/><line x1="63.975" x2="63.975" y1="76.621" y2="73.446"/><line x1="63.975" x2="60.8" y1="73.446" y2="73.446"/><line x1="60.8" x2="60.8" y1="73.446" y2="70.271"/><line x1="60.8" x2="63.975" y1="70.271" y2="70.271"/><line x1="63.975" x2="63.975" y1="70.271" y2="67.096"/><line x1="63.975" x2="60.8" y1="67.096" y2="67.096"/><line x1="60.8" x2="60.8" y1="67.096" y2="63.921"/><line x1="60.8" x2="63.975" y1="63.921" y2="63.921"/><line x1="63.975" x2="63.975" y1="63.921" y2="60.746"/><line x1="63.975" x2="60.8" y1="60.746" y2="60.746"/><line x1="60.8" x2="60.8" y1="60.746" y2="57.571"/><line x1="60.8" x2="63.975" y1="57.571" y2="57.571"/><line x1="63.975" x2="63.975" y1="57.571" y2="54.396"/><line x1="63.975" x2="60.8" y1="54.396" y2="54.396"/><line x1="60.8" x2="60.8" y1="54.396" y2="51.221"/><line x1="60.8" x2="63.975" y1="51.221" y2="51.221"/><line x1="63.975" x2="63.975" y1="51.221" y2="48.046"/><line x1="63.975" x2="60.8" y1="48.046" y2="48.046"/><line x1="60.8" x2="60.8" y1="48.046" y2="44.871"/><line x1="60.8" x2="63.975" y1="44.871" y2="44.871"/><line x1="63.975" x2="63.975" y1="44.871" y2="41.696"/><line x1="63.975" x2="60.8" y1="41.696" y2="41.696"/><line x1="60.8" x2="60.8" y1="41.696" y2="38.521"/><line x1="60.8" x2="63.975" y1="38.521" y2="38.521"/><line x1="63.975" x2="63.975" y1="38.521" y2="35.346"/><line x1="63.975" x2="60.8" y1="35.346" y2="35.346"/><line x1="60.8" x2="60.8" y1="35.346" y2="32.171"/><line x1="60.8" x2="63.975" y1="32.171" y2="32.171"/><line x1="63.975" x2="63.975" y1="32.171" y2="28.996"/><line x1="63.975" x2="60.8" y1="28.996" y2="28.996"/><line x1="60.8" x2="60.8" y1="28.996" y2="25.821"/><line x1="60.8" x2="63.975" y1="25.821" y2="25.821"/><line x1="63.975" x2="63.975" y1="25.821" y2="22.646"/><line x1="63.975" x2="60.8" y1="22.646" y2="22.646"/><line x1="60.8" x2="60.8" y1="22.646" y2="19.471"/><line x1="60.8" x2="63.975" y1="19.471" y2="19.471"/><line x1="63.975" x2="63.975" y1="19.471" y2="16.296"/><line x1="63.975" x2="60.8" y1="16.296" y2="16.296"/><line x1="60.8" x2="60.8" y1="16.296" y2="15.276"/><line x1="60.8" x2="58.808" y1="15.276" y2="14.5"/><line x1="58.808" x2="30.683" y1="14.5" y2="10"/><line x1="30.683" x2="30.683" y1="10" y2="34.75"/><line x1="30.683" x2="33.721" y1="34.75" y2="34.75"/><line x1="33.721" x2="33.721" y1="34.75" y2="25.75"/><line x1="33.721" x2="37.771" y1="25.75" y2="25.75"/><line x1="37.771" x2="37.771" y1="25.75" y2="34.75"/><line x1="37.771" x2="43.058" y1="34.75" y2="34.75"/><line x1="43.058" x2="43.058" y1="34.75" y2="37"/><line x1="43.058" x2="41.933" y1="37" y2="37"/><line x1="41.933" x2="41.933" y1="37" y2="60.265"/><line x1="41.933" x2="39.683" y1="60.265" y2="60.265"/><line x1="39.683" x2="39.683" y1="60.265" y2="59.14"/><line x1="39.683" x2="13.808" y1="59.14" y2="55"/><line x1="13.808" x2="13.175" y1="55" y2="55"/><line x1="13.175" x2="13.175" y1="55" y2="57.571"/><line x1="13.175" x2="10" y1="57.571" y2="57.571"/><line x1="10" x2="10" y1="57.571" y2="60.746"/><line x1="10" x2="13.175" y1="60.746" y2="60.746"/><line x1="13.175" x2="13.175" y1="60.746" y2="63.921"/><line x1="13.175" x2="10" y1="63.921" y2="63.921"/><line x1="10" x2="10" y1="63.921" y2="67.096"/><line x1="10" x2="13.175" y1="67.096" y2="67.096"/><line x1="13.175" x2="13.175" y1="67.096" y2="70.271"/><line x1="13.175" x2="10" y1="70.271" y2="70.271"/><line x1="10" x2="10" y1="70.271" y2="73.446"/><line x1="10" x2="13.175" y1="73.446" y2="73.446"/><line x1="13.175" x2="13.175" y1="73.446" y2="76.621"/><line x1="13.175" x2="10" y1="76.621" y2="76.621"/><line x1="10" x2="10" y1="76.621" y2="79.796"/><line x1="10" x2="13.175" y1="79.796" y2="79.796"/><line x1="13.175" x2="13.175" y1="79.796" y2="82.971"/><line x1="13.175" x2="10" y1="82.971" y2="82.971"/><line x1="10" x2="10" y1="82.971" y2="86.146"/><line x1="10" x2="13.175" y1="86.146" y2="86.146"/><line x1="13.175" x2="13.175" y1="86.146" y2="89.321"/><line x1="13.175" x2="10" y1="89.321" y2="89.321"/><line x1="10" x2="10" y1="89.321" y2="92.496"/><line x1="10" x2="13.175" y1="92.496" y2="92.496"/><line x1="13.175" x2="13.175" y1="92.496" y2="95.671"/><line x1="13.175" x2="10" y1="95.671" y2="95.671"/><line x1="10" x2="10" y1="95.671" y2="98.846"/><line x1="10" x2="13.175" y1="98.846" y2="98.846"/><line x1="13.175" x2="13.175" y1="98.846" y2="102.021"/><line x1="13.175" x2="10" y1="102.021" y2="102.021"/><line x1="10" x2="10" y1="102.021" y2="105.196"/><line x1="10" x2="13.175" y1="105.196" y2="105.196"/><line x1="13.175" x2="13.175" y1="105.196" y2="108.371"/><line x1="13.175" x2="10" y1="108.371" y2="108.371"/><line x1="10" x2="10" y1="108.371" y2="111.546"/><line x1="10" x2="13.175" y1="111.546" y2="111.546"/><line x1="13.175" x2="13.175" y1="111.546" y2="114.721"/><line x1="13.175" x2="10" y1="114.721" y2="114.721"/><line x1="10" x2="10" y1="114.721" y2="117.896"/><line x1="10" x2="13.175" y1="117.896" y2="117.896"/><line x1="13.175" x2="13.175" y1="117.896" y2="121.071"/><line x1="13.175" x2="10" y1="121.071" y2="121.071"/><line x1="10" x2="10" y1="121.071" y2="124.246"/><line x1="10" x2="13.175" y1="124.246" y2="124.246"/><line x1="13.175" x2="13.175" y1="124.246" y2="127.421"/><line x1="13.175" x2="10" y1="127.421" y2="127.421"/><line x1="10" x2="10" y1="127.421" y2="130.596"/><line x1="10" x2="13.175" y1="130.596" y2="130.596"/><line x1="13.175" x2="13.175" y1="130.596" y2="133.771"/><line x1="13.175" x2="10" y1="133.771" y2="133.771"/><line x1="10" x2="10" y1="133.771" y2="136.946"/><line x1="10" x2="13.175" y1="136.946" y2="136.946"/><line x1="13.175" x2="13.175" y1="136.946" y2="140.121"/><line x1="13.175" x2="10" y1="140.121" y2="140.121"/><line x1="10" x2="10" y1="140.121" y2="143.296"/><line x1="10" x2="13.175" y1="143.296" y2="143.296"/><line x1="13.175" x2="13.175" y1="143.296" y2="146.471"/><line x1="13.175" x2="10" y1="146.471" y2="146.471"/><line x1="10" x2="10" y1="146.471" y2="149.646"/><line x1="10" x2="13.175" y1="149.646" y2="149.646"/><line x1="13.175" x2="13.175" y1="149.646" y2="152.821"/><line x1="13.175" x2="10" y1="152.821" y2="152.821"/><line x1="10" x2="10" y1="152.821" y2="155.996"/><line x1="10" x2="13.175" y1="155.996" y2="155.996"/><line x1="13.175" x2="13.175" y1="155.996" y2="159.171"/><line x1="13.175" x2="10" y1="159.171" y2="159.171"/><line x1="10" x2="10" y1="159.171" y2="162.346"/><line x1="10" x2="13.175" y1="162.346" y2="162.346"/><line x1="13.175" x2="13.175" y1="162.346" y2="165.521"/><line x1="13.175" x2="10" y1="165.521" y2="165.521"/><line x1="10" x2="10" y1="165.521" y2="168.696"/><line x1="10" x2="13.175" y1="168.696" y2="168.696"/><line x1="13.175" x2="13.175" y1="168.696" y2="171.871"/><line x1="13.175" x2="10" y1="171.871" y2="171.871"/><line x1="10" x2="10" y1="171.871" y2="175.046"/><line x1="10" x2="13.175" y1="175.046" y2="175.046"/><line x1="13.175" x2="13.175" y1="175.046" y2="178.221"/><line x1="13.175" x2="10" y1="178.221" y2="178.221"/><line x1="10" x2="10" y1="178.221" y2="181.396"/><line x1="10" x2="13.175" y1="181.396" y2="181.396"/><line x1="13.175" x2="13.175" y1="181.396" y2="184.571"/><line x1="13.175" x2="10" y1="184.571" y2="184.571"/><line x1="10" x2="10" y1="184.571" y2="187.746"/><line x1="10" x2="13.175" y1="187.746" y2="187.746"/><line x1="13.175" x2="13.175" y1="187.746" y2="190.921"/><line x1="13.175" x2="10" y1="190.921" y2="190.921"/><line x1="10" x2="10" y1="190.921" y2="194.096"/><line x1="10" x2="13.175" y1="194.096" y2="194.096"/><line x1="13.175" x2="13.175" y1="194.096" y2="197.271"/><line x1="13.175" x2="10" y1="197.271" y2="197.271"/><line x1="10" x2="10" y1="197.271" y2="200.446"/><line x1="10" x2="13.175" y1="200.446" y2="200.446"/><line x1="13.175" x2="13.175" y1="200.446" y2="203.621"/><line x1="13.175" x2="10" y1="203.621" y2="203.621"/><line x1="10" x2="10" y1="203.621" y2="206.796"/><line x1="10" x2="13.175" y1="206.796" y2="206.796"/><line x1="13.175" x2="13.175" y1="206.796" y2="209.971"/><line x1="13.175" x2="10" y1="209.971" y2="209.971"/><line x1="10" x2="10" y1="209.971" y2="213.146"/><line x1="10" x2="13.175" y1="213.146" y2="213.146"/><line x1="13.175" x2="13.175" y1="213.146" y2="216.321"/><line x1="13.175" x2="10" y1="216.321" y2="216.321"/><line x1="10" x2="10" y1="216.321" y2="219.496"/><line x1="10" x2="13.175" y1="219.496" y2="219.496"/><line x1="13.175" x2="13.175" y1="219.496" y2="222.671"/><line x1="13.175" x2="10" y1="222.671" y2="222.671"/><line x1="10" x2="10" y1="222.671" y2="225.846"/><line x1="10" x2="13.175" y1="225.846" y2="225.846"/><line x1="13.175" x2="13.175" y1="225.846" y2="229.021"/><line x1="13.175" x2="16.35" y1="229.021" y2="229.021"/><line x1="16.35" x2="16.35" y1="229.021" y2="225.846"/><line x1="16.35" x2="19.525" y1="225.846" y2="225.846"/><line x1="19.525" x2="19.525" y1="225.846" y2="229.021"/><line x1="19.525" x2="22.7" y1="229.021" y2="229.021"/><line x1="22.7" x2="22.7" y1="229.021" y2="225.846"/><line x1="22.7" x2="25.875" y1="225.846" y2="225.846"/><line x1="25.875" x2="25.875" y1="225.846" y2="229.021"/><line x1="25.875" x2="29.05" y1="229.021" y2="229.021"/><line x1="29.05" x2="29.05" y1="229.021" y2="225.846"/><line x1="29.05" x2="32.225" y1="225.846" y2="225.846"/><line x1="32.225" x2="32.225" y1="225.846" y2="229.021"/><line x1="32.225" x2="35.4" y1="229.021" y2="229.021"/><line x1="35.4" x2="35.4" y1="229.021" y2="225.846"/><line x1="35.4" x2="38.575" y1="225.846" y2="225.846"/><line x1="38.575" x2="38.575" y1="225.846" y2="229.021"/><line x1="38.575" x2="41.75" y1="229.021" y2="229.021"/><line x1="41.75" x2="41.75" y1="229.021" y2="225.846"/><line x1="41.75" x2="44.925" y1="225.846" y2="225.846"/><line x1="44.925" x2="44.925" y1="225.846" y2="229.021"/><line x1="44.925" x2="48.1" y1="229.021" y2="229.021"/><line x1="48.1" x2="48.1" y1="229.021" y2="225.846"/><line x1="48.1" x2="51.275" y1="225.846" y2="225.846"/><line x1="51.275" x2="51.275" y1="225.846" y2="229.021"/><line x1="51.275" x2="54.45" y1="229.021" y2="229.021"/><line x1="54.45" x2="54.45" y1="229.021" y2="225.846"/><line x1="54.45" x2="57.625" y1="225.846" y2="225.846"/><line x1="57.625" x2="57.625" y1="225.846" y2="229.021"/><line x1="57.625" x2="60.8" y1="229.021" y2="229.021"/><line x1="60.8" x2="60.8" y1="229.021" y2="225.846"/><line x1="60.8" x2="63.975" y1="225.846" y2="225.846"/><line x1="63.975" x2="63.975" y1="225.846" y2="229.021"/><line x1="63.975" x2="67.15" y1="229.021" y2="229.021"/><line x1="67.15" x2="67.15" y1="229.021" y2="225.846"/><line x1="67.15" x2="70.325" y1="225.846" y2="225.846"/><line x1="70.325" x2="70.325" y1="225.846" y2="229.021"/><line x1="70.325" x2="73.5" y1="229.021" y2="229.021"/><line x1="73.5" x2="73.5" y1="229.021" y2="225.846"/><line x1="73.5" x2="76.675" y1="225.846" y2="225.846"/><line x1="76.675" x2="76.675" y1="225.846" y2="229.021"/><line x1="76.675" x2="79.85" y1="229.021" y2="229.021"/><line x1="79.85" x2="79.85" y1="229.021" y2="225.846"/><line x1="79.85" x2="83.025" y1="225.846" y2="225.846"/><line x1="83.025" x2="83.025" y1="225.846" y2="229.021"/><line x1="83.025" x2="86.2" y1="229.021" y2="229.021"/><line x1="86.2" x2="86.2" y1="229.021" y2="225.846"/><line x1="86.2" x2="89.375" y1="225.846" y2="225.846"/><line x1="89.375" x2="89.375" y1="225.846" y2="229.021"/><line x1="89.375" x2="92.55" y1="229.021" y2="229.021"/><line x1="92.55" x2="92.55" y1="229.021" y2="225.846"/><line x1="92.55" x2="95.725" y1="225.846" y2="225.846"/><line x1="95.725" x2="95.725" y1="225.846" y2="229.021"/><line x1="95.725" x2="98.9" y1="229.021" y2="229.021"/><line x1="98.9" x2="98.9" y1="229.021" y2="225.846"/><line x1="98.9" x2="102.075" y1="225.846" y2="225.846"/><line x1="102.075" x2="102.075" y1="225.846" y2="229.021"/><line x1="102.075" x2="105.25" y1="229.021" y2="229.021"/><line x1="105.25" x2="105.25" y1="229.021" y2="225.846"/><line x1="105.25" x2="108.425" y1="225.846" y2="225.846"/><line x1="108.425" x2="108.425" y1="225.846" y2="229.021"/><line x1="108.425" x2="111.6" y1="229.021" y2="229.021"/><line x1="111.6" x2="111.6" y1="229.021" y2="225.846"/><line x1="111.6" x2="114.775" y1="225.846" y2="225.846"/><line x1="114.775" x2="114.775" y1="225.846" y2="229.021"/><line x1="114.775" x2="117.95" y1="229.021" y2="229.021"/><line x1="117.95" x2="117.95" y1="229.021" y2="225.846"/><line x1="117.95" x2="121.125" y1="225.846" y2="225.846"/><line x1="121.125" x2="121.125" y1="225.846" y2="229.021"/><line x1="121.125" x2="124.3" y1="229.021" y2="229.021"/><line x1="124.3" x2="124.3" y1="229.021" y2="225.846"/><line x1="124.3" x2="127.475" y1="225.846" y2="225.846"/><line x1="127.475" x2="127.475" y1="225.846" y2="229.021"/><line x1="127.475" x2="130.65" y1="229.021" y2="229.021"/><line x1="130.65" x2="130.65" y1="229.021" y2="225.846"/><line x1="130.65" x2="133.825" y1="225.846" y2="225.846"/><line x1="133.825" x2="133.825" y1="225.846" y2="229.021"/><line x1="133.825" x2="137" y1="229.021" y2="229.021"/><line x1="137" x2="137" y1="229.021" y2="225.846"/><line x1="137" x2="140.175" y1="225.846" y2="225.846"/><line x1="140.175" x2="140.175" y1="225.846" y2="229.021"/><line x1="140.175" x2="143.35" y1="229.021" y2="229.021"/><line x1="143.35" x2="143.35" y1="229.021" y2="225.846"/><line x1="143.35" x2="146.525" y1="225.846" y2="225.846"/><line x1="146.525" x2="146.525" y1="225.846" y2="229.021"/><line x1="146.525" x2="149.7" y1="229.021" y2="229.021"/><line x1="149.7" x2="149.7" y1="229.021" y2="225.846"/><line x1="149.7" x2="152.875" y1="225.846" y2="225.846"/><line x1="152.875" x2="152.875" y1="225.846" y2="229.021"/><line x1="152.875" x2="156.05" y1="229.021" y2="229.021"/><line x1="156.05" x2="156.05" y1="229.021" y2="225.846"/><line x1="156.05" x2="159.225" y1="225.846" y2="225.846"/><line x1="159.225" x2="159.225" y1="225.846" y2="229.021"/><line x1="159.225" x2="162.4" y1="229.021" y2="229.021"/><line x1="162.4" x2="162.4" y1="229.021" y2="225.846"/><line x1="162.4" x2="165.575" y1="225.846" y2="225.846"/><line x1="165.575" x2="165.575" y1="225.846" y2="229.021"/><line x1="165.575" x2="168.75" y1="229.021" y2="229.021"/><line x1="168.75" x2="168.75" y1="229.021" y2="225.846"/><line x1="168.75" x2="171.925" y1="225.846" y2="225.846"/><line x1="171.925" x2="171.925" y1="225.846" y2="229.021"/><line x1="171.925" x2="175.1" y1="229.021" y2="229.021"/><line x1="175.1" x2="175.1" y1="229.021" y2="225.846"/><line x1="175.1" x2="178.275" y1="225.846" y2="225.846"/><line x1="178.275" x2="178.275" y1="225.846" y2="229.021"/><line x1="178.275" x2="181.45" y1="229.021" y2="229.021"/><line x1="181.45" x2="181.45" y1="229.021" y2="225.846"/><line x1="181.45" x2="184.625" y1="225.846" y2="225.846"/><line x1="184.625" x2="184.625" y1="225.846" y2="229.021"/><line x1="184.625" x2="187.8" y1="229.021" y2="229.021"/><line x1="187.8" x2="187.8" y1="229.021" y2="225.846"/><line x1="187.8" x2="190.975" y1="225.846" y2="225.846"/><line x1="190.975" x2="190.975" y1="225.846" y2="229.021"/><line x1="190.975" x2="194.15" y1="229.021" y2="229.021"/><line x1="194.15" x2="194.15" y1="229.021" y2="225.846"/><line x1="194.15" x2="197.325" y1="225.846" y2="225.846"/><line x1="197.325" x2="197.325" y1="225.846" y2="229.021"/><line x1="197.325" x2="200.5" y1="229.021" y2="229.021"/><line x1="200.5" x2="200.5" y1="229.021" y2="225.846"/><line x1="200.5" x2="203.675" y1="225.846" y2="225.846"/><line x1="203.675" x2="203.675" y1="225.846" y2="229.021"/><line x1="203.675" x2="206.85" y1="229.021" y2="229.021"/><line x1="206.85" x2="206.85" y1="229.021" y2="225.846"/><line x1="206.85" x2="210.025" y1="225.846" y2="225.846"/><line x1="210.025" x2="210.025" y1="225.846" y2="222.671"/><line x1="210.025" x2="213.2" y1="222.671" y2="222.671"/><line x1="213.2" x2="213.2" y1="222.671" y2="219.496"/><line x1="213.2" x2="210.025" y1="219.496" y2="219.496"/><line x1="210.025" x2="210.025" y1="219.496" y2="216.321"/><line x1="210.025" x2="213.2" y1="216.321" y2="216.321"/><line x1="213.2" x2="213.2" y1="216.321" y2="213.146"/><line x1="213.2" x2="210.025" y1="213.146" y2="213.146"/><line x1="210.025" x2="210.025" y1="213.146" y2="209.971"/><line x1="210.025" x2="213.2" y1="209.971" y2="209.971"/><line x1="213.2" x2="213.2" y1="209.971" y2="206.796"/><line x1="213.2" x2="210.025" y1="206.796" y2="206.796"/><line x1="210.025" x2="210.025" y1="206.796" y2="203.621"/><line x1="210.025" x2="213.2" y1="203.621" y2="203.621"/><line x1="213.2" x2="213.2" y1="203.621" y2="200.446"/><line x1="21.796" x2="21.796" y1="85.263" y2="83.238"/><line x1="21.796" x2="23.821" y1="83.238" y2="83.237"/><line x1="23.821" x2="23.821" y1="83.237" y2="85.263"/><line x1="23.821" x2="21.796" y1="85.263" y2="85.263"/><line x1="35.296" x2="35.296" y1="85.262" y2="83.237"/><line x1="35.296" x2="37.321" y1="83.237" y2="83.237"/><line x1="37.321" x2="37.321" y1="83.237" y2="85.262"/><line x1="37.321" x2="35.296" y1="85.262" y2="85.262"/><line x1="50.821" x2="48.796" y1="85.262" y2="85.262"/><line x1="48.796" x2="48.796" y1="85.262" y2="83.237"/><line x1="48.796" x2="50.821" y1="83.237" y2="83.237"/><line x1="50.821" x2="50.821" y1="83.237" y2="85.262"/><line x1="171.538" x2="171.538" y1="85.858" y2="83.833"/><line x1="171.538" x2="173.563" y1="83.833" y2="83.833"/><line x1="173.563" x2="173.563" y1="83.833" y2="85.858"/><line x1="173.563" x2="171.538" y1="85.858" y2="85.858"/><line x1="200.563" x2="198.538" y1="94.858" y2="94.858"/><line x1="198.538" x2="198.538" y1="94.858" y2="92.833"/><line x1="198.538" x2="200.563" y1="92.833" y2="92.833"/><line x1="200.563" x2="200.563" y1="92.833" y2="94.858"/><line x1="173.563" x2="173.563" y1="92.833" y2="94.858"/><line x1="173.563" x2="171.538" y1="94.858" y2="94.858"/><line x1="171.538" x2="171.538" y1="94.858" y2="92.833"/><line x1="171.538" x2="173.563" y1="92.833" y2="92.833"/><line x1="187.063" x2="185.038" y1="94.858" y2="94.858"/><line x1="185.038" x2="185.038" y1="94.858" y2="92.833"/><line x1="185.038" x2="187.063" y1="92.833" y2="92.833"/><line x1="187.063" x2="187.063" y1="92.833" y2="94.858"/><line x1="185.038" x2="185.038" y1="85.858" y2="83.833"/><line x1="185.038" x2="187.063" y1="83.833" y2="83.833"/><line x1="187.063" x2="187.063" y1="83.833" y2="85.858"/><line x1="187.063" x2="185.038" y1="85.858" y2="85.858"/><line x1="198.538" x2="198.538" y1="85.858" y2="83.833"/><line x1="198.538" x2="200.563" y1="83.833" y2="83.833"/><line x1="200.563" x2="200.563" y1="83.833" y2="85.858"/><line x1="200.563" x2="198.538" y1="85.858" y2="85.858"/><line x1="23.821" x2="23.821" y1="92.237" y2="94.263"/><line x1="23.821" x2="21.796" y1="94.263" y2="94.263"/><line x1="21.796" x2="21.796" y1="94.263" y2="92.238"/><line x1="21.796" x2="23.821" y1="92.238" y2="92.237"/><line x1="50.821" x2="48.796" y1="94.262" y2="94.262"/><line x1="48.796" x2="48.796" y1="94.262" y2="92.237"/><line x1="48.796" x2="50.821" y1="92.237" y2="92.237"/><line x1="50.821" x2="50.821" y1="92.237" y2="94.262"/><line x1="37.321" x2="35.296" y1="94.262" y2="94.262"/><line x1="35.296" x2="35.296" y1="94.262" y2="92.237"/><line x1="35.296" x2="37.321" y1="92.237" y2="92.237"/><line x1="37.321" x2="37.321" y1="92.237" y2="94.262"/><line x1="206.85" x2="206.85" y1="146.471" y2="149.646"/><line x1="206.85" x2="181.45" y1="149.646" y2="149.646"/><line x1="181.45" x2="181.45" y1="149.646" y2="146.471"/><line x1="181.45" x2="206.85" y1="146.471" y2="146.471"/><line x1="206.85" x2="206.85" y1="95.671" y2="98.846"/><line x1="206.85" x2="181.45" y1="98.846" y2="98.846"/><line x1="181.45" x2="181.45" y1="98.846" y2="95.671"/><line x1="181.45" x2="206.85" y1="95.671" y2="95.671"/><line x1="16.35" x2="16.35" y1="200.446" y2="197.271"/><line x1="16.35" x2="41.75" y1="197.271" y2="197.271"/><line x1="41.75" x2="41.75" y1="197.271" y2="200.446"/><line x1="41.75" x2="16.35" y1="200.446" y2="200.446"/><line x1="16.35" x2="16.35" y1="149.646" y2="146.471"/><line x1="16.35" x2="41.75" y1="146.471" y2="146.471"/><line x1="41.75" x2="41.75" y1="146.471" y2="149.646"/><line x1="41.75" x2="16.35" y1="149.646" y2="149.646"/><line x1="16.35" x2="16.35" y1="98.846" y2="95.671"/><line x1="16.35" x2="41.75" y1="95.671" y2="95.671"/><line x1="41.75" x2="41.75" y1="95.671" y2="98.846"/><line x1="41.75" x2="16.35" y1="98.846" y2="98.846"/><line x1="51.275" x2="48.1" y1="222.671" y2="222.671"/><line x1="48.1" x2="48.1" y1="222.671" y2="197.271"/><line x1="48.1" x2="51.275" y1="197.271" y2="197.271"/><line x1="51.275" x2="51.275" y1="197.271" y2="222.671"/><line x1="175.1" x2="171.925" y1="222.671" y2="222.671"/><line x1="171.925" x2="171.925" y1="222.671" y2="197.271"/><line x1="171.925" x2="175.1" y1="197.271" y2="197.271"/><line x1="175.1" x2="175.1" y1="197.271" y2="222.671"/><line x1="206.85" x2="206.85" y1="197.271" y2="200.446"/><line x1="206.85" x2="181.45" y1="200.446" y2="200.446"/><line x1="181.45" x2="181.45" y1="200.446" y2="197.271"/><line x1="181.45" x2="206.85" y1="197.271" y2="197.271"/></g></svg>