<svg xmlns="http://www.w3.org/2000/svg" xmlns:xlink="http://www.w3.org/1999/xlink" width="210.5mm" height="399.765" version="1.1" viewBox="0 0 210.5 105.771"><desc>Output from Flights of Ideas SVG Sketchup Plugin</desc><g id="face0" fill="none" stroke="#00F" stroke-dasharray="none" stroke-linecap="round" stroke-linejoin="round" stroke-miterlimit="4" stroke-width="1"><line x1="187.8" x2="187.8" y1="81.376" y2="60.8"/><line x1="187.8" x2="194.15" y1="60.8" y2="60.8"/><line x1="194.15" x2="194.15" y1="60.8" y2="57.625"/><line x1="194.15" x2="200.5" y1="57.625" y2="57.625"/><line x1="200.5" x2="200.5" y1="57.625" y2="54.45"/><line x1="200.5" x2="197.325" y1="54.45" y2="54.45"/><line x1="197.325" x2="197.325" y1="54.45" y2="51.275"/><line x1="197.325" x2="200.5" y1="51.275" y2="51.275"/><line x1="200.5" x2="200.5" y1="51.275" y2="48.1"/><line x1="200.5" x2="197.325" y1="48.1" y2="48.1"/><line x1="197.325" x2="197.325" y1="48.1" y2="44.925"/><line x1="197.325" x2="200.5" y1="44.925" y2="44.925"/><line x1="200.5" x2="200.5" y1="44.925" y2="41.75"/><line x1="200.5" x2="197.325" y1="41.75" y2="41.75"/><line x1="197.325" x2="197.325" y1="41.75" y2="38.575"/><line x1="197.325" x2="200.5" y1="38.575" y2="38.575"/><line x1="200.5" x2="200.5" y1="38.575" y2="35.4"/><line x1="200.5" x2="197.325" y1="35.4" y2="35.4"/><line x1="197.325" x2="197.325" y1="35.4" y2="32.225"/><line x1="197.325" x2="200.5" y1="32.225" y2="32.225"/><line x1="200.5" x2="200.5" y1="32.225" y2="29.05"/><line x1="200.5" x2="197.325" y1="29.05" y2="29.05"/><line x1="197.325" x2="197.325" y1="29.05" y2="25.875"/><line x1="197.325" x2="200.5" y1="25.875" y2="25.875"/><line x1="200.5" x2="200.5" y1="25.875" y2="22.7"/><line x1="200.5" x2="197.325" y1="22.7" y2="22.7"/><line x1="197.325" x2="197.325" y1="22.7" y2="19.525"/><line x1="197.325" x2="200.5" y1="19.525" y2="19.525"/><line x1="200.5" x2="200.5" y1="19.525" y2="16.35"/><line x1="200.5" x2="197.325" y1="16.35" y2="16.35"/><line x1="197.325" x2="197.325" y1="16.35" y2="10"/><line x1="197.325" x2="194.15" y1="10" y2="10"/><line x1="194.15" x2="194.15" y1="10" y2="13.175"/><line x1="194.15" x2="190.975" y1="13.175" y2="13.175"/><line x1="190.975" x2="190.975" y1="13.175" y2="10"/><line x1="190.975" x2="187.8" y1="10" y2="10"/><line x1="187.8" x2="187.8" y1="10" y2="13.175"/><line x1="187.8" x2="184.625" y1="13.175" y2="13.175"/><line x1="184.625" x2="184.625" y1="13.175" y2="10"/><line x1="184.625" x2="181.45" y1="10" y2="10"/><line x1="181.45" x2="181.45" y1="10" y2="13.175"/><line x1="181.45" x2="178.275" y1="13.175" y2="13.175"/><line x1="178.275" x2="178.275" y1="13.175" y2="10"/><line x1="178.275" x2="175.1" y1="10" y2="10"/><line x1="175.1" x2="175.1" y1="10" y2="13.175"/><line x1="175.1" x2="171.925" y1="13.175" y2="13.175"/><line x1="171.925" x2="171.925" y1="13.175" y2="10"/><line x1="171.925" x2="168.75" y1="10" y2="10"/><line x1="168.75" x2="168.75" y1="10" y2="13.175"/><line x1="168.75" x2="165.575" y1="13.175" y2="13.175"/><line x1="165.575" x2="165.575" y1="13.175" y2="10"/><line x1="165.575" x2="162.4" y1="10" y2="10"/><line x1="162.4" x2="162.4" y1="10" y2="13.175"/><line x1="162.4" x2="159.225" y1="13.175" y2="13.175"/><line x1="159.225" x2="159.225" y1="13.175" y2="10"/><line x1="159.225" x2="156.05" y1="10" y2="10"/><line x1="156.05" x2="156.05" y1="10" y2="13.175"/><line x1="156.05" x2="152.875" y1="13.175" y2="13.175"/><line x1="152.875" x2="152.875" y1="13.175" y2="10"/><line x1="152.875" x2="149.7" y1="10" y2="10"/><line x1="149.7" x2="149.7" y1="10" y2="13.175"/><line x1="149.7" x2="146.525" y1="13.175" y2="13.175"/><line x1="146.525" x2="146.525" y1="13.175" y2="10"/><line x1="146.525" x2="143.35" y1="10" y2="10"/><line x1="143.35" x2="143.35" y1="10" y2="13.175"/><line x1="143.35" x2="140.175" y1="13.175" y2="13.175"/><line x1="140.175" x2="140.175" y1="13.175" y2="10"/><line x1="140.175" x2="137" y1="10" y2="10"/><line x1="137" x2="137" y1="10" y2="13.175"/><line x1="137" x2="133.825" y1="13.175" y2="13.175"/><line x1="133.825" x2="133.825" y1="13.175" y2="10"/><line x1="133.825" x2="130.65" y1="10" y2="10"/><line x1="130.65" x2="130.65" y1="10" y2="13.175"/><line x1="130.65" x2="127.475" y1="13.175" y2="13.175"/><line x1="127.475" x2="127.475" y1="13.175" y2="10"/><line x1="127.475" x2="124.3" y1="10" y2="10"/><line x1="124.3" x2="124.3" y1="10" y2="13.175"/><line x1="124.3" x2="121.125" y1="13.175" y2="13.175"/><line x1="121.125" x2="121.125" y1="13.175" y2="10"/><line x1="121.125" x2="117.95" y1="10" y2="10"/><line x1="117.95" x2="117.95" y1="10" y2="13.175"/><line x1="117.95" x2="114.775" y1="13.175" y2="13.175"/><line x1="114.775" x2="114.775" y1="13.175" y2="10"/><line x1="114.775" x2="111.6" y1="10" y2="10"/><line x1="111.6" x2="111.6" y1="10" y2="13.175"/><line x1="111.6" x2="108.425" y1="13.175" y2="13.175"/><line x1="108.425" x2="108.425" y1="13.175" y2="10"/><line x1="108.425" x2="105.25" y1="10" y2="10"/><line x1="105.25" x2="105.25" y1="10" y2="13.175"/><line x1="105.25" x2="102.075" y1="13.175" y2="13.175"/><line x1="102.075" x2="102.075" y1="13.175" y2="10"/><line x1="102.075" x2="98.9" y1="10" y2="10"/><line x1="98.9" x2="98.9" y1="10" y2="13.175"/><line x1="98.9" x2="95.725" y1="13.175" y2="13.175"/><line x1="95.725" x2="95.725" y1="13.175" y2="10"/><line x1="95.725" x2="92.55" y1="10" y2="10"/><line x1="92.55" x2="92.55" y1="10" y2="13.175"/><line x1="92.55" x2="89.375" y1="13.175" y2="13.175"/><line x1="89.375" x2="89.375" y1="13.175" y2="10"/><line x1="89.375" x2="86.2" y1="10" y2="10"/><line x1="86.2" x2="86.2" y1="10" y2="13.175"/><line x1="86.2" x2="83.025" y1="13.175" y2="13.175"/><line x1="83.025" x2="83.025" y1="13.175" y2="10"/><line x1="83.025" x2="79.85" y1="10" y2="10"/><line x1="79.85" x2="79.85" y1="10" y2="13.175"/><line x1="79.85" x2="76.675" y1="13.175" y2="13.175"/><line x1="76.675" x2="76.675" y1="13.175" y2="10"/><line x1="76.675" x2="73.5" y1="10" y2="10"/><line x1="73.5" x2="73.5" y1="10" y2="13.175"/><line x1="73.5" x2="70.325" y1="13.175" y2="13.175"/><line x1="70.325" x2="70.325" y1="13.175" y2="10"/><line x1="70.325" x2="67.15" y1="10" y2="10"/><line x1="67.15" x2="67.15" y1="10" y2="13.175"/><line x1="67.15" x2="63.975" y1="13.175" y2="13.175"/><line x1="63.975" x2="63.975" y1="13.175" y2="10"/><line x1="63.975" x2="60.8" y1="10" y2="10"/><line x1="60.8" x2="60.8" y1="10" y2="13.175"/><line x1="60.8" x2="57.625" y1="13.175" y2="13.175"/><line x1="57.625" x2="57.625" y1="13.175" y2="10"/><line x1="57.625" x2="54.45" y1="10" y2="10"/><line x1="54.45" x2="54.45" y1="10" y2="13.175"/><line x1="54.45" x2="51.275" y1="13.175" y2="13.175"/><line x1="51.275" x2="51.275" y1="13.175" y2="10"/><line x1="51.275" x2="48.1" y1="10" y2="10"/><line x1="48.1" x2="48.1" y1="10" y2="13.175"/><line x1="48.1" x2="44.925" y1="13.175" y2="13.175"/><line x1="44.925" x2="44.925" y1="13.175" y2="10"/><line x1="44.925" x2="41.75" y1="10" y2="10"/><line x1="41.75" x2="41.75" y1="10" y2="13.175"/><line x1="41.75" x2="38.575" y1="13.175" y2="13.175"/><line x1="38.575" x2="38.575" y1="13.175" y2="10"/><line x1="38.575" x2="35.4" y1="10" y2="10"/><line x1="35.4" x2="35.4" y1="10" y2="13.175"/><line x1="35.4" x2="32.225" y1="13.175" y2="13.175"/><line x1="32.225" x2="32.225" y1="13.175" y2="10"/><line x1="32.225" x2="29.05" y1="10" y2="10"/><line x1="29.05" x2="29.05" y1="10" y2="13.175"/><line x1="29.05" x2="25.875" y1="13.175" y2="13.175"/><line x1="25.875" x2="25.875" y1="13.175" y2="10"/><line x1="25.875" x2="22.7" y1="10" y2="10"/><line x1="22.7" x2="22.7" y1="10" y2="13.175"/><line x1="22.7" x2="19.525" y1="13.175" y2="13.175"/><line x1="19.525" x2="19.525" y1="13.175" y2="10"/><line x1="19.525" x2="16.35" y1="10" y2="10"/><line x1="16.35" x2="16.35" y1="10" y2="13.175"/><line x1="16.35" x2="13.175" y1="13.175" y2="13.175"/><line x1="13.175" x2="13.175" y1="13.175" y2="16.35"/><line x1="13.175" x2="10" y1="16.35" y2="16.35"/><line x1="10" x2="10" y1="16.35" y2="19.525"/><line x1="10" x2="13.175" y1="19.525" y2="19.525"/><line x1="13.175" x2="13.175" y1="19.525" y2="22.7"/><line x1="13.175" x2="10" y1="22.7" y2="22.7"/><line x1="10" x2="10" y1="22.7" y2="25.875"/><line x1="10" x2="13.175" y1="25.875" y2="25.875"/><line x1="13.175" x2="13.175" y1="25.875" y2="29.05"/><line x1="13.175" x2="10" y1="29.05" y2="29.05"/><line x1="10" x2="10" y1="29.05" y2="32.225"/><line x1="10" x2="13.175" y1="32.225" y2="32.225"/><line x1="13.175" x2="13.175" y1="32.225" y2="35.4"/><line x1="13.175" x2="10" y1="35.4" y2="35.4"/><line x1="10" x2="10" y1="35.4" y2="38.575"/><line x1="10" x2="13.175" y1="38.575" y2="38.575"/><line x1="13.175" x2="13.175" y1="38.575" y2="41.75"/><line x1="13.175" x2="10" y1="41.75" y2="41.75"/><line x1="10" x2="10" y1="41.75" y2="44.925"/><line x1="10" x2="13.175" y1="44.925" y2="44.925"/><line x1="13.175" x2="13.175" y1="44.925" y2="48.1"/><line x1="13.175" x2="10" y1="48.1" y2="48.1"/><line x1="10" x2="10" y1="48.1" y2="51.275"/><line x1="10" x2="13.175" y1="51.275" y2="51.275"/><line x1="13.175" x2="13.175" y1="51.275" y2="54.45"/><line x1="13.175" x2="10" y1="54.45" y2="54.45"/><line x1="10" x2="10" y1="54.45" y2="57.625"/><line x1="10" x2="13.175" y1="57.625" y2="57.625"/><line x1="13.175" x2="13.175" y1="57.625" y2="60.8"/><line x1="13.175" x2="16.35" y1="60.8" y2="60.8"/><line x1="16.35" x2="16.35" y1="60.8" y2="57.625"/><line x1="16.35" x2="19.525" y1="57.625" y2="57.625"/><line x1="19.525" x2="19.525" y1="57.625" y2="60.8"/><line x1="19.525" x2="22.7" y1="60.8" y2="60.8"/><line x1="22.7" x2="22.7" y1="60.8" y2="83.375"/><line x1="22.7" x2="23.088" y1="83.375" y2="86.324"/><line x1="23.088" x2="24.362" y1="86.324" y2="89.398"/><line x1="24.362" x2="26.387" y1="89.398" y2="92.038"/><line x1="26.387" x2="29.027" y1="92.038" y2="94.063"/><line x1="29.027" x2="32.101" y1="94.063" y2="95.337"/><line x1="32.101" x2="35.4" y1="95.337" y2="95.771"/><line x1="35.4" x2="38.699" y1="95.771" y2="95.337"/><line x1="38.699" x2="41.773" y1="95.337" y2="94.063"/><line x1="41.773" x2="44.413" y1="94.063" y2="92.038"/><line x1="44.413" x2="46.438" y1="92.038" y2="89.398"/><line x1="46.438" x2="47.712" y1="89.398" y2="86.324"/><line x1="47.712" x2="48.146" y1="86.324" y2="83.025"/><line x1="48.146" x2="48.1" y1="83.025" y2="81.376"/><line x1="48.1" x2="48.1" y1="81.376" y2="60.8"/><line x1="48.1" x2="48.1" y1="60.8" y2="57.625"/><line x1="48.1" x2="51.275" y1="57.625" y2="57.625"/><line x1="51.275" x2="51.275" y1="57.625" y2="60.8"/><line x1="51.275" x2="54.45" y1="60.8" y2="60.8"/><line x1="54.45" x2="54.45" y1="60.8" y2="57.625"/><line x1="54.45" x2="57.625" y1="57.625" y2="57.625"/><line x1="57.625" x2="57.625" y1="57.625" y2="60.8"/><line x1="57.625" x2="60.8" y1="60.8" y2="60.8"/><line x1="60.8" x2="60.8" y1="60.8" y2="57.625"/><line x1="60.8" x2="63.975" y1="57.625" y2="57.625"/><line x1="63.975" x2="63.975" y1="57.625" y2="60.8"/><line x1="63.975" x2="67.15" y1="60.8" y2="60.8"/><line x1="67.15" x2="67.15" y1="60.8" y2="57.625"/><line x1="67.15" x2="70.325" y1="57.625" y2="57.625"/><line x1="70.325" x2="70.325" y1="57.625" y2="60.8"/><line x1="70.325" x2="73.5" y1="60.8" y2="60.8"/><line x1="73.5" x2="73.5" y1="60.8" y2="57.625"/><line x1="73.5" x2="76.675" y1="57.625" y2="57.625"/><line x1="76.675" x2="76.675" y1="57.625" y2="60.8"/><line x1="76.675" x2="79.85" y1="60.8" y2="60.8"/><line x1="79.85" x2="79.85" y1="60.8" y2="57.625"/><line x1="79.85" x2="83.025" y1="57.625" y2="57.625"/><line x1="83.025" x2="83.025" y1="57.625" y2="60.8"/><line x1="83.025" x2="86.2" y1="60.8" y2="60.8"/><line x1="86.2" x2="86.2" y1="60.8" y2="57.625"/><line x1="86.2" x2="89.375" y1="57.625" y2="57.625"/><line x1="89.375" x2="89.375" y1="57.625" y2="60.8"/><line x1="89.375" x2="92.55" y1="60.8" y2="60.8"/><line x1="92.55" x2="92.55" y1="60.8" y2="57.625"/><line x1="92.55" x2="95.725" y1="57.625" y2="57.625"/><line x1="95.725" x2="95.725" y1="57.625" y2="60.8"/><line x1="95.725" x2="98.9" y1="60.8" y2="60.8"/><line x1="98.9" x2="98.9" y1="60.8" y2="57.625"/><line x1="98.9" x2="102.075" y1="57.625" y2="57.625"/><line x1="102.075" x2="102.075" y1="57.625" y2="60.8"/><line x1="102.075" x2="105.25" y1="60.8" y2="60.8"/><line x1="105.25" x2="105.25" y1="60.8" y2="57.625"/><line x1="105.25" x2="108.425" y1="57.625" y2="57.625"/><line x1="108.425" x2="108.425" y1="57.625" y2="60.8"/><line x1="108.425" x2="111.6" y1="60.8" y2="60.8"/><line x1="111.6" x2="111.6" y1="60.8" y2="57.625"/><line x1="111.6" x2="114.775" y1="57.625" y2="57.625"/><line x1="114.775" x2="114.775" y1="57.625" y2="60.8"/><line x1="114.775" x2="117.95" y1="60.8" y2="60.8"/><line x1="117.95" x2="117.95" y1="60.8" y2="57.625"/><line x1="117.95" x2="121.125" y1="57.625" y2="57.625"/><line x1="121.125" x2="121.125" y1="57.625" y2="60.8"/><line x1="121.125" x2="124.3" y1="60.8" y2="60.8"/><line x1="124.3" x2="124.3" y1="60.8" y2="57.625"/><line x1="124.3" x2="127.475" y1="57.625" y2="57.625"/><line x1="127.475" x2="127.475" y1="57.625" y2="60.8"/><line x1="127.475" x2="130.65" y1="60.8" y2="60.8"/><line x1="130.65" x2="130.65" y1="60.8" y2="57.625"/><line x1="130.65" x2="133.825" y1="57.625" y2="57.625"/><line x1="133.825" x2="133.825" y1="57.625" y2="60.8"/><line x1="133.825" x2="137" y1="60.8" y2="60.8"/><line x1="137" x2="137" y1="60.8" y2="57.625"/><line x1="137" x2="140.175" y1="57.625" y2="57.625"/><line x1="140.175" x2="140.175" y1="57.625" y2="60.8"/><line x1="140.175" x2="143.35" y1="60.8" y2="60.8"/><line x1="143.35" x2="143.35" y1="60.8" y2="57.625"/><line x1="143.35" x2="146.525" y1="57.625" y2="57.625"/><line x1="146.525" x2="146.525" y1="57.625" y2="60.8"/><line x1="146.525" x2="149.7" y1="60.8" y2="60.8"/><line x1="149.7" x2="149.7" y1="60.8" y2="57.625"/><line x1="149.7" x2="152.875" y1="57.625" y2="57.625"/><line x1="152.875" x2="152.875" y1="57.625" y2="60.8"/><line x1="152.875" x2="156.05" y1="60.8" y2="60.8"/><line x1="156.05" x2="156.05" y1="60.8" y2="57.625"/><line x1="156.05" x2="159.225" y1="57.625" y2="57.625"/><line x1="159.225" x2="159.225" y1="57.625" y2="60.8"/><line x1="159.225" x2="162.4" y1="60.8" y2="60.8"/><line x1="162.4" x2="162.4" y1="60.8" y2="82.675"/><line x1="162.4" x2="162.4" y1="82.675" y2="83.375"/><line x1="162.4" x2="162.788" y1="83.375" y2="86.324"/><line x1="162.788" x2="164.062" y1="86.324" y2="89.398"/><line x1="164.062" x2="166.087" y1="89.398" y2="92.038"/><line x1="166.087" x2="168.727" y1="92.038" y2="94.063"/><line x1="168.727" x2="171.801" y1="94.063" y2="95.337"/><line x1="171.801" x2="175.1" y1="95.337" y2="95.771"/><line x1="175.1" x2="178.399" y1="95.771" y2="95.337"/><line x1="178.399" x2="181.473" y1="95.337" y2="94.063"/><line x1="181.473" x2="184.113" y1="94.063" y2="92.038"/><line x1="184.113" x2="186.138" y1="92.038" y2="89.398"/><line x1="186.138" x2="187.412" y1="89.398" y2="86.324"/><line x1="187.412" x2="187.846" y1="86.324" y2="83.025"/><line x1="187.846" x2="187.8" y1="83.025" y2="81.376"/><line x1="105.25" x2="106.072" y1="32.225" y2="32.333"/><line x1="106.072" x2="106.838" y1="32.333" y2="32.65"/><line x1="106.838" x2="107.495" y1="32.65" y2="33.155"/><line x1="107.495" x2="108" y1="33.155" y2="33.813"/><line x1="108" x2="108.317" y1="33.813" y2="34.578"/><line x1="108.317" x2="108.425" y1="34.578" y2="35.4"/><line x1="108.425" x2="108.317" y1="35.4" y2="36.222"/><line x1="108.317" x2="108" y1="36.222" y2="36.988"/><line x1="108" x2="107.495" y1="36.988" y2="37.645"/><line x1="107.495" x2="106.838" y1="37.645" y2="38.15"/><line x1="106.838" x2="106.072" y1="38.15" y2="38.467"/><line x1="106.072" x2="105.25" y1="38.467" y2="38.575"/><line x1="105.25" x2="104.428" y1="38.575" y2="38.467"/><line x1="104.428" x2="103.662" y1="38.467" y2="38.15"/><line x1="103.662" x2="103.005" y1="38.15" y2="37.645"/><line x1="103.005" x2="102.5" y1="37.645" y2="36.987"/><line x1="102.5" x2="102.183" y1="36.987" y2="36.222"/><line x1="102.183" x2="102.075" y1="36.222" y2="35.4"/><line x1="102.075" x2="102.183" y1="35.4" y2="34.578"/><line x1="102.183" x2="102.5" y1="34.578" y2="33.813"/><line x1="102.5" x2="103.005" y1="33.813" y2="33.155"/><line x1="103.005" x2="103.662" y1="33.155" y2="32.65"/><line x1="103.662" x2="104.428" y1="32.65" y2="32.333"/><line x1="104.428" x2="105.25" y1="32.333" y2="32.225"/><line x1="35.4" x2="36.222" y1="79.85" y2="79.958"/><line x1="36.222" x2="36.987" y1="79.958" y2="80.275"/><line x1="36.987" x2="37.645" y1="80.275" y2="80.78"/><line x1="37.645" x2="38.15" y1="80.78" y2="81.376"/><line x1="38.15" x2="38.467" y1="81.376" y2="82.203"/><line x1="38.467" x2="38.575" y1="82.203" y2="83.025"/><line x1="38.575" x2="38.467" y1="83.025" y2="83.847"/><line x1="38.467" x2="38.15" y1="83.847" y2="84.613"/><line x1="38.15" x2="37.645" y1="84.613" y2="85.27"/><line x1="37.645" x2="36.987" y1="85.27" y2="85.775"/><line x1="36.987" x2="36.222" y1="85.775" y2="86.092"/><line x1="36.222" x2="35.4" y1="86.092" y2="86.2"/><line x1="35.4" x2="34.578" y1="86.2" y2="86.092"/><line x1="34.578" x2="33.813" y1="86.092" y2="85.775"/><line x1="33.813" x2="33.155" y1="85.775" y2="85.27"/><line x1="33.155" x2="32.65" y1="85.27" y2="84.612"/><line x1="32.65" x2="32.333" y1="84.612" y2="83.847"/><line x1="32.333" x2="32.225" y1="83.847" y2="83.025"/><line x1="32.225" x2="32.333" y1="83.025" y2="82.203"/><line x1="32.333" x2="32.65" y1="82.203" y2="81.376"/><line x1="32.65" x2="33.155" y1="81.376" y2="80.78"/><line x1="33.155" x2="33.813" y1="80.78" y2="80.275"/><line x1="33.813" x2="34.578" y1="80.275" y2="79.958"/><line x1="34.578" x2="35.4" y1="79.958" y2="79.85"/><line x1="175.1" x2="175.922" y1="79.85" y2="79.958"/><line x1="175.922" x2="176.688" y1="79.958" y2="80.275"/><line x1="176.688" x2="177.345" y1="80.275" y2="80.78"/><line x1="177.345" x2="177.85" y1="80.78" y2="81.438"/><line x1="177.85" x2="178.167" y1="81.438" y2="82.203"/><line x1="178.167" x2="178.275" y1="82.203" y2="83.025"/><line x1="178.275" x2="178.167" y1="83.025" y2="83.847"/><line x1="178.167" x2="177.85" y1="83.847" y2="84.613"/><line x1="177.85" x2="177.345" y1="84.613" y2="85.27"/><line x1="177.345" x2="176.688" y1="85.27" y2="85.775"/><line x1="176.688" x2="175.922" y1="85.775" y2="86.092"/><line x1="175.922" x2="175.1" y1="86.092" y2="86.2"/><line x1="175.1" x2="174.278" y1="86.2" y2="86.092"/><line x1="174.278" x2="173.512" y1="86.092" y2="85.775"/><line x1="173.512" x2="172.855" y1="85.775" y2="85.27"/><line x1="172.855" x2="172.35" y1="85.27" y2="84.613"/><line x1="172.35" x2="172.033" y1="84.613" y2="83.847"/><line x1="172.033" x2="171.925" y1="83.847" y2="83.025"/><line x1="171.925" x2="172.033" y1="83.025" y2="82.203"/><line x1="172.033" x2="172.35" y1="82.203" y2="81.437"/><line x1="172.35" x2="172.855" y1="81.437" y2="80.78"/><line x1="172.855" x2="173.512" y1="80.78" y2="80.275"/><line x1="173.512" x2="174.278" y1="80.275" y2="79.958"/><line x1="174.278" x2="175.1" y1="79.958" y2="79.85"/></g></svg>