<svg xmlns="http://www.w3.org/2000/svg" xmlns:xlink="http://www.w3.org/1999/xlink" width="89.85mm" height="582.595" version="1.1" viewBox="0 0 89.85 154.145"><desc>Output from Flights of Ideas SVG Sketchup Plugin</desc><g id="face0" fill="none" stroke="#00F" stroke-dasharray="none" stroke-linecap="round" stroke-linejoin="round" stroke-miterlimit="4" stroke-width="1"><line x1="29.05" x2="29.05" y1="38.524" y2="76.995"/><line x1="29.05" x2="10" y1="76.995" y2="76.995"/><line x1="10" x2="10" y1="76.995" y2="89.695"/><line x1="10" x2="19.525" y1="89.695" y2="89.695"/><line x1="19.525" x2="19.525" y1="89.695" y2="92.87"/><line x1="19.525" x2="10" y1="92.87" y2="92.87"/><line x1="10" x2="10" y1="92.87" y2="105.57"/><line x1="10" x2="79.85" y1="105.57" y2="105.57"/><line x1="79.85" x2="79.85" y1="105.57" y2="10"/><line x1="79.85" x2="67.15" y1="10" y2="10"/><line x1="67.15" x2="67.15" y1="10" y2="19.525"/><line x1="67.15" x2="73.5" y1="19.525" y2="19.525"/><line x1="73.5" x2="73.5" y1="19.525" y2="38.575"/><line x1="73.5" x2="60.8" y1="38.575" y2="38.575"/><line x1="60.8" x2="60.8" y1="38.575" y2="10"/><line x1="60.8" x2="35.4" y1="10" y2="10"/><line x1="35.4" x2="35.4" y1="10" y2="19.474"/><line x1="35.4" x2="38.575" y1="19.474" y2="19.5"/><line x1="38.575" x2="41.75" y1="19.5" y2="19.474"/><line x1="41.75" x2="41.75" y1="19.474" y2="19.525"/><line x1="41.75" x2="41.75" y1="19.525" y2="38.524"/><line x1="41.75" x2="29.05" y1="38.524" y2="38.524"/></g><g id="face1" fill="none" stroke="#00F" stroke-dasharray="none" stroke-linecap="round" stroke-linejoin="round" stroke-miterlimit="4" stroke-width="1"><line x1="29.05" x2="10" y1="115.57" y2="115.57"/><line x1="10" x2="10" y1="115.57" y2="128.27"/><line x1="10" x2="19.525" y1="128.27" y2="128.27"/><line x1="19.525" x2="19.525" y1="128.27" y2="131.445"/><line x1="19.525" x2="10" y1="131.445" y2="131.445"/><line x1="10" x2="10" y1="131.445" y2="144.145"/><line x1="10" x2="29.05" y1="144.145" y2="144.145"/><line x1="29.05" x2="29.05" y1="144.145" y2="115.57"/></g></svg>