<svg xmlns="http://www.w3.org/2000/svg" xmlns:svg="http://www.w3.org/2000/svg" id="svg2" width="1260" height="855" version="1.1" viewBox="0 0 355.6 241.3"><metadata id="metadata49"/><desc id="desc4">Output from Flights of Ideas SVG Sketchup Plugin</desc><g id="face0" stroke-miterlimit="4"><line id="line7" x1="66.127" x2="21.225" y1="14.49" y2="14.49"/><line id="line9" x1="21.225" x2="14.49" y1="14.49" y2="21.225"/><line id="line11" x1="14.49" x2="12.245" y1="21.225" y2="18.98"/><line id="line13" x1="12.245" x2="10" y1="18.98" y2="21.225"/><line id="line15" x1="10" x2="30.206" y1="21.225" y2="41.431"/><line id="line17" x1="30.206" x2="32.451" y1="41.431" y2="43.676"/><line id="line19" x1="32.451" x2="34.696" y1="43.676" y2="41.431"/><line id="line21" x1="34.696" x2="32.451" y1="41.431" y2="39.186"/><line id="line23" x1="32.451" x2="39.186" y1="39.186" y2="32.451"/><line id="line25" x1="39.186" x2="48.166" y1="32.451" y2="32.451"/><line id="line27" x1="48.166" x2="52.656" y1="32.451" y2="36.941"/><line id="line29" x1="52.656" x2="50.411" y1="36.941" y2="39.186"/><line id="line31" x1="50.411" x2="52.656" y1="39.186" y2="41.431"/><line id="line33" x1="52.656" x2="54.901" y1="41.431" y2="39.186"/><line id="line35" x1="54.901" x2="72.862" y1="39.186" y2="21.225"/><line id="line37" x1="72.862" x2="75.107" y1="21.225" y2="10"/><line id="line39" x1="75.107" x2="72.862" y1="10" y2="12.245"/><line id="line41" x1="72.862" x2="70.617" y1="12.245" y2="18.98"/><line id="line43" x1="70.617" x2="66.127" y1="18.98" y2="14.49"/></g><g style="fill:none;stroke:#00f;stroke-width:1;stroke-linecap:round;stroke-linejoin:round;stroke-miterlimit:4;stroke-dasharray:none" id="g3026" stroke-miterlimit="4" transform="translate(-1.692466,151.84007)"><line id="line3028" x1="66.127" x2="21.225" y1="14.49" y2="14.49"/><line id="line3030" x1="21.225" x2="14.49" y1="14.49" y2="21.225"/><line id="line3032" x1="14.49" x2="12.245" y1="21.225" y2="18.98"/><line id="line3034" x1="12.245" x2="10" y1="18.98" y2="21.225"/><line id="line3036" x1="10" x2="30.206" y1="21.225" y2="41.431"/><line id="line3038" x1="30.206" x2="32.451" y1="41.431" y2="43.676"/><line id="line3040" x1="32.451" x2="34.696" y1="43.676" y2="41.431"/><line id="line3042" x1="34.696" x2="32.451" y1="41.431" y2="39.186"/><line id="line3044" x1="32.451" x2="39.186" y1="39.186" y2="32.451"/><line id="line3046" x1="39.186" x2="48.166" y1="32.451" y2="32.451"/><line id="line3048" x1="48.166" x2="52.656" y1="32.451" y2="36.941"/><line id="line3050" x1="52.656" x2="50.411" y1="36.941" y2="39.186"/><line id="line3052" x1="50.411" x2="52.656" y1="39.186" y2="41.431"/><line id="line3054" x1="52.656" x2="54.901" y1="41.431" y2="39.186"/><line id="line3056" x1="54.901" x2="72.862" y1="39.186" y2="21.225"/><line id="line3058" x1="72.862" x2="75.107" y1="21.225" y2="10"/><line id="line3060" x1="75.107" x2="72.862" y1="10" y2="12.245"/><line id="line3062" x1="72.862" x2="70.617" y1="12.245" y2="18.98"/><line id="line3064" x1="70.617" x2="66.127" y1="18.98" y2="14.49"/></g><g id="g3066" stroke-miterlimit="4" transform="translate(67.456861,151.84007)" style="fill:none;stroke:#00f;stroke-width:1;stroke-linecap:round;stroke-linejoin:round;stroke-miterlimit:4;stroke-dasharray:none"><line id="line3068" x1="66.127" x2="21.225" y1="14.49" y2="14.49"/><line id="line3070" x1="21.225" x2="14.49" y1="14.49" y2="21.225"/><line id="line3072" x1="14.49" x2="12.245" y1="21.225" y2="18.98"/><line id="line3074" x1="12.245" x2="10" y1="18.98" y2="21.225"/><line id="line3076" x1="10" x2="30.206" y1="21.225" y2="41.431"/><line id="line3078" x1="30.206" x2="32.451" y1="41.431" y2="43.676"/><line id="line3080" x1="32.451" x2="34.696" y1="43.676" y2="41.431"/><line id="line3082" x1="34.696" x2="32.451" y1="41.431" y2="39.186"/><line id="line3084" x1="32.451" x2="39.186" y1="39.186" y2="32.451"/><line id="line3086" x1="39.186" x2="48.166" y1="32.451" y2="32.451"/><line id="line3088" x1="48.166" x2="52.656" y1="32.451" y2="36.941"/><line id="line3090" x1="52.656" x2="50.411" y1="36.941" y2="39.186"/><line id="line3092" x1="50.411" x2="52.656" y1="39.186" y2="41.431"/><line id="line3094" x1="52.656" x2="54.901" y1="41.431" y2="39.186"/><line id="line3096" x1="54.901" x2="72.862" y1="39.186" y2="21.225"/><line id="line3098" x1="72.862" x2="75.107" y1="21.225" y2="10"/><line id="line3100" x1="75.107" x2="72.862" y1="10" y2="12.245"/><line id="line3102" x1="72.862" x2="70.617" y1="12.245" y2="18.98"/><line id="line3104" x1="70.617" x2="66.127" y1="18.98" y2="14.49"/></g><g style="fill:none;stroke:#00f;stroke-width:1;stroke-linecap:round;stroke-linejoin:round;stroke-miterlimit:4;stroke-dasharray:none" id="g3106" stroke-miterlimit="4" transform="translate(67.456861,184.72227)"><line id="line3108" x1="66.127" x2="21.225" y1="14.49" y2="14.49"/><line id="line3110" x1="21.225" x2="14.49" y1="14.49" y2="21.225"/><line id="line3112" x1="14.49" x2="12.245" y1="21.225" y2="18.98"/><line id="line3114" x1="12.245" x2="10" y1="18.98" y2="21.225"/><line id="line3116" x1="10" x2="30.206" y1="21.225" y2="41.431"/><line id="line3118" x1="30.206" x2="32.451" y1="41.431" y2="43.676"/><line id="line3120" x1="32.451" x2="34.696" y1="43.676" y2="41.431"/><line id="line3122" x1="34.696" x2="32.451" y1="41.431" y2="39.186"/><line id="line3124" x1="32.451" x2="39.186" y1="39.186" y2="32.451"/><line id="line3126" x1="39.186" x2="48.166" y1="32.451" y2="32.451"/><line id="line3128" x1="48.166" x2="52.656" y1="32.451" y2="36.941"/><line id="line3130" x1="52.656" x2="50.411" y1="36.941" y2="39.186"/><line id="line3132" x1="50.411" x2="52.656" y1="39.186" y2="41.431"/><line id="line3134" x1="52.656" x2="54.901" y1="41.431" y2="39.186"/><line id="line3136" x1="54.901" x2="72.862" y1="39.186" y2="21.225"/><line id="line3138" x1="72.862" x2="75.107" y1="21.225" y2="10"/><line id="line3140" x1="75.107" x2="72.862" y1="10" y2="12.245"/><line id="line3142" x1="72.862" x2="70.617" y1="12.245" y2="18.98"/><line id="line3144" x1="70.617" x2="66.127" y1="18.98" y2="14.49"/></g><g id="g3146" stroke-miterlimit="4" transform="translate(67.456861,117.50719)" style="fill:none;stroke:#00f;stroke-width:1;stroke-linecap:round;stroke-linejoin:round;stroke-miterlimit:4;stroke-dasharray:none"><line id="line3148" x1="66.127" x2="21.225" y1="14.49" y2="14.49"/><line id="line3150" x1="21.225" x2="14.49" y1="14.49" y2="21.225"/><line id="line3152" x1="14.49" x2="12.245" y1="21.225" y2="18.98"/><line id="line3154" x1="12.245" x2="10" y1="18.98" y2="21.225"/><line id="line3156" x1="10" x2="30.206" y1="21.225" y2="41.431"/><line id="line3158" x1="30.206" x2="32.451" y1="41.431" y2="43.676"/><line id="line3160" x1="32.451" x2="34.696" y1="43.676" y2="41.431"/><line id="line3162" x1="34.696" x2="32.451" y1="41.431" y2="39.186"/><line id="line3164" x1="32.451" x2="39.186" y1="39.186" y2="32.451"/><line id="line3166" x1="39.186" x2="48.166" y1="32.451" y2="32.451"/><line id="line3168" x1="48.166" x2="52.656" y1="32.451" y2="36.941"/><line id="line3170" x1="52.656" x2="50.411" y1="36.941" y2="39.186"/><line id="line3172" x1="50.411" x2="52.656" y1="39.186" y2="41.431"/><line id="line3174" x1="52.656" x2="54.901" y1="41.431" y2="39.186"/><line id="line3176" x1="54.901" x2="72.862" y1="39.186" y2="21.225"/><line id="line3178" x1="72.862" x2="75.107" y1="21.225" y2="10"/><line id="line3180" x1="75.107" x2="72.862" y1="10" y2="12.245"/><line id="line3182" x1="72.862" x2="70.617" y1="12.245" y2="18.98"/><line id="line3184" x1="70.617" x2="66.127" y1="18.98" y2="14.49"/></g><g style="fill:none;stroke:#00f;stroke-width:1;stroke-linecap:round;stroke-linejoin:round;stroke-miterlimit:4;stroke-dasharray:none" id="g3186" stroke-miterlimit="4" transform="translate(-0.48356148,117.50719)"><line id="line3188" x1="66.127" x2="21.225" y1="14.49" y2="14.49"/><line id="line3190" x1="21.225" x2="14.49" y1="14.49" y2="21.225"/><line id="line3192" x1="14.49" x2="12.245" y1="21.225" y2="18.98"/><line id="line3194" x1="12.245" x2="10" y1="18.98" y2="21.225"/><line id="line3196" x1="10" x2="30.206" y1="21.225" y2="41.431"/><line id="line3198" x1="30.206" x2="32.451" y1="41.431" y2="43.676"/><line id="line3200" x1="32.451" x2="34.696" y1="43.676" y2="41.431"/><line id="line3202" x1="34.696" x2="32.451" y1="41.431" y2="39.186"/><line id="line3204" x1="32.451" x2="39.186" y1="39.186" y2="32.451"/><line id="line3206" x1="39.186" x2="48.166" y1="32.451" y2="32.451"/><line id="line3208" x1="48.166" x2="52.656" y1="32.451" y2="36.941"/><line id="line3210" x1="52.656" x2="50.411" y1="36.941" y2="39.186"/><line id="line3212" x1="50.411" x2="52.656" y1="39.186" y2="41.431"/><line id="line3214" x1="52.656" x2="54.901" y1="41.431" y2="39.186"/><line id="line3216" x1="54.901" x2="72.862" y1="39.186" y2="21.225"/><line id="line3218" x1="72.862" x2="75.107" y1="21.225" y2="10"/><line id="line3220" x1="75.107" x2="72.862" y1="10" y2="12.245"/><line id="line3222" x1="72.862" x2="70.617" y1="12.245" y2="18.98"/><line id="line3224" x1="70.617" x2="66.127" y1="18.98" y2="14.49"/></g><g id="g3226" stroke-miterlimit="4" transform="translate(-0.48356148,81.481841)" style="fill:none;stroke:#00f;stroke-width:1;stroke-linecap:round;stroke-linejoin:round;stroke-miterlimit:4;stroke-dasharray:none"><line id="line3228" x1="66.127" x2="21.225" y1="14.49" y2="14.49"/><line id="line3230" x1="21.225" x2="14.49" y1="14.49" y2="21.225"/><line id="line3232" x1="14.49" x2="12.245" y1="21.225" y2="18.98"/><line id="line3234" x1="12.245" x2="10" y1="18.98" y2="21.225"/><line id="line3236" x1="10" x2="30.206" y1="21.225" y2="41.431"/><line id="line3238" x1="30.206" x2="32.451" y1="41.431" y2="43.676"/><line id="line3240" x1="32.451" x2="34.696" y1="43.676" y2="41.431"/><line id="line3242" x1="34.696" x2="32.451" y1="41.431" y2="39.186"/><line id="line3244" x1="32.451" x2="39.186" y1="39.186" y2="32.451"/><line id="line3246" x1="39.186" x2="48.166" y1="32.451" y2="32.451"/><line id="line3248" x1="48.166" x2="52.656" y1="32.451" y2="36.941"/><line id="line3250" x1="52.656" x2="50.411" y1="36.941" y2="39.186"/><line id="line3252" x1="50.411" x2="52.656" y1="39.186" y2="41.431"/><line id="line3254" x1="52.656" x2="54.901" y1="41.431" y2="39.186"/><line id="line3256" x1="54.901" x2="72.862" y1="39.186" y2="21.225"/><line id="line3258" x1="72.862" x2="75.107" y1="21.225" y2="10"/><line id="line3260" x1="75.107" x2="72.862" y1="10" y2="12.245"/><line id="line3262" x1="72.862" x2="70.617" y1="12.245" y2="18.98"/><line id="line3264" x1="70.617" x2="66.127" y1="18.98" y2="14.49"/></g><g style="fill:none;stroke:#00f;stroke-width:1;stroke-linecap:round;stroke-linejoin:round;stroke-miterlimit:4;stroke-dasharray:none" id="g3266" stroke-miterlimit="4" transform="translate(68.665765,81.481841)"><line id="line3268" x1="66.127" x2="21.225" y1="14.49" y2="14.49"/><line id="line3270" x1="21.225" x2="14.49" y1="14.49" y2="21.225"/><line id="line3272" x1="14.49" x2="12.245" y1="21.225" y2="18.98"/><line id="line3274" x1="12.245" x2="10" y1="18.98" y2="21.225"/><line id="line3276" x1="10" x2="30.206" y1="21.225" y2="41.431"/><line id="line3278" x1="30.206" x2="32.451" y1="41.431" y2="43.676"/><line id="line3280" x1="32.451" x2="34.696" y1="43.676" y2="41.431"/><line id="line3282" x1="34.696" x2="32.451" y1="41.431" y2="39.186"/><line id="line3284" x1="32.451" x2="39.186" y1="39.186" y2="32.451"/><line id="line3286" x1="39.186" x2="48.166" y1="32.451" y2="32.451"/><line id="line3288" x1="48.166" x2="52.656" y1="32.451" y2="36.941"/><line id="line3290" x1="52.656" x2="50.411" y1="36.941" y2="39.186"/><line id="line3292" x1="50.411" x2="52.656" y1="39.186" y2="41.431"/><line id="line3294" x1="52.656" x2="54.901" y1="41.431" y2="39.186"/><line id="line3296" x1="54.901" x2="72.862" y1="39.186" y2="21.225"/><line id="line3298" x1="72.862" x2="75.107" y1="21.225" y2="10"/><line id="line3300" x1="75.107" x2="72.862" y1="10" y2="12.245"/><line id="line3302" x1="72.862" x2="70.617" y1="12.245" y2="18.98"/><line id="line3304" x1="70.617" x2="66.127" y1="18.98" y2="14.49"/></g><g id="g3306" stroke-miterlimit="4" transform="translate(140.2329,80.031156)" style="fill:none;stroke:#00f;stroke-width:1;stroke-linecap:round;stroke-linejoin:round;stroke-miterlimit:4;stroke-dasharray:none"><line id="line3308" x1="66.127" x2="21.225" y1="14.49" y2="14.49"/><line id="line3310" x1="21.225" x2="14.49" y1="14.49" y2="21.225"/><line id="line3312" x1="14.49" x2="12.245" y1="21.225" y2="18.98"/><line id="line3314" x1="12.245" x2="10" y1="18.98" y2="21.225"/><line id="line3316" x1="10" x2="30.206" y1="21.225" y2="41.431"/><line id="line3318" x1="30.206" x2="32.451" y1="41.431" y2="43.676"/><line id="line3320" x1="32.451" x2="34.696" y1="43.676" y2="41.431"/><line id="line3322" x1="34.696" x2="32.451" y1="41.431" y2="39.186"/><line id="line3324" x1="32.451" x2="39.186" y1="39.186" y2="32.451"/><line id="line3326" x1="39.186" x2="48.166" y1="32.451" y2="32.451"/><line id="line3328" x1="48.166" x2="52.656" y1="32.451" y2="36.941"/><line id="line3330" x1="52.656" x2="50.411" y1="36.941" y2="39.186"/><line id="line3332" x1="50.411" x2="52.656" y1="39.186" y2="41.431"/><line id="line3334" x1="52.656" x2="54.901" y1="41.431" y2="39.186"/><line id="line3336" x1="54.901" x2="72.862" y1="39.186" y2="21.225"/><line id="line3338" x1="72.862" x2="75.107" y1="21.225" y2="10"/><line id="line3340" x1="75.107" x2="72.862" y1="10" y2="12.245"/><line id="line3342" x1="72.862" x2="70.617" y1="12.245" y2="18.98"/><line id="line3344" x1="70.617" x2="66.127" y1="18.98" y2="14.49"/></g><g style="fill:none;stroke:#00f;stroke-width:1;stroke-linecap:round;stroke-linejoin:round;stroke-miterlimit:4;stroke-dasharray:none" id="g3346" stroke-miterlimit="4" transform="translate(139.26578,113.6387)"><line id="line3348" x1="66.127" x2="21.225" y1="14.49" y2="14.49"/><line id="line3350" x1="21.225" x2="14.49" y1="14.49" y2="21.225"/><line id="line3352" x1="14.49" x2="12.245" y1="21.225" y2="18.98"/><line id="line3354" x1="12.245" x2="10" y1="18.98" y2="21.225"/><line id="line3356" x1="10" x2="30.206" y1="21.225" y2="41.431"/><line id="line3358" x1="30.206" x2="32.451" y1="41.431" y2="43.676"/><line id="line3360" x1="32.451" x2="34.696" y1="43.676" y2="41.431"/><line id="line3362" x1="34.696" x2="32.451" y1="41.431" y2="39.186"/><line id="line3364" x1="32.451" x2="39.186" y1="39.186" y2="32.451"/><line id="line3366" x1="39.186" x2="48.166" y1="32.451" y2="32.451"/><line id="line3368" x1="48.166" x2="52.656" y1="32.451" y2="36.941"/><line id="line3370" x1="52.656" x2="50.411" y1="36.941" y2="39.186"/><line id="line3372" x1="50.411" x2="52.656" y1="39.186" y2="41.431"/><line id="line3374" x1="52.656" x2="54.901" y1="41.431" y2="39.186"/><line id="line3376" x1="54.901" x2="72.862" y1="39.186" y2="21.225"/><line id="line3378" x1="72.862" x2="75.107" y1="21.225" y2="10"/><line id="line3380" x1="75.107" x2="72.862" y1="10" y2="12.245"/><line id="line3382" x1="72.862" x2="70.617" y1="12.245" y2="18.98"/><line id="line3384" x1="70.617" x2="66.127" y1="18.98" y2="14.49"/></g><g id="g3386" stroke-miterlimit="4" transform="translate(139.50756,149.66405)" style="fill:none;stroke:#00f;stroke-width:1;stroke-linecap:round;stroke-linejoin:round;stroke-miterlimit:4;stroke-dasharray:none"><line id="line3388" x1="66.127" x2="21.225" y1="14.49" y2="14.49"/><line id="line3390" x1="21.225" x2="14.49" y1="14.49" y2="21.225"/><line id="line3392" x1="14.49" x2="12.245" y1="21.225" y2="18.98"/><line id="line3394" x1="12.245" x2="10" y1="18.98" y2="21.225"/><line id="line3396" x1="10" x2="30.206" y1="21.225" y2="41.431"/><line id="line3398" x1="30.206" x2="32.451" y1="41.431" y2="43.676"/><line id="line3400" x1="32.451" x2="34.696" y1="43.676" y2="41.431"/><line id="line3402" x1="34.696" x2="32.451" y1="41.431" y2="39.186"/><line id="line3404" x1="32.451" x2="39.186" y1="39.186" y2="32.451"/><line id="line3406" x1="39.186" x2="48.166" y1="32.451" y2="32.451"/><line id="line3408" x1="48.166" x2="52.656" y1="32.451" y2="36.941"/><line id="line3410" x1="52.656" x2="50.411" y1="36.941" y2="39.186"/><line id="line3412" x1="50.411" x2="52.656" y1="39.186" y2="41.431"/><line id="line3414" x1="52.656" x2="54.901" y1="41.431" y2="39.186"/><line id="line3416" x1="54.901" x2="72.862" y1="39.186" y2="21.225"/><line id="line3418" x1="72.862" x2="75.107" y1="21.225" y2="10"/><line id="line3420" x1="75.107" x2="72.862" y1="10" y2="12.245"/><line id="line3422" x1="72.862" x2="70.617" y1="12.245" y2="18.98"/><line id="line3424" x1="70.617" x2="66.127" y1="18.98" y2="14.49"/></g><g style="fill:none;stroke:#00f;stroke-width:1;stroke-linecap:round;stroke-linejoin:round;stroke-miterlimit:4;stroke-dasharray:none" id="g3426" stroke-miterlimit="4" transform="translate(138.54044,185.20584)"><line id="line3428" x1="66.127" x2="21.225" y1="14.49" y2="14.49"/><line id="line3430" x1="21.225" x2="14.49" y1="14.49" y2="21.225"/><line id="line3432" x1="14.49" x2="12.245" y1="21.225" y2="18.98"/><line id="line3434" x1="12.245" x2="10" y1="18.98" y2="21.225"/><line id="line3436" x1="10" x2="30.206" y1="21.225" y2="41.431"/><line id="line3438" x1="30.206" x2="32.451" y1="41.431" y2="43.676"/><line id="line3440" x1="32.451" x2="34.696" y1="43.676" y2="41.431"/><line id="line3442" x1="34.696" x2="32.451" y1="41.431" y2="39.186"/><line id="line3444" x1="32.451" x2="39.186" y1="39.186" y2="32.451"/><line id="line3446" x1="39.186" x2="48.166" y1="32.451" y2="32.451"/><line id="line3448" x1="48.166" x2="52.656" y1="32.451" y2="36.941"/><line id="line3450" x1="52.656" x2="50.411" y1="36.941" y2="39.186"/><line id="line3452" x1="50.411" x2="52.656" y1="39.186" y2="41.431"/><line id="line3454" x1="52.656" x2="54.901" y1="41.431" y2="39.186"/><line id="line3456" x1="54.901" x2="72.862" y1="39.186" y2="21.225"/><line id="line3458" x1="72.862" x2="75.107" y1="21.225" y2="10"/><line id="line3460" x1="75.107" x2="72.862" y1="10" y2="12.245"/><line id="line3462" x1="72.862" x2="70.617" y1="12.245" y2="18.98"/><line id="line3464" x1="70.617" x2="66.127" y1="18.98" y2="14.49"/></g><g id="g3466" stroke-miterlimit="4" transform="translate(209.86579,184.72228)" style="fill:none;stroke:#00f;stroke-width:1;stroke-linecap:round;stroke-linejoin:round;stroke-miterlimit:4;stroke-dasharray:none"><line id="line3468" x1="66.127" x2="21.225" y1="14.49" y2="14.49"/><line id="line3470" x1="21.225" x2="14.49" y1="14.49" y2="21.225"/><line id="line3472" x1="14.49" x2="12.245" y1="21.225" y2="18.98"/><line id="line3474" x1="12.245" x2="10" y1="18.98" y2="21.225"/><line id="line3476" x1="10" x2="30.206" y1="21.225" y2="41.431"/><line id="line3478" x1="30.206" x2="32.451" y1="41.431" y2="43.676"/><line id="line3480" x1="32.451" x2="34.696" y1="43.676" y2="41.431"/><line id="line3482" x1="34.696" x2="32.451" y1="41.431" y2="39.186"/><line id="line3484" x1="32.451" x2="39.186" y1="39.186" y2="32.451"/><line id="line3486" x1="39.186" x2="48.166" y1="32.451" y2="32.451"/><line id="line3488" x1="48.166" x2="52.656" y1="32.451" y2="36.941"/><line id="line3490" x1="52.656" x2="50.411" y1="36.941" y2="39.186"/><line id="line3492" x1="50.411" x2="52.656" y1="39.186" y2="41.431"/><line id="line3494" x1="52.656" x2="54.901" y1="41.431" y2="39.186"/><line id="line3496" x1="54.901" x2="72.862" y1="39.186" y2="21.225"/><line id="line3498" x1="72.862" x2="75.107" y1="21.225" y2="10"/><line id="line3500" x1="75.107" x2="72.862" y1="10" y2="12.245"/><line id="line3502" x1="72.862" x2="70.617" y1="12.245" y2="18.98"/><line id="line3504" x1="70.617" x2="66.127" y1="18.98" y2="14.49"/></g><g style="fill:none;stroke:#00f;stroke-width:1;stroke-linecap:round;stroke-linejoin:round;stroke-miterlimit:4;stroke-dasharray:none" id="g3506" stroke-miterlimit="4" transform="translate(209.86579,152.80721)"><line id="line3508" x1="66.127" x2="21.225" y1="14.49" y2="14.49"/><line id="line3510" x1="21.225" x2="14.49" y1="14.49" y2="21.225"/><line id="line3512" x1="14.49" x2="12.245" y1="21.225" y2="18.98"/><line id="line3514" x1="12.245" x2="10" y1="18.98" y2="21.225"/><line id="line3516" x1="10" x2="30.206" y1="21.225" y2="41.431"/><line id="line3518" x1="30.206" x2="32.451" y1="41.431" y2="43.676"/><line id="line3520" x1="32.451" x2="34.696" y1="43.676" y2="41.431"/><line id="line3522" x1="34.696" x2="32.451" y1="41.431" y2="39.186"/><line id="line3524" x1="32.451" x2="39.186" y1="39.186" y2="32.451"/><line id="line3526" x1="39.186" x2="48.166" y1="32.451" y2="32.451"/><line id="line3528" x1="48.166" x2="52.656" y1="32.451" y2="36.941"/><line id="line3530" x1="52.656" x2="50.411" y1="36.941" y2="39.186"/><line id="line3532" x1="50.411" x2="52.656" y1="39.186" y2="41.431"/><line id="line3534" x1="52.656" x2="54.901" y1="41.431" y2="39.186"/><line id="line3536" x1="54.901" x2="72.862" y1="39.186" y2="21.225"/><line id="line3538" x1="72.862" x2="75.107" y1="21.225" y2="10"/><line id="line3540" x1="75.107" x2="72.862" y1="10" y2="12.245"/><line id="line3542" x1="72.862" x2="70.617" y1="12.245" y2="18.98"/><line id="line3544" x1="70.617" x2="66.127" y1="18.98" y2="14.49"/></g><g id="g3546" stroke-miterlimit="4" transform="translate(209.38223,114.12227)" style="fill:none;stroke:#00f;stroke-width:1;stroke-linecap:round;stroke-linejoin:round;stroke-miterlimit:4;stroke-dasharray:none"><line id="line3548" x1="66.127" x2="21.225" y1="14.49" y2="14.49"/><line id="line3550" x1="21.225" x2="14.49" y1="14.49" y2="21.225"/><line id="line3552" x1="14.49" x2="12.245" y1="21.225" y2="18.98"/><line id="line3554" x1="12.245" x2="10" y1="18.98" y2="21.225"/><line id="line3556" x1="10" x2="30.206" y1="21.225" y2="41.431"/><line id="line3558" x1="30.206" x2="32.451" y1="41.431" y2="43.676"/><line id="line3560" x1="32.451" x2="34.696" y1="43.676" y2="41.431"/><line id="line3562" x1="34.696" x2="32.451" y1="41.431" y2="39.186"/><line id="line3564" x1="32.451" x2="39.186" y1="39.186" y2="32.451"/><line id="line3566" x1="39.186" x2="48.166" y1="32.451" y2="32.451"/><line id="line3568" x1="48.166" x2="52.656" y1="32.451" y2="36.941"/><line id="line3570" x1="52.656" x2="50.411" y1="36.941" y2="39.186"/><line id="line3572" x1="50.411" x2="52.656" y1="39.186" y2="41.431"/><line id="line3574" x1="52.656" x2="54.901" y1="41.431" y2="39.186"/><line id="line3576" x1="54.901" x2="72.862" y1="39.186" y2="21.225"/><line id="line3578" x1="72.862" x2="75.107" y1="21.225" y2="10"/><line id="line3580" x1="75.107" x2="72.862" y1="10" y2="12.245"/><line id="line3582" x1="72.862" x2="70.617" y1="12.245" y2="18.98"/><line id="line3584" x1="70.617" x2="66.127" y1="18.98" y2="14.49"/></g><g style="fill:none;stroke:#00f;stroke-width:1;stroke-linecap:round;stroke-linejoin:round;stroke-miterlimit:4;stroke-dasharray:none" id="g3586" stroke-miterlimit="4" transform="translate(209.14045,80.998292)"><line id="line3588" x1="66.127" x2="21.225" y1="14.49" y2="14.49"/><line id="line3590" x1="21.225" x2="14.49" y1="14.49" y2="21.225"/><line id="line3592" x1="14.49" x2="12.245" y1="21.225" y2="18.98"/><line id="line3594" x1="12.245" x2="10" y1="18.98" y2="21.225"/><line id="line3596" x1="10" x2="30.206" y1="21.225" y2="41.431"/><line id="line3598" x1="30.206" x2="32.451" y1="41.431" y2="43.676"/><line id="line3600" x1="32.451" x2="34.696" y1="43.676" y2="41.431"/><line id="line3602" x1="34.696" x2="32.451" y1="41.431" y2="39.186"/><line id="line3604" x1="32.451" x2="39.186" y1="39.186" y2="32.451"/><line id="line3606" x1="39.186" x2="48.166" y1="32.451" y2="32.451"/><line id="line3608" x1="48.166" x2="52.656" y1="32.451" y2="36.941"/><line id="line3610" x1="52.656" x2="50.411" y1="36.941" y2="39.186"/><line id="line3612" x1="50.411" x2="52.656" y1="39.186" y2="41.431"/><line id="line3614" x1="52.656" x2="54.901" y1="41.431" y2="39.186"/><line id="line3616" x1="54.901" x2="72.862" y1="39.186" y2="21.225"/><line id="line3618" x1="72.862" x2="75.107" y1="21.225" y2="10"/><line id="line3620" x1="75.107" x2="72.862" y1="10" y2="12.245"/><line id="line3622" x1="72.862" x2="70.617" y1="12.245" y2="18.98"/><line id="line3624" x1="70.617" x2="66.127" y1="18.98" y2="14.49"/></g></svg>