<svg xmlns="http://www.w3.org/2000/svg" xmlns:xlink="http://www.w3.org/1999/xlink" width="279.591" height="865.465" version="1.1" viewBox="0 0 73.975 228.988"><desc>Output from Flights of Ideas SVG Sketchup Plugin</desc><g id="face0" fill="none" stroke="#00F" stroke-dasharray="none" stroke-linecap="round" stroke-linejoin="round" stroke-miterlimit="4" stroke-width="1"><line x1="60.258" x2="34.038" y1="55.6" y2="59.795"/><line x1="34.038" x2="34.038" y1="59.795" y2="60.935"/><line x1="34.038" x2="31.758" y1="60.935" y2="60.935"/><line x1="31.758" x2="31.758" y1="60.935" y2="60.16"/><line x1="31.758" x2="31.758" y1="60.16" y2="37.36"/><line x1="31.758" x2="30.618" y1="37.36" y2="37.36"/><line x1="30.618" x2="30.618" y1="37.36" y2="35.08"/><line x1="30.618" x2="31.758" y1="35.08" y2="35.08"/><line x1="31.758" x2="34.836" y1="35.08" y2="35.08"/><line x1="34.836" x2="35.976" y1="35.08" y2="35.08"/><line x1="35.976" x2="35.976" y1="35.08" y2="25.96"/><line x1="35.976" x2="40.08" y1="25.96" y2="25.96"/><line x1="40.08" x2="40.08" y1="25.96" y2="35.08"/><line x1="40.08" x2="43.158" y1="35.08" y2="35.08"/><line x1="43.158" x2="43.158" y1="35.08" y2="32.8"/><line x1="43.158" x2="43.158" y1="32.8" y2="10"/><line x1="43.158" x2="40.878" y1="10" y2="10.365"/><line x1="40.878" x2="14.658" y1="10.365" y2="14.56"/><line x1="14.658" x2="13.175" y1="14.56" y2="15.788"/><line x1="13.175" x2="13.175" y1="15.788" y2="18.963"/><line x1="13.175" x2="10" y1="18.963" y2="18.963"/><line x1="10" x2="10" y1="18.963" y2="22.138"/><line x1="10" x2="13.175" y1="22.138" y2="22.138"/><line x1="13.175" x2="13.175" y1="22.138" y2="25.313"/><line x1="13.175" x2="10" y1="25.313" y2="25.313"/><line x1="10" x2="10" y1="25.313" y2="28.488"/><line x1="10" x2="13.175" y1="28.488" y2="28.488"/><line x1="13.175" x2="13.175" y1="28.488" y2="31.663"/><line x1="13.175" x2="10" y1="31.663" y2="31.663"/><line x1="10" x2="10" y1="31.663" y2="34.838"/><line x1="10" x2="13.175" y1="34.838" y2="34.838"/><line x1="13.175" x2="13.175" y1="34.838" y2="38.013"/><line x1="13.175" x2="10" y1="38.013" y2="38.013"/><line x1="10" x2="10" y1="38.013" y2="41.188"/><line x1="10" x2="13.175" y1="41.188" y2="41.188"/><line x1="13.175" x2="13.175" y1="41.188" y2="44.363"/><line x1="13.175" x2="10" y1="44.363" y2="44.363"/><line x1="10" x2="10" y1="44.363" y2="47.538"/><line x1="10" x2="13.175" y1="47.538" y2="47.538"/><line x1="13.175" x2="13.175" y1="47.538" y2="50.713"/><line x1="13.175" x2="10" y1="50.713" y2="50.713"/><line x1="10" x2="10" y1="50.713" y2="53.888"/><line x1="10" x2="13.175" y1="53.888" y2="53.888"/><line x1="13.175" x2="13.175" y1="53.888" y2="57.063"/><line x1="13.175" x2="10" y1="57.063" y2="57.063"/><line x1="10" x2="10" y1="57.063" y2="60.238"/><line x1="10" x2="13.175" y1="60.238" y2="60.238"/><line x1="13.175" x2="13.175" y1="60.238" y2="63.413"/><line x1="13.175" x2="10" y1="63.413" y2="63.413"/><line x1="10" x2="10" y1="63.413" y2="66.588"/><line x1="10" x2="13.175" y1="66.588" y2="66.588"/><line x1="13.175" x2="13.175" y1="66.588" y2="69.763"/><line x1="13.175" x2="10" y1="69.763" y2="69.763"/><line x1="10" x2="10" y1="69.763" y2="72.938"/><line x1="10" x2="13.175" y1="72.938" y2="72.938"/><line x1="13.175" x2="13.175" y1="72.938" y2="76.113"/><line x1="13.175" x2="10" y1="76.113" y2="76.113"/><line x1="10" x2="10" y1="76.113" y2="79.288"/><line x1="10" x2="13.175" y1="79.288" y2="79.288"/><line x1="13.175" x2="13.175" y1="79.288" y2="82.463"/><line x1="13.175" x2="10" y1="82.463" y2="82.463"/><line x1="10" x2="10" y1="82.463" y2="85.638"/><line x1="10" x2="13.175" y1="85.638" y2="85.638"/><line x1="13.175" x2="16.35" y1="85.638" y2="85.638"/><line x1="16.35" x2="41.75" y1="85.638" y2="85.638"/><line x1="41.75" x2="41.75" y1="85.638" y2="88.813"/><line x1="41.75" x2="16.35" y1="88.813" y2="88.813"/><line x1="16.35" x2="16.35" y1="88.813" y2="85.638"/><line x1="16.35" x2="13.175" y1="85.638" y2="85.638"/><line x1="13.175" x2="13.175" y1="85.638" y2="88.813"/><line x1="13.175" x2="10" y1="88.813" y2="88.813"/><line x1="10" x2="10" y1="88.813" y2="91.988"/><line x1="10" x2="13.175" y1="91.988" y2="91.988"/><line x1="13.175" x2="13.175" y1="91.988" y2="95.163"/><line x1="13.175" x2="10" y1="95.163" y2="95.163"/><line x1="10" x2="10" y1="95.163" y2="98.338"/><line x1="10" x2="13.175" y1="98.338" y2="98.338"/><line x1="13.175" x2="13.175" y1="98.338" y2="101.513"/><line x1="13.175" x2="10" y1="101.513" y2="101.513"/><line x1="10" x2="10" y1="101.513" y2="104.688"/><line x1="10" x2="13.175" y1="104.688" y2="104.688"/><line x1="13.175" x2="13.175" y1="104.688" y2="107.863"/><line x1="13.175" x2="10" y1="107.863" y2="107.863"/><line x1="10" x2="10" y1="107.863" y2="111.038"/><line x1="10" x2="13.175" y1="111.038" y2="111.038"/><line x1="13.175" x2="13.175" y1="111.038" y2="114.213"/><line x1="13.175" x2="10" y1="114.213" y2="114.213"/><line x1="10" x2="10" y1="114.213" y2="117.388"/><line x1="10" x2="13.175" y1="117.388" y2="117.388"/><line x1="13.175" x2="13.175" y1="117.388" y2="120.563"/><line x1="13.175" x2="10" y1="120.563" y2="120.563"/><line x1="10" x2="10" y1="120.563" y2="123.738"/><line x1="10" x2="13.175" y1="123.738" y2="123.738"/><line x1="13.175" x2="13.175" y1="123.738" y2="126.913"/><line x1="13.175" x2="10" y1="126.913" y2="126.913"/><line x1="10" x2="10" y1="126.913" y2="130.088"/><line x1="10" x2="13.175" y1="130.088" y2="130.088"/><line x1="13.175" x2="13.175" y1="130.088" y2="133.263"/><line x1="13.175" x2="10" y1="133.263" y2="133.263"/><line x1="10" x2="10" y1="133.263" y2="136.438"/><line x1="10" x2="13.175" y1="136.438" y2="136.438"/><line x1="13.175" x2="13.175" y1="136.438" y2="136.716"/><line x1="13.175" x2="16.35" y1="136.716" y2="136.716"/><line x1="16.35" x2="41.75" y1="136.716" y2="136.716"/><line x1="41.75" x2="41.75" y1="136.716" y2="139.891"/><line x1="41.75" x2="16.35" y1="139.891" y2="139.891"/><line x1="16.35" x2="16.35" y1="139.891" y2="136.716"/><line x1="16.35" x2="13.175" y1="136.716" y2="136.716"/><line x1="13.175" x2="13.175" y1="136.716" y2="139.613"/><line x1="13.175" x2="10" y1="139.613" y2="139.613"/><line x1="10" x2="10" y1="139.613" y2="142.788"/><line x1="10" x2="13.175" y1="142.788" y2="142.788"/><line x1="13.175" x2="13.175" y1="142.788" y2="145.963"/><line x1="13.175" x2="10" y1="145.963" y2="145.963"/><line x1="10" x2="10" y1="145.963" y2="149.138"/><line x1="10" x2="13.175" y1="149.138" y2="149.138"/><line x1="13.175" x2="13.175" y1="149.138" y2="152.313"/><line x1="13.175" x2="10" y1="152.313" y2="152.313"/><line x1="10" x2="10" y1="152.313" y2="155.488"/><line x1="10" x2="13.175" y1="155.488" y2="155.488"/><line x1="13.175" x2="13.175" y1="155.488" y2="158.663"/><line x1="13.175" x2="10" y1="158.663" y2="158.663"/><line x1="10" x2="10" y1="158.663" y2="161.838"/><line x1="10" x2="13.175" y1="161.838" y2="161.838"/><line x1="13.175" x2="13.175" y1="161.838" y2="165.013"/><line x1="13.175" x2="10" y1="165.013" y2="165.013"/><line x1="10" x2="10" y1="165.013" y2="168.188"/><line x1="10" x2="13.175" y1="168.188" y2="168.188"/><line x1="13.175" x2="13.175" y1="168.188" y2="171.363"/><line x1="13.175" x2="10" y1="171.363" y2="171.363"/><line x1="10" x2="10" y1="171.363" y2="174.538"/><line x1="10" x2="13.175" y1="174.538" y2="174.538"/><line x1="13.175" x2="13.175" y1="174.538" y2="177.713"/><line x1="13.175" x2="10" y1="177.713" y2="177.713"/><line x1="10" x2="10" y1="177.713" y2="180.888"/><line x1="10" x2="13.175" y1="180.888" y2="180.888"/><line x1="13.175" x2="13.175" y1="180.888" y2="184.063"/><line x1="13.175" x2="10" y1="184.063" y2="184.063"/><line x1="10" x2="10" y1="184.063" y2="187.238"/><line x1="10" x2="13.175" y1="187.238" y2="187.238"/><line x1="13.175" x2="13.175" y1="187.238" y2="190.413"/><line x1="13.175" x2="10" y1="190.413" y2="190.413"/><line x1="10" x2="10" y1="190.413" y2="193.588"/><line x1="10" x2="13.175" y1="193.588" y2="193.588"/><line x1="13.175" x2="13.175" y1="193.588" y2="196.763"/><line x1="13.175" x2="10" y1="196.763" y2="196.763"/><line x1="10" x2="10" y1="196.763" y2="199.938"/><line x1="10" x2="13.175" y1="199.938" y2="199.938"/><line x1="13.175" x2="13.175" y1="199.938" y2="203.113"/><line x1="13.175" x2="10" y1="203.113" y2="203.113"/><line x1="10" x2="10" y1="203.113" y2="206.288"/><line x1="10" x2="13.175" y1="206.288" y2="206.288"/><line x1="13.175" x2="13.175" y1="206.288" y2="209.463"/><line x1="13.175" x2="10" y1="209.463" y2="209.463"/><line x1="10" x2="10" y1="209.463" y2="212.638"/><line x1="10" x2="13.175" y1="212.638" y2="212.638"/><line x1="13.175" x2="13.175" y1="212.638" y2="215.813"/><line x1="13.175" x2="10" y1="215.813" y2="215.813"/><line x1="10" x2="10" y1="215.813" y2="218.988"/><line x1="10" x2="16.35" y1="218.988" y2="218.988"/><line x1="16.35" x2="16.35" y1="218.988" y2="215.813"/><line x1="16.35" x2="19.525" y1="215.813" y2="215.813"/><line x1="19.525" x2="19.525" y1="215.813" y2="218.988"/><line x1="19.525" x2="22.7" y1="218.988" y2="218.988"/><line x1="22.7" x2="22.7" y1="218.988" y2="215.813"/><line x1="22.7" x2="25.875" y1="215.813" y2="215.813"/><line x1="25.875" x2="25.875" y1="215.813" y2="218.988"/><line x1="25.875" x2="29.05" y1="218.988" y2="218.988"/><line x1="29.05" x2="29.05" y1="218.988" y2="215.813"/><line x1="29.05" x2="32.225" y1="215.813" y2="215.813"/><line x1="32.225" x2="32.225" y1="215.813" y2="218.988"/><line x1="32.225" x2="35.4" y1="218.988" y2="218.988"/><line x1="35.4" x2="35.4" y1="218.988" y2="215.813"/><line x1="35.4" x2="38.575" y1="215.813" y2="215.813"/><line x1="38.575" x2="38.575" y1="215.813" y2="218.988"/><line x1="38.575" x2="41.75" y1="218.988" y2="218.988"/><line x1="41.75" x2="41.75" y1="218.988" y2="215.813"/><line x1="41.75" x2="44.925" y1="215.813" y2="215.813"/><line x1="44.925" x2="44.925" y1="215.813" y2="218.988"/><line x1="44.925" x2="48.1" y1="218.988" y2="218.988"/><line x1="48.1" x2="48.1" y1="218.988" y2="215.813"/><line x1="48.1" x2="51.275" y1="215.813" y2="215.813"/><line x1="51.275" x2="51.275" y1="215.813" y2="218.988"/><line x1="51.275" x2="54.45" y1="218.988" y2="218.988"/><line x1="54.45" x2="54.45" y1="218.988" y2="215.813"/><line x1="54.45" x2="57.625" y1="215.813" y2="215.813"/><line x1="57.625" x2="57.625" y1="215.813" y2="218.988"/><line x1="57.625" x2="63.975" y1="218.988" y2="218.988"/><line x1="63.975" x2="63.975" y1="218.988" y2="215.813"/><line x1="63.975" x2="60.8" y1="215.813" y2="215.813"/><line x1="60.8" x2="60.8" y1="215.813" y2="212.638"/><line x1="60.8" x2="63.975" y1="212.638" y2="212.638"/><line x1="63.975" x2="63.975" y1="212.638" y2="209.463"/><line x1="63.975" x2="60.8" y1="209.463" y2="209.463"/><line x1="60.8" x2="60.8" y1="209.463" y2="206.288"/><line x1="60.8" x2="63.975" y1="206.288" y2="206.288"/><line x1="63.975" x2="63.975" y1="206.288" y2="203.113"/><line x1="63.975" x2="60.8" y1="203.113" y2="203.113"/><line x1="60.8" x2="60.8" y1="203.113" y2="199.938"/><line x1="60.8" x2="63.975" y1="199.938" y2="199.938"/><line x1="63.975" x2="63.975" y1="199.938" y2="196.763"/><line x1="63.975" x2="60.8" y1="196.763" y2="196.763"/><line x1="60.8" x2="60.8" y1="196.763" y2="193.588"/><line x1="60.8" x2="63.975" y1="193.588" y2="193.588"/><line x1="63.975" x2="63.975" y1="193.588" y2="190.413"/><line x1="63.975" x2="60.8" y1="190.413" y2="190.413"/><line x1="60.8" x2="60.8" y1="190.413" y2="187.238"/><line x1="60.8" x2="63.975" y1="187.238" y2="187.238"/><line x1="63.975" x2="63.975" y1="187.238" y2="184.063"/><line x1="63.975" x2="60.8" y1="184.063" y2="184.063"/><line x1="60.8" x2="60.8" y1="184.063" y2="180.888"/><line x1="60.8" x2="63.975" y1="180.888" y2="180.888"/><line x1="63.975" x2="63.975" y1="180.888" y2="177.713"/><line x1="63.975" x2="60.8" y1="177.713" y2="177.713"/><line x1="60.8" x2="60.8" y1="177.713" y2="174.538"/><line x1="60.8" x2="63.975" y1="174.538" y2="174.538"/><line x1="63.975" x2="63.975" y1="174.538" y2="171.363"/><line x1="63.975" x2="60.8" y1="171.363" y2="171.363"/><line x1="60.8" x2="60.8" y1="171.363" y2="168.188"/><line x1="60.8" x2="63.975" y1="168.188" y2="168.188"/><line x1="63.975" x2="63.975" y1="168.188" y2="165.013"/><line x1="63.975" x2="60.8" y1="165.013" y2="165.013"/><line x1="60.8" x2="60.8" y1="165.013" y2="161.838"/><line x1="60.8" x2="63.975" y1="161.838" y2="161.838"/><line x1="63.975" x2="63.975" y1="161.838" y2="158.663"/><line x1="63.975" x2="60.8" y1="158.663" y2="158.663"/><line x1="60.8" x2="60.8" y1="158.663" y2="155.488"/><line x1="60.8" x2="63.975" y1="155.488" y2="155.488"/><line x1="63.975" x2="63.975" y1="155.488" y2="152.313"/><line x1="63.975" x2="60.8" y1="152.313" y2="152.313"/><line x1="60.8" x2="60.8" y1="152.313" y2="149.138"/><line x1="60.8" x2="63.975" y1="149.138" y2="149.138"/><line x1="63.975" x2="63.975" y1="149.138" y2="145.963"/><line x1="63.975" x2="60.8" y1="145.963" y2="145.963"/><line x1="60.8" x2="60.8" y1="145.963" y2="142.788"/><line x1="60.8" x2="63.975" y1="142.788" y2="142.788"/><line x1="63.975" x2="63.975" y1="142.788" y2="139.613"/><line x1="63.975" x2="60.8" y1="139.613" y2="139.613"/><line x1="60.8" x2="60.8" y1="139.613" y2="136.438"/><line x1="60.8" x2="63.975" y1="136.438" y2="136.438"/><line x1="63.975" x2="63.975" y1="136.438" y2="133.263"/><line x1="63.975" x2="60.8" y1="133.263" y2="133.263"/><line x1="60.8" x2="60.8" y1="133.263" y2="130.088"/><line x1="60.8" x2="63.975" y1="130.088" y2="130.088"/><line x1="63.975" x2="63.975" y1="130.088" y2="126.913"/><line x1="63.975" x2="60.8" y1="126.913" y2="126.913"/><line x1="60.8" x2="60.8" y1="126.913" y2="123.738"/><line x1="60.8" x2="63.975" y1="123.738" y2="123.738"/><line x1="63.975" x2="63.975" y1="123.738" y2="120.563"/><line x1="63.975" x2="60.8" y1="120.563" y2="120.563"/><line x1="60.8" x2="60.8" y1="120.563" y2="117.388"/><line x1="60.8" x2="63.975" y1="117.388" y2="117.388"/><line x1="63.975" x2="63.975" y1="117.388" y2="114.213"/><line x1="63.975" x2="60.8" y1="114.213" y2="114.213"/><line x1="60.8" x2="60.8" y1="114.213" y2="111.038"/><line x1="60.8" x2="63.975" y1="111.038" y2="111.038"/><line x1="63.975" x2="63.975" y1="111.038" y2="107.863"/><line x1="63.975" x2="60.8" y1="107.863" y2="107.863"/><line x1="60.8" x2="60.8" y1="107.863" y2="104.688"/><line x1="60.8" x2="63.975" y1="104.688" y2="104.688"/><line x1="63.975" x2="63.975" y1="104.688" y2="101.513"/><line x1="63.975" x2="60.8" y1="101.513" y2="101.513"/><line x1="60.8" x2="60.8" y1="101.513" y2="98.338"/><line x1="60.8" x2="63.975" y1="98.338" y2="98.338"/><line x1="63.975" x2="63.975" y1="98.338" y2="95.163"/><line x1="63.975" x2="60.8" y1="95.163" y2="95.163"/><line x1="60.8" x2="60.8" y1="95.163" y2="91.988"/><line x1="60.8" x2="63.975" y1="91.988" y2="91.988"/><line x1="63.975" x2="63.975" y1="91.988" y2="88.813"/><line x1="63.975" x2="60.8" y1="88.813" y2="88.813"/><line x1="60.8" x2="60.8" y1="88.813" y2="85.638"/><line x1="60.8" x2="63.975" y1="85.638" y2="85.638"/><line x1="63.975" x2="63.975" y1="85.638" y2="82.463"/><line x1="63.975" x2="60.8" y1="82.463" y2="82.463"/><line x1="60.8" x2="60.8" y1="82.463" y2="79.288"/><line x1="60.8" x2="63.975" y1="79.288" y2="79.288"/><line x1="63.975" x2="63.975" y1="79.288" y2="76.113"/><line x1="63.975" x2="60.8" y1="76.113" y2="76.113"/><line x1="60.8" x2="60.8" y1="76.113" y2="72.938"/><line x1="60.8" x2="63.975" y1="72.938" y2="72.938"/><line x1="63.975" x2="63.975" y1="72.938" y2="69.763"/><line x1="63.975" x2="60.8" y1="69.763" y2="69.763"/><line x1="60.8" x2="60.8" y1="69.763" y2="66.588"/><line x1="60.8" x2="63.975" y1="66.588" y2="66.588"/><line x1="63.975" x2="63.975" y1="66.588" y2="63.413"/><line x1="63.975" x2="60.8" y1="63.413" y2="63.413"/><line x1="60.8" x2="60.8" y1="63.413" y2="60.238"/><line x1="60.8" x2="63.975" y1="60.238" y2="60.238"/><line x1="63.975" x2="63.975" y1="60.238" y2="57.063"/><line x1="63.975" x2="60.8" y1="57.063" y2="57.063"/><line x1="60.8" x2="60.8" y1="57.063" y2="55.151"/><line x1="60.8" x2="60.258" y1="55.151" y2="55.6"/><line x1="23.568" x2="48.968" y1="185.843" y2="185.843"/><line x1="48.968" x2="48.968" y1="185.843" y2="206.545"/><line x1="48.968" x2="23.568" y1="206.545" y2="206.545"/><line x1="23.568" x2="23.568" y1="206.545" y2="185.843"/></g></svg>