<svg xmlns="http://www.w3.org/2000/svg" xmlns:xlink="http://www.w3.org/1999/xlink" width="279.591" height="1539.591" version="1.1" viewBox="0 0 73.975 407.35"><desc>Output from Flights of Ideas SVG Sketchup Plugin</desc><g id="face0" fill="none" stroke="#00F" stroke-dasharray="none" stroke-linecap="round" stroke-linejoin="round" stroke-miterlimit="4" stroke-width="1"><line x1="13.175" x2="13.175" y1="394.175" y2="397.35"/><line x1="13.175" x2="16.35" y1="397.35" y2="397.35"/><line x1="16.35" x2="16.35" y1="397.35" y2="394.175"/><line x1="16.35" x2="19.525" y1="394.175" y2="394.175"/><line x1="19.525" x2="19.525" y1="394.175" y2="397.35"/><line x1="19.525" x2="22.7" y1="397.35" y2="397.35"/><line x1="22.7" x2="22.7" y1="397.35" y2="394.175"/><line x1="22.7" x2="25.875" y1="394.175" y2="394.175"/><line x1="25.875" x2="25.875" y1="394.175" y2="397.35"/><line x1="25.875" x2="29.05" y1="397.35" y2="397.35"/><line x1="29.05" x2="29.05" y1="397.35" y2="394.175"/><line x1="29.05" x2="32.225" y1="394.175" y2="394.175"/><line x1="32.225" x2="32.225" y1="394.175" y2="397.35"/><line x1="32.225" x2="35.4" y1="397.35" y2="397.35"/><line x1="35.4" x2="35.4" y1="397.35" y2="394.175"/><line x1="35.4" x2="38.575" y1="394.175" y2="394.175"/><line x1="38.575" x2="38.575" y1="394.175" y2="397.35"/><line x1="38.575" x2="41.75" y1="397.35" y2="397.35"/><line x1="41.75" x2="41.75" y1="397.35" y2="394.175"/><line x1="41.75" x2="44.925" y1="394.175" y2="394.175"/><line x1="44.925" x2="44.925" y1="394.175" y2="397.35"/><line x1="44.925" x2="48.1" y1="397.35" y2="397.35"/><line x1="48.1" x2="48.1" y1="397.35" y2="394.175"/><line x1="48.1" x2="51.275" y1="394.175" y2="394.175"/><line x1="51.275" x2="51.275" y1="394.175" y2="397.35"/><line x1="51.275" x2="54.45" y1="397.35" y2="397.35"/><line x1="54.45" x2="54.45" y1="397.35" y2="394.175"/><line x1="54.45" x2="57.625" y1="394.175" y2="394.175"/><line x1="57.625" x2="57.625" y1="394.175" y2="397.35"/><line x1="57.625" x2="60.8" y1="397.35" y2="397.35"/><line x1="60.8" x2="60.8" y1="397.35" y2="394.175"/><line x1="60.8" x2="63.975" y1="394.175" y2="394.175"/><line x1="63.975" x2="63.975" y1="394.175" y2="391"/><line x1="63.975" x2="60.8" y1="391" y2="391"/><line x1="60.8" x2="60.8" y1="391" y2="387.825"/><line x1="60.8" x2="63.975" y1="387.825" y2="387.825"/><line x1="63.975" x2="63.975" y1="387.825" y2="384.65"/><line x1="63.975" x2="60.8" y1="384.65" y2="384.65"/><line x1="60.8" x2="60.8" y1="384.65" y2="381.475"/><line x1="60.8" x2="63.975" y1="381.475" y2="381.475"/><line x1="63.975" x2="63.975" y1="381.475" y2="378.3"/><line x1="63.975" x2="60.8" y1="378.3" y2="378.3"/><line x1="60.8" x2="60.8" y1="378.3" y2="375.125"/><line x1="60.8" x2="63.975" y1="375.125" y2="375.125"/><line x1="63.975" x2="63.975" y1="375.125" y2="371.95"/><line x1="63.975" x2="60.8" y1="371.95" y2="371.95"/><line x1="60.8" x2="60.8" y1="371.95" y2="368.775"/><line x1="60.8" x2="63.975" y1="368.775" y2="368.775"/><line x1="63.975" x2="63.975" y1="368.775" y2="365.6"/><line x1="63.975" x2="60.8" y1="365.6" y2="365.6"/><line x1="60.8" x2="60.8" y1="365.6" y2="362.425"/><line x1="60.8" x2="63.975" y1="362.425" y2="362.425"/><line x1="63.975" x2="63.975" y1="362.425" y2="359.25"/><line x1="63.975" x2="60.8" y1="359.25" y2="359.25"/><line x1="60.8" x2="60.8" y1="359.25" y2="356.075"/><line x1="60.8" x2="63.975" y1="356.075" y2="356.075"/><line x1="63.975" x2="63.975" y1="356.075" y2="352.9"/><line x1="63.975" x2="60.8" y1="352.9" y2="352.9"/><line x1="60.8" x2="60.8" y1="352.9" y2="349.725"/><line x1="60.8" x2="63.975" y1="349.725" y2="349.725"/><line x1="63.975" x2="63.975" y1="349.725" y2="346.55"/><line x1="63.975" x2="60.8" y1="346.55" y2="346.55"/><line x1="60.8" x2="60.8" y1="346.55" y2="343.375"/><line x1="60.8" x2="63.975" y1="343.375" y2="343.375"/><line x1="63.975" x2="63.975" y1="343.375" y2="340.2"/><line x1="63.975" x2="60.8" y1="340.2" y2="340.2"/><line x1="60.8" x2="60.8" y1="340.2" y2="337.025"/><line x1="60.8" x2="63.975" y1="337.025" y2="337.025"/><line x1="63.975" x2="63.975" y1="337.025" y2="333.85"/><line x1="63.975" x2="60.8" y1="333.85" y2="333.85"/><line x1="60.8" x2="60.8" y1="333.85" y2="330.675"/><line x1="60.8" x2="63.975" y1="330.675" y2="330.675"/><line x1="63.975" x2="63.975" y1="330.675" y2="327.5"/><line x1="63.975" x2="60.8" y1="327.5" y2="327.5"/><line x1="60.8" x2="60.8" y1="327.5" y2="324.325"/><line x1="60.8" x2="63.975" y1="324.325" y2="324.325"/><line x1="63.975" x2="63.975" y1="324.325" y2="321.15"/><line x1="63.975" x2="60.8" y1="321.15" y2="321.15"/><line x1="60.8" x2="60.8" y1="321.15" y2="317.975"/><line x1="60.8" x2="63.975" y1="317.975" y2="317.975"/><line x1="63.975" x2="63.975" y1="317.975" y2="314.8"/><line x1="63.975" x2="60.8" y1="314.8" y2="314.8"/><line x1="60.8" x2="60.8" y1="314.8" y2="311.625"/><line x1="60.8" x2="63.975" y1="311.625" y2="311.625"/><line x1="63.975" x2="63.975" y1="311.625" y2="308.45"/><line x1="63.975" x2="60.8" y1="308.45" y2="308.45"/><line x1="60.8" x2="60.8" y1="308.45" y2="305.275"/><line x1="60.8" x2="63.975" y1="305.275" y2="305.275"/><line x1="63.975" x2="63.975" y1="305.275" y2="302.1"/><line x1="63.975" x2="60.8" y1="302.1" y2="302.1"/><line x1="60.8" x2="60.8" y1="302.1" y2="298.925"/><line x1="60.8" x2="63.975" y1="298.925" y2="298.925"/><line x1="63.975" x2="63.975" y1="298.925" y2="295.75"/><line x1="63.975" x2="60.8" y1="295.75" y2="295.75"/><line x1="60.8" x2="60.8" y1="295.75" y2="292.575"/><line x1="60.8" x2="63.975" y1="292.575" y2="292.575"/><line x1="63.975" x2="63.975" y1="292.575" y2="289.4"/><line x1="63.975" x2="60.8" y1="289.4" y2="289.4"/><line x1="60.8" x2="60.8" y1="289.4" y2="286.225"/><line x1="60.8" x2="63.975" y1="286.225" y2="286.225"/><line x1="63.975" x2="63.975" y1="286.225" y2="283.05"/><line x1="63.975" x2="60.8" y1="283.05" y2="283.05"/><line x1="60.8" x2="60.8" y1="283.05" y2="279.875"/><line x1="60.8" x2="63.975" y1="279.875" y2="279.875"/><line x1="63.975" x2="63.975" y1="279.875" y2="276.7"/><line x1="63.975" x2="60.8" y1="276.7" y2="276.7"/><line x1="60.8" x2="60.8" y1="276.7" y2="273.525"/><line x1="60.8" x2="63.975" y1="273.525" y2="273.525"/><line x1="63.975" x2="63.975" y1="273.525" y2="270.35"/><line x1="63.975" x2="60.8" y1="270.35" y2="270.35"/><line x1="60.8" x2="60.8" y1="270.35" y2="267.175"/><line x1="60.8" x2="63.975" y1="267.175" y2="267.175"/><line x1="63.975" x2="63.975" y1="267.175" y2="264"/><line x1="63.975" x2="60.8" y1="264" y2="264"/><line x1="60.8" x2="60.8" y1="264" y2="260.825"/><line x1="60.8" x2="63.975" y1="260.825" y2="260.825"/><line x1="63.975" x2="63.975" y1="260.825" y2="257.65"/><line x1="63.975" x2="60.8" y1="257.65" y2="257.65"/><line x1="60.8" x2="60.8" y1="257.65" y2="254.475"/><line x1="60.8" x2="63.975" y1="254.475" y2="254.475"/><line x1="63.975" x2="63.975" y1="254.475" y2="251.3"/><line x1="63.975" x2="60.8" y1="251.3" y2="251.3"/><line x1="60.8" x2="60.8" y1="251.3" y2="248.125"/><line x1="60.8" x2="63.975" y1="248.125" y2="248.125"/><line x1="63.975" x2="63.975" y1="248.125" y2="244.95"/><line x1="63.975" x2="60.8" y1="244.95" y2="244.95"/><line x1="60.8" x2="60.8" y1="244.95" y2="241.775"/><line x1="60.8" x2="63.975" y1="241.775" y2="241.775"/><line x1="63.975" x2="63.975" y1="241.775" y2="238.6"/><line x1="63.975" x2="60.8" y1="238.6" y2="238.6"/><line x1="60.8" x2="60.8" y1="238.6" y2="235.425"/><line x1="60.8" x2="63.975" y1="235.425" y2="235.425"/><line x1="63.975" x2="63.975" y1="235.425" y2="232.25"/><line x1="63.975" x2="60.8" y1="232.25" y2="232.25"/><line x1="60.8" x2="60.8" y1="232.25" y2="229.075"/><line x1="60.8" x2="63.975" y1="229.075" y2="229.075"/><line x1="63.975" x2="63.975" y1="229.075" y2="225.9"/><line x1="63.975" x2="60.8" y1="225.9" y2="225.9"/><line x1="60.8" x2="60.8" y1="225.9" y2="222.725"/><line x1="60.8" x2="63.975" y1="222.725" y2="222.725"/><line x1="63.975" x2="63.975" y1="222.725" y2="219.55"/><line x1="63.975" x2="60.8" y1="219.55" y2="219.55"/><line x1="60.8" x2="60.8" y1="219.55" y2="216.375"/><line x1="60.8" x2="63.975" y1="216.375" y2="216.375"/><line x1="63.975" x2="63.975" y1="216.375" y2="213.2"/><line x1="63.975" x2="60.8" y1="213.2" y2="213.2"/><line x1="60.8" x2="60.8" y1="213.2" y2="210.025"/><line x1="60.8" x2="63.975" y1="210.025" y2="210.025"/><line x1="63.975" x2="63.975" y1="210.025" y2="206.85"/><line x1="63.975" x2="60.8" y1="206.85" y2="206.85"/><line x1="60.8" x2="60.8" y1="206.85" y2="203.675"/><line x1="60.8" x2="63.975" y1="203.675" y2="203.675"/><line x1="63.975" x2="63.975" y1="203.675" y2="200.5"/><line x1="63.975" x2="60.8" y1="200.5" y2="200.5"/><line x1="60.8" x2="60.8" y1="200.5" y2="197.325"/><line x1="60.8" x2="63.975" y1="197.325" y2="197.325"/><line x1="63.975" x2="63.975" y1="197.325" y2="194.15"/><line x1="63.975" x2="60.8" y1="194.15" y2="194.15"/><line x1="60.8" x2="60.8" y1="194.15" y2="190.975"/><line x1="60.8" x2="63.975" y1="190.975" y2="190.975"/><line x1="63.975" x2="63.975" y1="190.975" y2="187.8"/><line x1="63.975" x2="60.8" y1="187.8" y2="187.8"/><line x1="60.8" x2="60.8" y1="187.8" y2="184.625"/><line x1="60.8" x2="63.975" y1="184.625" y2="184.625"/><line x1="63.975" x2="63.975" y1="184.625" y2="181.45"/><line x1="63.975" x2="60.8" y1="181.45" y2="181.45"/><line x1="60.8" x2="60.8" y1="181.45" y2="178.275"/><line x1="60.8" x2="63.975" y1="178.275" y2="178.275"/><line x1="63.975" x2="63.975" y1="178.275" y2="175.1"/><line x1="63.975" x2="60.8" y1="175.1" y2="175.1"/><line x1="60.8" x2="60.8" y1="175.1" y2="171.925"/><line x1="60.8" x2="63.975" y1="171.925" y2="171.925"/><line x1="63.975" x2="63.975" y1="171.925" y2="168.75"/><line x1="63.975" x2="60.8" y1="168.75" y2="168.75"/><line x1="60.8" x2="60.8" y1="168.75" y2="165.575"/><line x1="60.8" x2="63.975" y1="165.575" y2="165.575"/><line x1="63.975" x2="63.975" y1="165.575" y2="162.4"/><line x1="63.975" x2="60.8" y1="162.4" y2="162.4"/><line x1="60.8" x2="60.8" y1="162.4" y2="159.225"/><line x1="60.8" x2="63.975" y1="159.225" y2="159.225"/><line x1="63.975" x2="63.975" y1="159.225" y2="156.05"/><line x1="63.975" x2="60.8" y1="156.05" y2="156.05"/><line x1="60.8" x2="60.8" y1="156.05" y2="152.875"/><line x1="60.8" x2="63.975" y1="152.875" y2="152.875"/><line x1="63.975" x2="63.975" y1="152.875" y2="149.7"/><line x1="63.975" x2="60.8" y1="149.7" y2="149.7"/><line x1="60.8" x2="60.8" y1="149.7" y2="146.525"/><line x1="60.8" x2="63.975" y1="146.525" y2="146.525"/><line x1="63.975" x2="63.975" y1="146.525" y2="143.35"/><line x1="63.975" x2="60.8" y1="143.35" y2="143.35"/><line x1="60.8" x2="60.8" y1="143.35" y2="140.175"/><line x1="60.8" x2="63.975" y1="140.175" y2="140.175"/><line x1="63.975" x2="63.975" y1="140.175" y2="137"/><line x1="63.975" x2="60.8" y1="137" y2="137"/><line x1="60.8" x2="60.8" y1="137" y2="133.825"/><line x1="60.8" x2="63.975" y1="133.825" y2="133.825"/><line x1="63.975" x2="63.975" y1="133.825" y2="130.65"/><line x1="63.975" x2="60.8" y1="130.65" y2="130.65"/><line x1="60.8" x2="60.8" y1="130.65" y2="127.475"/><line x1="60.8" x2="63.975" y1="127.475" y2="127.475"/><line x1="63.975" x2="63.975" y1="127.475" y2="124.3"/><line x1="63.975" x2="60.8" y1="124.3" y2="124.3"/><line x1="60.8" x2="60.8" y1="124.3" y2="121.125"/><line x1="60.8" x2="63.975" y1="121.125" y2="121.125"/><line x1="63.975" x2="63.975" y1="121.125" y2="117.95"/><line x1="63.975" x2="60.8" y1="117.95" y2="117.95"/><line x1="60.8" x2="60.8" y1="117.95" y2="114.775"/><line x1="60.8" x2="63.975" y1="114.775" y2="114.775"/><line x1="63.975" x2="63.975" y1="114.775" y2="111.6"/><line x1="63.975" x2="60.8" y1="111.6" y2="111.6"/><line x1="60.8" x2="60.8" y1="111.6" y2="108.425"/><line x1="60.8" x2="63.975" y1="108.425" y2="108.425"/><line x1="63.975" x2="63.975" y1="108.425" y2="105.25"/><line x1="63.975" x2="60.8" y1="105.25" y2="105.25"/><line x1="60.8" x2="60.8" y1="105.25" y2="102.075"/><line x1="60.8" x2="63.975" y1="102.075" y2="102.075"/><line x1="63.975" x2="63.975" y1="102.075" y2="98.9"/><line x1="63.975" x2="60.8" y1="98.9" y2="98.9"/><line x1="60.8" x2="60.8" y1="98.9" y2="95.725"/><line x1="60.8" x2="63.975" y1="95.725" y2="95.725"/><line x1="63.975" x2="63.975" y1="95.725" y2="92.55"/><line x1="63.975" x2="60.8" y1="92.55" y2="92.55"/><line x1="60.8" x2="60.8" y1="92.55" y2="89.375"/><line x1="60.8" x2="63.975" y1="89.375" y2="89.375"/><line x1="63.975" x2="63.975" y1="89.375" y2="86.2"/><line x1="63.975" x2="60.8" y1="86.2" y2="86.2"/><line x1="60.8" x2="60.8" y1="86.2" y2="83.025"/><line x1="60.8" x2="63.975" y1="83.025" y2="83.025"/><line x1="63.975" x2="63.975" y1="83.025" y2="79.85"/><line x1="63.975" x2="60.8" y1="79.85" y2="79.85"/><line x1="60.8" x2="60.8" y1="79.85" y2="76.675"/><line x1="60.8" x2="63.975" y1="76.675" y2="76.675"/><line x1="63.975" x2="63.975" y1="76.675" y2="73.5"/><line x1="63.975" x2="60.8" y1="73.5" y2="73.5"/><line x1="60.8" x2="60.8" y1="73.5" y2="70.325"/><line x1="60.8" x2="63.975" y1="70.325" y2="70.325"/><line x1="63.975" x2="63.975" y1="70.325" y2="67.15"/><line x1="63.975" x2="60.8" y1="67.15" y2="67.15"/><line x1="60.8" x2="60.8" y1="67.15" y2="63.975"/><line x1="60.8" x2="63.975" y1="63.975" y2="63.975"/><line x1="63.975" x2="63.975" y1="63.975" y2="60.8"/><line x1="63.975" x2="60.8" y1="60.8" y2="60.8"/><line x1="60.8" x2="60.8" y1="60.8" y2="57.625"/><line x1="60.8" x2="63.975" y1="57.625" y2="57.625"/><line x1="63.975" x2="63.975" y1="57.625" y2="54.45"/><line x1="63.975" x2="60.8" y1="54.45" y2="54.45"/><line x1="60.8" x2="60.8" y1="54.45" y2="51.275"/><line x1="60.8" x2="63.975" y1="51.275" y2="51.275"/><line x1="63.975" x2="63.975" y1="51.275" y2="48.1"/><line x1="63.975" x2="60.8" y1="48.1" y2="48.1"/><line x1="60.8" x2="60.8" y1="48.1" y2="44.925"/><line x1="60.8" x2="63.975" y1="44.925" y2="44.925"/><line x1="63.975" x2="63.975" y1="44.925" y2="41.75"/><line x1="63.975" x2="60.8" y1="41.75" y2="41.75"/><line x1="60.8" x2="60.8" y1="41.75" y2="38.575"/><line x1="60.8" x2="63.975" y1="38.575" y2="38.575"/><line x1="63.975" x2="63.975" y1="38.575" y2="35.4"/><line x1="63.975" x2="60.8" y1="35.4" y2="35.4"/><line x1="60.8" x2="60.8" y1="35.4" y2="32.225"/><line x1="60.8" x2="63.975" y1="32.225" y2="32.225"/><line x1="63.975" x2="63.975" y1="32.225" y2="29.05"/><line x1="63.975" x2="60.8" y1="29.05" y2="29.05"/><line x1="60.8" x2="60.8" y1="29.05" y2="25.875"/><line x1="60.8" x2="63.975" y1="25.875" y2="25.875"/><line x1="63.975" x2="63.975" y1="25.875" y2="22.7"/><line x1="63.975" x2="60.8" y1="22.7" y2="22.7"/><line x1="60.8" x2="60.8" y1="22.7" y2="19.525"/><line x1="60.8" x2="63.975" y1="19.525" y2="19.525"/><line x1="63.975" x2="63.975" y1="19.525" y2="16.35"/><line x1="63.975" x2="60.8" y1="16.35" y2="16.35"/><line x1="60.8" x2="60.8" y1="16.35" y2="13.175"/><line x1="60.8" x2="63.975" y1="13.175" y2="13.175"/><line x1="63.975" x2="63.975" y1="13.175" y2="10"/><line x1="63.975" x2="57.625" y1="10" y2="10"/><line x1="57.625" x2="57.625" y1="10" y2="13.175"/><line x1="57.625" x2="54.45" y1="13.175" y2="13.175"/><line x1="54.45" x2="54.45" y1="13.175" y2="10"/><line x1="54.45" x2="51.275" y1="10" y2="10"/><line x1="51.275" x2="51.275" y1="10" y2="13.175"/><line x1="51.275" x2="48.1" y1="13.175" y2="13.175"/><line x1="48.1" x2="48.1" y1="13.175" y2="10"/><line x1="48.1" x2="44.925" y1="10" y2="10"/><line x1="44.925" x2="44.925" y1="10" y2="13.175"/><line x1="44.925" x2="41.75" y1="13.175" y2="13.175"/><line x1="41.75" x2="41.75" y1="13.175" y2="10"/><line x1="41.75" x2="38.575" y1="10" y2="10"/><line x1="38.575" x2="38.575" y1="10" y2="13.175"/><line x1="38.575" x2="35.4" y1="13.175" y2="13.175"/><line x1="35.4" x2="35.4" y1="13.175" y2="10"/><line x1="35.4" x2="32.225" y1="10" y2="10"/><line x1="32.225" x2="32.225" y1="10" y2="13.175"/><line x1="32.225" x2="29.05" y1="13.175" y2="13.175"/><line x1="29.05" x2="29.05" y1="13.175" y2="10"/><line x1="29.05" x2="25.875" y1="10" y2="10"/><line x1="25.875" x2="25.875" y1="10" y2="13.175"/><line x1="25.875" x2="22.7" y1="13.175" y2="13.175"/><line x1="22.7" x2="22.7" y1="13.175" y2="10"/><line x1="22.7" x2="19.525" y1="10" y2="10"/><line x1="19.525" x2="19.525" y1="10" y2="13.175"/><line x1="19.525" x2="16.35" y1="13.175" y2="13.175"/><line x1="16.35" x2="16.35" y1="13.175" y2="10"/><line x1="16.35" x2="10" y1="10" y2="10"/><line x1="10" x2="10" y1="10" y2="13.175"/><line x1="10" x2="13.175" y1="13.175" y2="13.175"/><line x1="13.175" x2="13.175" y1="13.175" y2="16.35"/><line x1="13.175" x2="10" y1="16.35" y2="16.35"/><line x1="10" x2="10" y1="16.35" y2="19.525"/><line x1="10" x2="13.175" y1="19.525" y2="19.525"/><line x1="13.175" x2="13.175" y1="19.525" y2="22.7"/><line x1="13.175" x2="10" y1="22.7" y2="22.7"/><line x1="10" x2="10" y1="22.7" y2="25.875"/><line x1="10" x2="13.175" y1="25.875" y2="25.875"/><line x1="13.175" x2="13.175" y1="25.875" y2="29.05"/><line x1="13.175" x2="10" y1="29.05" y2="29.05"/><line x1="10" x2="10" y1="29.05" y2="32.225"/><line x1="10" x2="13.175" y1="32.225" y2="32.225"/><line x1="13.175" x2="13.175" y1="32.225" y2="35.4"/><line x1="13.175" x2="10" y1="35.4" y2="35.4"/><line x1="10" x2="10" y1="35.4" y2="38.575"/><line x1="10" x2="13.175" y1="38.575" y2="38.575"/><line x1="13.175" x2="13.175" y1="38.575" y2="41.75"/><line x1="13.175" x2="10" y1="41.75" y2="41.75"/><line x1="10" x2="10" y1="41.75" y2="44.925"/><line x1="10" x2="13.175" y1="44.925" y2="44.925"/><line x1="13.175" x2="13.175" y1="44.925" y2="48.1"/><line x1="13.175" x2="10" y1="48.1" y2="48.1"/><line x1="10" x2="10" y1="48.1" y2="51.275"/><line x1="10" x2="13.175" y1="51.275" y2="51.275"/><line x1="13.175" x2="13.175" y1="51.275" y2="54.45"/><line x1="13.175" x2="10" y1="54.45" y2="54.45"/><line x1="10" x2="10" y1="54.45" y2="57.625"/><line x1="10" x2="13.175" y1="57.625" y2="57.625"/><line x1="13.175" x2="13.175" y1="57.625" y2="60.8"/><line x1="13.175" x2="10" y1="60.8" y2="60.8"/><line x1="10" x2="10" y1="60.8" y2="63.975"/><line x1="10" x2="13.175" y1="63.975" y2="63.975"/><line x1="13.175" x2="13.175" y1="63.975" y2="67.15"/><line x1="13.175" x2="10" y1="67.15" y2="67.15"/><line x1="10" x2="10" y1="67.15" y2="70.325"/><line x1="10" x2="13.175" y1="70.325" y2="70.325"/><line x1="13.175" x2="13.175" y1="70.325" y2="73.5"/><line x1="13.175" x2="10" y1="73.5" y2="73.5"/><line x1="10" x2="10" y1="73.5" y2="76.675"/><line x1="10" x2="13.175" y1="76.675" y2="76.675"/><line x1="13.175" x2="13.175" y1="76.675" y2="79.85"/><line x1="13.175" x2="10" y1="79.85" y2="79.85"/><line x1="10" x2="10" y1="79.85" y2="83.025"/><line x1="10" x2="13.175" y1="83.025" y2="83.025"/><line x1="13.175" x2="13.175" y1="83.025" y2="86.2"/><line x1="13.175" x2="10" y1="86.2" y2="86.2"/><line x1="10" x2="10" y1="86.2" y2="89.375"/><line x1="10" x2="13.175" y1="89.375" y2="89.375"/><line x1="13.175" x2="13.175" y1="89.375" y2="92.55"/><line x1="13.175" x2="10" y1="92.55" y2="92.55"/><line x1="10" x2="10" y1="92.55" y2="95.725"/><line x1="10" x2="13.175" y1="95.725" y2="95.725"/><line x1="13.175" x2="13.175" y1="95.725" y2="98.9"/><line x1="13.175" x2="10" y1="98.9" y2="98.9"/><line x1="10" x2="10" y1="98.9" y2="102.075"/><line x1="10" x2="13.175" y1="102.075" y2="102.075"/><line x1="13.175" x2="13.175" y1="102.075" y2="105.25"/><line x1="13.175" x2="10" y1="105.25" y2="105.25"/><line x1="10" x2="10" y1="105.25" y2="108.425"/><line x1="10" x2="13.175" y1="108.425" y2="108.425"/><line x1="13.175" x2="13.175" y1="108.425" y2="111.6"/><line x1="13.175" x2="10" y1="111.6" y2="111.6"/><line x1="10" x2="10" y1="111.6" y2="114.775"/><line x1="10" x2="13.175" y1="114.775" y2="114.775"/><line x1="13.175" x2="13.175" y1="114.775" y2="117.95"/><line x1="13.175" x2="10" y1="117.95" y2="117.95"/><line x1="10" x2="10" y1="117.95" y2="121.125"/><line x1="10" x2="13.175" y1="121.125" y2="121.125"/><line x1="13.175" x2="13.175" y1="121.125" y2="124.3"/><line x1="13.175" x2="10" y1="124.3" y2="124.3"/><line x1="10" x2="10" y1="124.3" y2="127.475"/><line x1="10" x2="13.175" y1="127.475" y2="127.475"/><line x1="13.175" x2="13.175" y1="127.475" y2="130.65"/><line x1="13.175" x2="10" y1="130.65" y2="130.65"/><line x1="10" x2="10" y1="130.65" y2="133.825"/><line x1="10" x2="13.175" y1="133.825" y2="133.825"/><line x1="13.175" x2="13.175" y1="133.825" y2="137"/><line x1="13.175" x2="10" y1="137" y2="137"/><line x1="10" x2="10" y1="137" y2="140.175"/><line x1="10" x2="13.175" y1="140.175" y2="140.175"/><line x1="13.175" x2="13.175" y1="140.175" y2="143.35"/><line x1="13.175" x2="10" y1="143.35" y2="143.35"/><line x1="10" x2="10" y1="143.35" y2="146.525"/><line x1="10" x2="13.175" y1="146.525" y2="146.525"/><line x1="13.175" x2="13.175" y1="146.525" y2="149.7"/><line x1="13.175" x2="10" y1="149.7" y2="149.7"/><line x1="10" x2="10" y1="149.7" y2="152.875"/><line x1="10" x2="13.175" y1="152.875" y2="152.875"/><line x1="13.175" x2="13.175" y1="152.875" y2="156.05"/><line x1="13.175" x2="10" y1="156.05" y2="156.05"/><line x1="10" x2="10" y1="156.05" y2="159.225"/><line x1="10" x2="13.175" y1="159.225" y2="159.225"/><line x1="13.175" x2="13.175" y1="159.225" y2="162.4"/><line x1="13.175" x2="10" y1="162.4" y2="162.4"/><line x1="10" x2="10" y1="162.4" y2="165.575"/><line x1="10" x2="13.175" y1="165.575" y2="165.575"/><line x1="13.175" x2="13.175" y1="165.575" y2="168.75"/><line x1="13.175" x2="10" y1="168.75" y2="168.75"/><line x1="10" x2="10" y1="168.75" y2="171.925"/><line x1="10" x2="13.175" y1="171.925" y2="171.925"/><line x1="13.175" x2="13.175" y1="171.925" y2="175.1"/><line x1="13.175" x2="10" y1="175.1" y2="175.1"/><line x1="10" x2="10" y1="175.1" y2="178.275"/><line x1="10" x2="13.175" y1="178.275" y2="178.275"/><line x1="13.175" x2="13.175" y1="178.275" y2="181.45"/><line x1="13.175" x2="10" y1="181.45" y2="181.45"/><line x1="10" x2="10" y1="181.45" y2="184.625"/><line x1="10" x2="13.175" y1="184.625" y2="184.625"/><line x1="13.175" x2="13.175" y1="184.625" y2="187.8"/><line x1="13.175" x2="10" y1="187.8" y2="187.8"/><line x1="10" x2="10" y1="187.8" y2="190.975"/><line x1="10" x2="13.175" y1="190.975" y2="190.975"/><line x1="13.175" x2="13.175" y1="190.975" y2="194.15"/><line x1="13.175" x2="10" y1="194.15" y2="194.15"/><line x1="10" x2="10" y1="194.15" y2="197.325"/><line x1="10" x2="13.175" y1="197.325" y2="197.325"/><line x1="13.175" x2="13.175" y1="197.325" y2="200.5"/><line x1="13.175" x2="10" y1="200.5" y2="200.5"/><line x1="10" x2="10" y1="200.5" y2="203.675"/><line x1="10" x2="13.175" y1="203.675" y2="203.675"/><line x1="13.175" x2="13.175" y1="203.675" y2="206.85"/><line x1="13.175" x2="10" y1="206.85" y2="206.85"/><line x1="10" x2="10" y1="206.85" y2="210.025"/><line x1="10" x2="13.175" y1="210.025" y2="210.025"/><line x1="13.175" x2="13.175" y1="210.025" y2="213.2"/><line x1="13.175" x2="10" y1="213.2" y2="213.2"/><line x1="10" x2="10" y1="213.2" y2="216.375"/><line x1="10" x2="13.175" y1="216.375" y2="216.375"/><line x1="13.175" x2="13.175" y1="216.375" y2="219.55"/><line x1="13.175" x2="10" y1="219.55" y2="219.55"/><line x1="10" x2="10" y1="219.55" y2="222.725"/><line x1="10" x2="13.175" y1="222.725" y2="222.725"/><line x1="13.175" x2="13.175" y1="222.725" y2="225.9"/><line x1="13.175" x2="10" y1="225.9" y2="225.9"/><line x1="10" x2="10" y1="225.9" y2="229.075"/><line x1="10" x2="13.175" y1="229.075" y2="229.075"/><line x1="13.175" x2="13.175" y1="229.075" y2="232.25"/><line x1="13.175" x2="10" y1="232.25" y2="232.25"/><line x1="10" x2="10" y1="232.25" y2="235.425"/><line x1="10" x2="13.175" y1="235.425" y2="235.425"/><line x1="13.175" x2="13.175" y1="235.425" y2="238.6"/><line x1="13.175" x2="10" y1="238.6" y2="238.6"/><line x1="10" x2="10" y1="238.6" y2="241.775"/><line x1="10" x2="13.175" y1="241.775" y2="241.775"/><line x1="13.175" x2="13.175" y1="241.775" y2="244.95"/><line x1="13.175" x2="10" y1="244.95" y2="244.95"/><line x1="10" x2="10" y1="244.95" y2="248.125"/><line x1="10" x2="13.175" y1="248.125" y2="248.125"/><line x1="13.175" x2="13.175" y1="248.125" y2="251.3"/><line x1="13.175" x2="10" y1="251.3" y2="251.3"/><line x1="10" x2="10" y1="251.3" y2="254.475"/><line x1="10" x2="13.175" y1="254.475" y2="254.475"/><line x1="13.175" x2="13.175" y1="254.475" y2="257.65"/><line x1="13.175" x2="10" y1="257.65" y2="257.65"/><line x1="10" x2="10" y1="257.65" y2="260.825"/><line x1="10" x2="13.175" y1="260.825" y2="260.825"/><line x1="13.175" x2="13.175" y1="260.825" y2="264"/><line x1="13.175" x2="10" y1="264" y2="264"/><line x1="10" x2="10" y1="264" y2="267.175"/><line x1="10" x2="13.175" y1="267.175" y2="267.175"/><line x1="13.175" x2="13.175" y1="267.175" y2="270.35"/><line x1="13.175" x2="10" y1="270.35" y2="270.35"/><line x1="10" x2="10" y1="270.35" y2="273.525"/><line x1="10" x2="13.175" y1="273.525" y2="273.525"/><line x1="13.175" x2="13.175" y1="273.525" y2="276.7"/><line x1="13.175" x2="10" y1="276.7" y2="276.7"/><line x1="10" x2="10" y1="276.7" y2="279.875"/><line x1="10" x2="13.175" y1="279.875" y2="279.875"/><line x1="13.175" x2="13.175" y1="279.875" y2="283.05"/><line x1="13.175" x2="10" y1="283.05" y2="283.05"/><line x1="10" x2="10" y1="283.05" y2="286.225"/><line x1="10" x2="13.175" y1="286.225" y2="286.225"/><line x1="13.175" x2="13.175" y1="286.225" y2="289.4"/><line x1="13.175" x2="10" y1="289.4" y2="289.4"/><line x1="10" x2="10" y1="289.4" y2="292.575"/><line x1="10" x2="13.175" y1="292.575" y2="292.575"/><line x1="13.175" x2="13.175" y1="292.575" y2="295.75"/><line x1="13.175" x2="10" y1="295.75" y2="295.75"/><line x1="10" x2="10" y1="295.75" y2="298.925"/><line x1="10" x2="13.175" y1="298.925" y2="298.925"/><line x1="13.175" x2="13.175" y1="298.925" y2="302.1"/><line x1="13.175" x2="10" y1="302.1" y2="302.1"/><line x1="10" x2="10" y1="302.1" y2="305.275"/><line x1="10" x2="13.175" y1="305.275" y2="305.275"/><line x1="13.175" x2="13.175" y1="305.275" y2="308.45"/><line x1="13.175" x2="10" y1="308.45" y2="308.45"/><line x1="10" x2="10" y1="308.45" y2="311.625"/><line x1="10" x2="13.175" y1="311.625" y2="311.625"/><line x1="13.175" x2="13.175" y1="311.625" y2="314.8"/><line x1="13.175" x2="10" y1="314.8" y2="314.8"/><line x1="10" x2="10" y1="314.8" y2="317.975"/><line x1="10" x2="13.175" y1="317.975" y2="317.975"/><line x1="13.175" x2="13.175" y1="317.975" y2="321.15"/><line x1="13.175" x2="10" y1="321.15" y2="321.15"/><line x1="10" x2="10" y1="321.15" y2="324.325"/><line x1="10" x2="13.175" y1="324.325" y2="324.325"/><line x1="13.175" x2="13.175" y1="324.325" y2="327.5"/><line x1="13.175" x2="10" y1="327.5" y2="327.5"/><line x1="10" x2="10" y1="327.5" y2="330.675"/><line x1="10" x2="13.175" y1="330.675" y2="330.675"/><line x1="13.175" x2="13.175" y1="330.675" y2="333.85"/><line x1="13.175" x2="10" y1="333.85" y2="333.85"/><line x1="10" x2="10" y1="333.85" y2="337.025"/><line x1="10" x2="13.175" y1="337.025" y2="337.025"/><line x1="13.175" x2="13.175" y1="337.025" y2="340.2"/><line x1="13.175" x2="10" y1="340.2" y2="340.2"/><line x1="10" x2="10" y1="340.2" y2="343.375"/><line x1="10" x2="13.175" y1="343.375" y2="343.375"/><line x1="13.175" x2="13.175" y1="343.375" y2="346.55"/><line x1="13.175" x2="10" y1="346.55" y2="346.55"/><line x1="10" x2="10" y1="346.55" y2="349.725"/><line x1="10" x2="13.175" y1="349.725" y2="349.725"/><line x1="13.175" x2="13.175" y1="349.725" y2="352.9"/><line x1="13.175" x2="10" y1="352.9" y2="352.9"/><line x1="10" x2="10" y1="352.9" y2="356.075"/><line x1="10" x2="13.175" y1="356.075" y2="356.075"/><line x1="13.175" x2="13.175" y1="356.075" y2="359.25"/><line x1="13.175" x2="10" y1="359.25" y2="359.25"/><line x1="10" x2="10" y1="359.25" y2="362.425"/><line x1="10" x2="13.175" y1="362.425" y2="362.425"/><line x1="13.175" x2="13.175" y1="362.425" y2="365.6"/><line x1="13.175" x2="10" y1="365.6" y2="365.6"/><line x1="10" x2="10" y1="365.6" y2="368.775"/><line x1="10" x2="13.175" y1="368.775" y2="368.775"/><line x1="13.175" x2="13.175" y1="368.775" y2="371.95"/><line x1="13.175" x2="10" y1="371.95" y2="371.95"/><line x1="10" x2="10" y1="371.95" y2="375.125"/><line x1="10" x2="13.175" y1="375.125" y2="375.125"/><line x1="13.175" x2="13.175" y1="375.125" y2="378.3"/><line x1="13.175" x2="10" y1="378.3" y2="378.3"/><line x1="10" x2="10" y1="378.3" y2="381.475"/><line x1="10" x2="13.175" y1="381.475" y2="381.475"/><line x1="13.175" x2="13.175" y1="381.475" y2="384.65"/><line x1="13.175" x2="10" y1="384.65" y2="384.65"/><line x1="10" x2="10" y1="384.65" y2="387.825"/><line x1="10" x2="13.175" y1="387.825" y2="387.825"/><line x1="13.175" x2="13.175" y1="387.825" y2="391"/><line x1="13.175" x2="10" y1="391" y2="391"/><line x1="10" x2="10" y1="391" y2="394.175"/><line x1="10" x2="13.175" y1="394.175" y2="394.175"/><line x1="23.805" x2="49.205" y1="368.775" y2="368.775"/><line x1="49.205" x2="49.205" y1="368.775" y2="389.477"/><line x1="49.205" x2="23.805" y1="389.477" y2="389.477"/><line x1="23.805" x2="23.805" y1="389.477" y2="368.775"/><line x1="48.968" x2="23.568" y1="38.382" y2="38.382"/><line x1="23.568" x2="23.568" y1="38.382" y2="17.68"/><line x1="23.568" x2="48.968" y1="17.68" y2="17.68"/><line x1="48.968" x2="48.968" y1="17.68" y2="38.382"/></g></svg>