<svg xmlns="http://www.w3.org/2000/svg" xmlns:svg="http://www.w3.org/2000/svg" id="svg12654" width="1260" height="855" version="1.1" viewBox="0 0 355.6 241.3"><metadata id="metadata12925"/><desc id="desc12656">Output from Flights of Ideas SVG Sketchup Plugin</desc><g id="face0" stroke-miterlimit="4" transform="translate(-8.3252827,-9.2478843)" style="fill:none;stroke:#00f;stroke-width:1;stroke-linecap:round;stroke-linejoin:round;stroke-miterlimit:4;stroke-dasharray:none"><line id="line12659" x1="40.027" x2="41.649" y1="245.757" y2="248.45"/><line id="line12661" x1="41.649" x2="362.585" y1="248.45" y2="55.155"/><line id="line12663" x1="362.585" x2="360.947" y1="55.155" y2="52.435"/><line id="line12665" x1="360.947" x2="363.666" y1="52.435" y2="50.797"/><line id="line12667" x1="363.666" x2="362.028" y1="50.797" y2="48.077"/><line id="line12669" x1="362.028" x2="359.308" y1="48.077" y2="49.715"/><line id="line12671" x1="359.308" x2="357.67" y1="49.715" y2="46.995"/><line id="line12673" x1="357.67" x2="360.39" y1="46.995" y2="45.357"/><line id="line12675" x1="360.39" x2="358.752" y1="45.357" y2="42.638"/><line id="line12677" x1="358.752" x2="356.032" y1="42.638" y2="44.276"/><line id="line12679" x1="356.032" x2="354.394" y1="44.276" y2="41.556"/><line id="line12681" x1="354.394" x2="357.114" y1="41.556" y2="39.918"/><line id="line12683" x1="357.114" x2="355.476" y1="39.918" y2="37.198"/><line id="line12685" x1="355.476" x2="352.756" y1="37.198" y2="38.836"/><line id="line12687" x1="352.756" x2="351.118" y1="38.836" y2="36.116"/><line id="line12689" x1="351.118" x2="353.838" y1="36.116" y2="34.478"/><line id="line12691" x1="353.838" x2="352.2" y1="34.478" y2="31.758"/><line id="line12693" x1="352.2" x2="349.48" y1="31.758" y2="33.396"/><line id="line12695" x1="349.48" x2="347.842" y1="33.396" y2="30.677"/><line id="line12697" x1="347.842" x2="350.562" y1="30.677" y2="29.039"/><line id="line12699" x1="350.562" x2="348.923" y1="29.039" y2="26.319"/><line id="line12701" x1="348.923" x2="346.204" y1="26.319" y2="27.957"/><line id="line12703" x1="346.204" x2="346.172" y1="27.957" y2="27.904"/><line id="line12705" x1="346.172" x2="344.566" y1="27.904" y2="25.237"/><line id="line12707" x1="344.566" x2="344.534" y1="25.237" y2="25.184"/><line id="line12709" x1="344.534" x2="347.253" y1="25.184" y2="23.546"/><line id="line12711" x1="347.253" x2="345.647" y1="23.546" y2="20.879"/><line id="line12713" x1="345.647" x2="342.927" y1="20.879" y2="22.517"/><line id="line12715" x1="342.927" x2="342.896" y1="22.517" y2="22.464"/><line id="line12717" x1="342.896" x2="341.289" y1="22.464" y2="19.797"/><line id="line12719" x1="341.289" x2="341.257" y1="19.797" y2="19.744"/><line id="line12721" x1="341.257" x2="343.977" y1="19.744" y2="18.106"/><line id="line12723" x1="343.977" x2="342.371" y1="18.106" y2="15.44"/><line id="line12725" x1="342.371" x2="339.651" y1="15.44" y2="17.078"/><line id="line12727" x1="339.651" x2="339.619" y1="17.078" y2="17.025"/><line id="line12729" x1="339.619" x2="338.013" y1="17.025" y2="14.358"/><line id="line12731" x1="338.013" x2="337.997" y1="14.358" y2="14.331"/><line id="line12733" x1="337.997" x2="340.717" y1="14.331" y2="12.693"/><line id="line12735" x1="340.717" x2="339.095" y1="12.693" y2="10"/><line id="line12737" x1="339.095" x2="10" y1="10" y2="208.209"/><line id="line12739" x1="10" x2="11.622" y1="208.209" y2="210.903"/><line id="line12741" x1="11.622" x2="14.342" y1="210.903" y2="209.265"/><line id="line12743" x1="14.342" x2="17.062" y1="209.265" y2="207.627"/><line id="line12745" x1="17.062" x2="17.078" y1="207.627" y2="207.653"/><line id="line12747" x1="17.078" x2="18.684" y1="207.653" y2="210.32"/><line id="line12749" x1="18.684" x2="18.716" y1="210.32" y2="210.373"/><line id="line12751" x1="18.716" x2="13.276" y1="210.373" y2="213.649"/><line id="line12753" x1="13.276" x2="14.882" y1="213.649" y2="216.316"/><line id="line12755" x1="14.882" x2="17.602" y1="216.316" y2="214.678"/><line id="line12757" x1="17.602" x2="20.322" y1="214.678" y2="213.04"/><line id="line12759" x1="20.322" x2="20.354" y1="213.04" y2="213.093"/><line id="line12761" x1="20.354" x2="21.96" y1="213.093" y2="215.759"/><line id="line12763" x1="21.96" x2="21.992" y1="215.759" y2="215.812"/><line id="line12765" x1="21.992" x2="16.552" y1="215.812" y2="219.089"/><line id="line12767" x1="16.552" x2="18.159" y1="219.089" y2="221.755"/><line id="line12769" x1="18.159" x2="20.878" y1="221.755" y2="220.117"/><line id="line12771" x1="20.878" x2="23.598" y1="220.117" y2="218.479"/><line id="line12773" x1="23.598" x2="23.63" y1="218.479" y2="218.532"/><line id="line12775" x1="23.63" x2="25.236" y1="218.532" y2="221.199"/><line id="line12777" x1="25.236" x2="25.268" y1="221.199" y2="221.252"/><line id="line12779" x1="25.268" x2="19.829" y1="221.252" y2="224.528"/><line id="line12781" x1="19.829" x2="21.467" y1="224.528" y2="227.248"/><line id="line12783" x1="21.467" x2="24.186" y1="227.248" y2="225.61"/><line id="line12785" x1="24.186" x2="26.906" y1="225.61" y2="223.972"/><line id="line12787" x1="26.906" x2="28.544" y1="223.972" y2="226.692"/><line id="line12789" x1="28.544" x2="25.825" y1="226.692" y2="228.33"/><line id="line12791" x1="25.825" x2="23.105" y1="228.33" y2="229.968"/><line id="line12793" x1="23.105" x2="24.743" y1="229.968" y2="232.688"/><line id="line12795" x1="24.743" x2="27.463" y1="232.688" y2="231.049"/><line id="line12797" x1="27.463" x2="30.182" y1="231.049" y2="229.411"/><line id="line12799" x1="30.182" x2="31.821" y1="229.411" y2="232.131"/><line id="line12801" x1="31.821" x2="31.852" y1="232.131" y2="232.184"/><line id="line12803" x1="31.852" x2="26.413" y1="232.184" y2="235.46"/><line id="line12805" x1="26.413" x2="28.019" y1="235.46" y2="238.127"/><line id="line12807" x1="28.019" x2="30.739" y1="238.127" y2="236.489"/><line id="line12809" x1="30.739" x2="33.459" y1="236.489" y2="234.851"/><line id="line12811" x1="33.459" x2="33.491" y1="234.851" y2="234.904"/><line id="line12813" x1="33.491" x2="35.097" y1="234.904" y2="237.571"/><line id="line12815" x1="35.097" x2="35.129" y1="237.571" y2="237.624"/><line id="line12817" x1="35.129" x2="29.689" y1="237.624" y2="240.9"/><line id="line12819" x1="29.689" x2="31.295" y1="240.9" y2="243.567"/><line id="line12821" x1="31.295" x2="34.015" y1="243.567" y2="241.929"/><line id="line12823" x1="34.015" x2="36.735" y1="241.929" y2="240.291"/><line id="line12825" x1="36.735" x2="36.767" y1="240.291" y2="240.344"/><line id="line12827" x1="36.767" x2="38.373" y1="240.344" y2="243.01"/><line id="line12829" x1="38.373" x2="38.405" y1="243.01" y2="243.063"/><line id="line12831" x1="38.405" x2="32.965" y1="243.063" y2="246.34"/><line id="line12833" x1="32.965" x2="34.571" y1="246.34" y2="249.006"/><line id="line12835" x1="34.571" x2="37.291" y1="249.006" y2="247.368"/><line id="line12837" x1="37.291" x2="40.011" y1="247.368" y2="245.73"/><line id="line12839" x1="40.011" x2="40.027" y1="245.73" y2="245.757"/><line id="line12841" x1="40.474" x2="45.914" y1="197.268" y2="193.992"/><line id="line12843" x1="45.914" x2="47.531" y1="193.992" y2="196.666"/><line id="line12845" x1="47.531" x2="49.19" y1="196.666" y2="199.431"/><line id="line12847" x1="49.19" x2="27.432" y1="199.431" y2="212.536"/><line id="line12849" x1="27.432" x2="25.799" y1="212.536" y2="209.813"/><line id="line12851" x1="25.799" x2="24.155" y1="209.813" y2="207.097"/><line id="line12853" x1="24.155" x2="29.589" y1="207.097" y2="203.81"/><line id="line12855" x1="29.589" x2="40.474" y1="203.81" y2="197.268"/><line id="line12857" x1="43.844" x2="42.123" y1="239.787" y2="236.93"/><line id="line12859" x1="42.123" x2="40.568" y1="236.93" y2="234.348"/><line id="line12861" x1="40.568" x2="46.003" y1="234.348" y2="231.075"/><line id="line12863" x1="46.003" x2="56.882" y1="231.075" y2="224.522"/><line id="line12865" x1="56.882" x2="62.327" y1="224.522" y2="221.243"/><line id="line12867" x1="62.327" x2="63.856" y1="221.243" y2="223.782"/><line id="line12869" x1="63.856" x2="65.603" y1="223.782" y2="226.682"/><line id="line12871" x1="65.603" x2="43.844" y1="226.682" y2="239.787"/><line id="line12873" x1="157.864" x2="154.587" y1="134.051" y2="128.612"/><line id="line12875" x1="154.587" x2="176.346" y1="128.612" y2="115.507"/><line id="line12877" x1="176.346" x2="179.622" y1="115.507" y2="120.946"/><line id="line12879" x1="179.622" x2="157.864" y1="120.946" y2="134.051"/><line id="line12881" x1="174.244" x2="170.968" y1="161.249" y2="155.809"/><line id="line12883" x1="170.968" x2="192.727" y1="155.809" y2="142.705"/><line id="line12885" x1="192.727" x2="196.003" y1="142.705" y2="148.144"/><line id="line12887" x1="196.003" x2="174.244" y1="148.144" y2="161.249"/><line id="line12889" x1="328.772" x2="334.212" y1="23.63" y2="20.354"/><line id="line12891" x1="334.212" x2="335.85" y1="20.354" y2="23.074"/><line id="line12893" x1="335.85" x2="337.488" y1="23.074" y2="25.793"/><line id="line12895" x1="337.488" x2="315.73" y1="25.793" y2="38.898"/><line id="line12897" x1="315.73" x2="314.091" y1="38.898" y2="36.178"/><line id="line12899" x1="314.091" x2="312.453" y1="36.178" y2="33.459"/><line id="line12901" x1="312.453" x2="317.893" y1="33.459" y2="30.182"/><line id="line12903" x1="317.893" x2="328.772" y1="30.182" y2="23.63"/><line id="line12905" x1="345.153" x2="350.593" y1="50.828" y2="47.552"/><line id="line12907" x1="350.593" x2="352.231" y1="47.552" y2="50.272"/><line id="line12909" x1="352.231" x2="353.869" y1="50.272" y2="52.991"/><line id="line12911" x1="353.869" x2="332.111" y1="52.991" y2="66.096"/><line id="line12913" x1="332.111" x2="330.472" y1="66.096" y2="63.376"/><line id="line12915" x1="330.472" x2="328.834" y1="63.376" y2="60.657"/><line id="line12917" x1="328.834" x2="334.274" y1="60.657" y2="57.38"/><line id="line12919" x1="334.274" x2="345.153" y1="57.38" y2="50.828"/></g></svg>