<svg xmlns="http://www.w3.org/2000/svg" xmlns:xlink="http://www.w3.org/1999/xlink" width="96.2mm" height="45.4mm" version="1.1" viewBox="0 0 96.2 45.4"><desc>Output from Flights of Ideas SVG Sketchup Plugin</desc><g id="face0" fill="none" stroke="#00F" stroke-dasharray="none" stroke-linecap="round" stroke-linejoin="round" stroke-miterlimit="4" stroke-width="1"><line x1="25.875" x2="25.875" y1="22.7" y2="35.4"/><line x1="25.875" x2="49.688" y1="35.4" y2="35.4"/><line x1="49.688" x2="49.688" y1="35.4" y2="22.7"/><line x1="49.688" x2="52.862" y1="22.7" y2="22.7"/><line x1="52.862" x2="52.862" y1="22.7" y2="35.4"/><line x1="52.862" x2="73.5" y1="35.4" y2="35.4"/><line x1="73.5" x2="73.5" y1="35.4" y2="22.7"/><line x1="73.5" x2="76.675" y1="22.7" y2="22.7"/><line x1="76.675" x2="76.675" y1="22.7" y2="35.4"/><line x1="76.675" x2="86.2" y1="35.4" y2="35.4"/><line x1="86.2" x2="86.2" y1="35.4" y2="10"/><line x1="86.2" x2="10" y1="10" y2="10"/><line x1="10" x2="10" y1="10" y2="35.4"/><line x1="10" x2="22.7" y1="35.4" y2="35.4"/><line x1="22.7" x2="22.7" y1="35.4" y2="22.7"/><line x1="22.7" x2="25.875" y1="22.7" y2="22.7"/></g></svg>