<svg xmlns="http://www.w3.org/2000/svg" xmlns:xlink="http://www.w3.org/1999/xlink" width="699.742" height="172.946" version="1.1" viewBox="0 0 185.14 45.759"><desc>Output from Flights of Ideas SVG Sketchup Plugin</desc><g id="face0" fill="none" stroke="#00F" stroke-dasharray="none" stroke-linecap="round" stroke-linejoin="round" stroke-miterlimit="4" stroke-width="1"><line x1="25.987" x2="162.44" y1="35.759" y2="35.759"/><line x1="162.44" x2="165.727" y1="35.759" y2="35.326"/><line x1="165.727" x2="168.79" y1="35.326" y2="34.057"/><line x1="168.79" x2="171.42" y1="34.057" y2="32.039"/><line x1="171.42" x2="173.439" y1="32.039" y2="29.409"/><line x1="173.439" x2="174.707" y1="29.409" y2="26.346"/><line x1="174.707" x2="175.14" y1="26.346" y2="23.059"/><line x1="175.14" x2="174.707" y1="23.059" y2="19.772"/><line x1="174.707" x2="173.439" y1="19.772" y2="16.709"/><line x1="173.439" x2="171.42" y1="16.709" y2="14.078"/><line x1="171.42" x2="168.79" y1="14.078" y2="12.06"/><line x1="168.79" x2="165.727" y1="12.06" y2="10.791"/><line x1="165.727" x2="162.4" y1="10.791" y2="10"/><line x1="162.4" x2="122.789" y1="10" y2="10"/><line x1="122.789" x2="122.789" y1="10" y2="22.7"/><line x1="122.789" x2="119.614" y1="22.7" y2="22.7"/><line x1="119.614" x2="119.614" y1="22.7" y2="10"/><line x1="119.614" x2="68.814" y1="10" y2="10"/><line x1="68.814" x2="68.814" y1="10" y2="22.7"/><line x1="68.814" x2="65.639" y1="22.7" y2="22.7"/><line x1="65.639" x2="65.639" y1="22.7" y2="10"/><line x1="65.639" x2="22.7" y1="10" y2="10"/><line x1="22.7" x2="19.413" y1="10" y2="10.433"/><line x1="19.413" x2="18.595" y1="10.433" y2="10.772"/><line x1="18.595" x2="16.35" y1="10.772" y2="11.701"/><line x1="16.35" x2="13.72" y1="11.701" y2="13.72"/><line x1="13.72" x2="11.701" y1="13.72" y2="16.35"/><line x1="11.701" x2="10.433" y1="16.35" y2="19.413"/><line x1="10.433" x2="10" y1="19.413" y2="22.7"/><line x1="10" x2="10.433" y1="22.7" y2="25.987"/><line x1="10.433" x2="11.701" y1="25.987" y2="29.05"/><line x1="11.701" x2="13.72" y1="29.05" y2="31.68"/><line x1="13.72" x2="16.35" y1="31.68" y2="33.699"/><line x1="16.35" x2="19.413" y1="33.699" y2="34.967"/><line x1="19.413" x2="22.7" y1="34.967" y2="35.4"/><line x1="22.7" x2="25.987" y1="35.4" y2="35.759"/><line x1="164.028" x2="163.262" y1="25.808" y2="26.125"/><line x1="163.262" x2="162.44" y1="26.125" y2="26.234"/><line x1="162.44" x2="161.618" y1="26.234" y2="26.125"/><line x1="161.618" x2="160.853" y1="26.125" y2="25.808"/><line x1="160.853" x2="160.195" y1="25.808" y2="25.304"/><line x1="160.195" x2="159.69" y1="25.304" y2="24.646"/><line x1="159.69" x2="159.373" y1="24.646" y2="23.88"/><line x1="159.373" x2="159.265" y1="23.88" y2="23.059"/><line x1="159.265" x2="159.373" y1="23.059" y2="22.237"/><line x1="159.373" x2="159.69" y1="22.237" y2="21.471"/><line x1="159.69" x2="160.195" y1="21.471" y2="20.814"/><line x1="160.195" x2="160.853" y1="20.814" y2="20.309"/><line x1="160.853" x2="161.618" y1="20.309" y2="19.992"/><line x1="161.618" x2="162.44" y1="19.992" y2="19.884"/><line x1="162.44" x2="163.262" y1="19.884" y2="19.992"/><line x1="163.262" x2="164.028" y1="19.992" y2="20.309"/><line x1="164.028" x2="164.685" y1="20.309" y2="20.814"/><line x1="164.685" x2="165.19" y1="20.814" y2="21.471"/><line x1="165.19" x2="165.507" y1="21.471" y2="22.237"/><line x1="165.507" x2="165.615" y1="22.237" y2="23.059"/><line x1="165.615" x2="165.507" y1="23.059" y2="23.88"/><line x1="165.507" x2="165.19" y1="23.88" y2="24.646"/><line x1="165.19" x2="164.685" y1="24.646" y2="25.304"/><line x1="164.685" x2="164.028" y1="25.304" y2="25.808"/><line x1="24.581" x2="24.287" y1="25.224" y2="25.45"/><line x1="24.287" x2="23.522" y1="25.45" y2="25.767"/><line x1="23.522" x2="22.7" y1="25.767" y2="25.875"/><line x1="22.7" x2="21.878" y1="25.875" y2="25.767"/><line x1="21.878" x2="21.112" y1="25.767" y2="25.45"/><line x1="21.112" x2="20.455" y1="25.45" y2="24.945"/><line x1="20.455" x2="19.95" y1="24.945" y2="24.288"/><line x1="19.95" x2="19.633" y1="24.288" y2="23.522"/><line x1="19.633" x2="19.525" y1="23.522" y2="22.7"/><line x1="19.525" x2="19.633" y1="22.7" y2="21.878"/><line x1="19.633" x2="19.95" y1="21.878" y2="21.113"/><line x1="19.95" x2="20.455" y1="21.113" y2="20.455"/><line x1="20.455" x2="21.112" y1="20.455" y2="19.95"/><line x1="21.112" x2="21.878" y1="19.95" y2="19.633"/><line x1="21.878" x2="22.245" y1="19.633" y2="19.585"/><line x1="22.245" x2="22.7" y1="19.585" y2="19.525"/><line x1="22.7" x2="23.522" y1="19.525" y2="19.633"/><line x1="23.522" x2="24.287" y1="19.633" y2="19.95"/><line x1="24.287" x2="24.945" y1="19.95" y2="20.455"/><line x1="24.945" x2="25.45" y1="20.455" y2="21.113"/><line x1="25.45" x2="25.767" y1="21.113" y2="21.878"/><line x1="25.767" x2="25.875" y1="21.878" y2="22.7"/><line x1="25.875" x2="25.767" y1="22.7" y2="23.522"/><line x1="25.767" x2="25.45" y1="23.522" y2="24.288"/><line x1="25.45" x2="24.945" y1="24.288" y2="24.945"/><line x1="24.945" x2="24.581" y1="24.945" y2="25.224"/></g></svg>