<svg xmlns="http://www.w3.org/2000/svg" xmlns:svg="http://www.w3.org/2000/svg" id="svg14608" width="1260" height="855" version="1.1" viewBox="0 0 355.6 241.3"><metadata id="metadata14807"/><desc id="desc14610">Output from Flights of Ideas SVG Sketchup Plugin</desc><g id="face0" stroke-miterlimit="4" transform="translate(-9.5759576,3.473486)" style="fill:none;stroke:#00f;stroke-width:1;stroke-linecap:round;stroke-linejoin:round;stroke-miterlimit:4;stroke-dasharray:none"><line id="line14613" x1="350.757" x2="349.184" y1="34.733" y2="31.975"/><line id="line14615" x1="349.184" x2="351.942" y1="31.975" y2="30.402"/><line id="line14617" x1="351.942" x2="350.369" y1="30.402" y2="27.644"/><line id="line14619" x1="350.369" x2="347.611" y1="27.644" y2="29.217"/><line id="line14621" x1="347.611" x2="346.038" y1="29.217" y2="26.459"/><line id="line14623" x1="346.038" x2="348.796" y1="26.459" y2="24.886"/><line id="line14625" x1="348.796" x2="347.222" y1="24.886" y2="22.128"/><line id="line14627" x1="347.222" x2="344.465" y1="22.128" y2="23.701"/><line id="line14629" x1="344.465" x2="344.439" y1="23.701" y2="23.716"/><line id="line14631" x1="344.439" x2="342.84" y1="23.716" y2="20.973"/><line id="line14633" x1="342.84" x2="345.414" y1="20.973" y2="19.228"/><line id="line14635" x1="345.414" x2="343.831" y1="19.228" y2="16.476"/><line id="line14637" x1="343.831" x2="341.126" y1="16.476" y2="18.031"/><line id="line14639" x1="341.126" x2="339.527" y1="18.031" y2="15.288"/><line id="line14641" x1="339.527" x2="342.249" y1="15.288" y2="13.723"/><line id="line14643" x1="342.249" x2="340.723" y1="13.723" y2="11.07"/><line id="line14645" x1="340.723" x2="337.986" y1="11.07" y2="12.644"/><line id="line14647" x1="337.986" x2="336.445" y1="12.644" y2="10"/><line id="line14649" x1="336.445" x2="10" y1="10" y2="197.736"/><line id="line14651" x1="10" x2="20.411" y1="197.736" y2="225.421"/><line id="line14653" x1="20.411" x2="21.317" y1="225.421" y2="227.828"/><line id="line14655" x1="21.317" x2="43.333" y1="227.828" y2="215.168"/><line id="line14657" x1="43.333" x2="45.535" y1="215.168" y2="213.902"/><line id="line14659" x1="45.535" x2="43.826" y1="213.902" y2="210.93"/><line id="line14661" x1="43.826" x2="35.019" y1="210.93" y2="215.994"/><line id="line14663" x1="35.019" x2="32.74" y1="215.994" y2="212.031"/><line id="line14665" x1="32.74" x2="41.547" y1="212.031" y2="206.967"/><line id="line14667" x1="41.547" x2="39.205" y1="206.967" y2="202.894"/><line id="line14669" x1="39.205" x2="38.572" y1="202.894" y2="201.793"/><line id="line14671" x1="38.572" x2="40.773" y1="201.793" y2="200.527"/><line id="line14673" x1="40.773" x2="41.406" y1="200.527" y2="201.628"/><line id="line14675" x1="41.406" x2="63.423" y1="201.628" y2="188.968"/><line id="line14677" x1="63.423" x2="64.171" y1="188.968" y2="188.537"/><line id="line14679" x1="64.171" x2="65.437" y1="188.537" y2="190.739"/><line id="line14681" x1="65.437" x2="64.395" y1="190.739" y2="191.339"/><line id="line14683" x1="64.395" x2="64.464" y1="191.339" y2="191.522"/><line id="line14685" x1="64.464" x2="71.047" y1="191.522" y2="209.027"/><line id="line14687" x1="71.047" x2="74.845" y1="209.027" y2="219.02"/><line id="line14689" x1="74.845" x2="364.526" y1="219.02" y2="52.465"/><line id="line14691" x1="364.526" x2="362.953" y1="52.465" y2="49.707"/><line id="line14693" x1="362.953" x2="360.195" y1="49.707" y2="51.28"/><line id="line14695" x1="360.195" x2="358.622" y1="51.28" y2="48.522"/><line id="line14697" x1="358.622" x2="361.38" y1="48.522" y2="46.949"/><line id="line14699" x1="361.38" x2="359.807" y1="46.949" y2="44.191"/><line id="line14701" x1="359.807" x2="359.778" y1="44.191" y2="44.208"/><line id="line14703" x1="359.778" x2="357.049" y1="44.208" y2="45.765"/><line id="line14705" x1="357.049" x2="355.476" y1="45.765" y2="43.007"/><line id="line14707" x1="355.476" x2="358.195" y1="43.007" y2="41.455"/><line id="line14709" x1="358.195" x2="358.234" y1="41.455" y2="41.434"/><line id="line14711" x1="358.234" x2="356.661" y1="41.434" y2="38.676"/><line id="line14713" x1="356.661" x2="353.903" y1="38.676" y2="40.249"/><line id="line14715" x1="353.903" x2="352.33" y1="40.249" y2="37.491"/><line id="line14717" x1="352.33" x2="355.088" y1="37.491" y2="35.918"/><line id="line14719" x1="355.088" x2="353.515" y1="35.918" y2="33.16"/><line id="line14721" x1="353.515" x2="350.757" y1="33.16" y2="34.733"/><line id="line14723" x1="312.087" x2="334.106" y1="31.332" y2="18.67"/><line id="line14725" x1="334.106" x2="337.271" y1="18.67" y2="24.175"/><line id="line14727" x1="337.271" x2="315.252" y1="24.175" y2="36.836"/><line id="line14729" x1="315.252" x2="312.087" y1="36.836" y2="31.332"/><line id="line14731" x1="349.964" x2="353.129" y1="46.248" y2="51.752"/><line id="line14733" x1="353.129" x2="331.11" y1="51.752" y2="64.414"/><line id="line14735" x1="331.11" x2="327.945" y1="64.414" y2="58.909"/><line id="line14737" x1="327.945" x2="349.964" y1="58.909" y2="46.248"/><line id="line14739" x1="106.79" x2="105.651" y1="190.257" y2="188.275"/><line id="line14741" x1="105.651" x2="107.632" y1="188.275" y2="187.136"/><line id="line14743" x1="107.632" x2="108.772" y1="187.136" y2="189.118"/><line id="line14745" x1="108.772" x2="106.79" y1="189.118" y2="190.257"/><line id="line14747" x1="92.44" x2="93.58" y1="160.716" y2="162.698"/><line id="line14749" x1="93.58" x2="91.598" y1="162.698" y2="163.837"/><line id="line14751" x1="91.598" x2="90.459" y1="163.837" y2="161.856"/><line id="line14753" x1="90.459" x2="92.44" y1="161.856" y2="160.716"/><line id="line14755" x1="99.194" x2="98.055" y1="177.047" y2="175.066"/><line id="line14757" x1="98.055" x2="100.036" y1="175.066" y2="173.926"/><line id="line14759" x1="100.036" x2="101.176" y1="173.926" y2="175.908"/><line id="line14761" x1="101.176" x2="99.194" y1="175.908" y2="177.047"/><line id="line14763" x1="202.173" x2="205.339" y1="94.606" y2="100.111"/><line id="line14765" x1="205.339" x2="183.32" y1="100.111" y2="112.772"/><line id="line14767" x1="183.32" x2="180.154" y1="112.772" y2="107.268"/><line id="line14769" x1="180.154" x2="202.173" y1="107.268" y2="94.606"/><line id="line14771" x1="218" x2="221.166" y1="122.13" y2="127.635"/><line id="line14773" x1="221.166" x2="199.147" y1="127.635" y2="140.296"/><line id="line14775" x1="199.147" x2="195.981" y1="140.296" y2="134.792"/><line id="line14777" x1="195.981" x2="218" y1="134.792" y2="122.13"/><line id="line14779" x1="84.773" x2="82.792" y1="167.762" y2="168.901"/><line id="line14781" x1="82.792" x2="81.652" y1="168.901" y2="166.92"/><line id="line14783" x1="81.652" x2="83.634" y1="166.92" y2="165.78"/><line id="line14785" x1="83.634" x2="84.773" y1="165.78" y2="167.762"/><line id="line14787" x1="92.369" x2="90.388" y1="180.972" y2="182.111"/><line id="line14789" x1="90.388" x2="89.248" y1="182.111" y2="180.13"/><line id="line14791" x1="89.248" x2="91.23" y1="180.13" y2="178.99"/><line id="line14793" x1="91.23" x2="92.369" y1="178.99" y2="180.972"/><line id="line14795" x1="99.965" x2="97.984" y1="194.182" y2="195.321"/><line id="line14797" x1="97.984" x2="96.844" y1="195.321" y2="193.339"/><line id="line14799" x1="96.844" x2="98.826" y1="193.339" y2="192.2"/><line id="line14801" x1="98.826" x2="99.965" y1="192.2" y2="194.182"/></g></svg>