<svg xmlns="http://www.w3.org/2000/svg" xmlns:svg="http://www.w3.org/2000/svg" id="svg13979" width="1260" height="855" version="1.1" viewBox="0 0 355.6 241.3"><metadata id="metadata14176"/><desc id="desc13981">Output from Flights of Ideas SVG Sketchup Plugin</desc><g id="face0" stroke-miterlimit="4" transform="translate(-9.8953281,12.94675)" style="fill:none;stroke:#00f;stroke-width:1;stroke-linecap:round;stroke-linejoin:round;stroke-miterlimit:4;stroke-dasharray:none"><line id="line13984" x1="300.151" x2="10" y1="18.66" y2="184.173"/><line id="line13986" x1="10" x2="11.558" y1="184.173" y2="186.904"/><line id="line13988" x1="11.558" x2="14.316" y1="186.904" y2="185.331"/><line id="line13990" x1="14.316" x2="15.873" y1="185.331" y2="188.062"/><line id="line13992" x1="15.873" x2="13.115" y1="188.062" y2="189.635"/><line id="line13994" x1="13.115" x2="14.689" y1="189.635" y2="192.393"/><line id="line13996" x1="14.689" x2="17.446" y1="192.393" y2="190.82"/><line id="line13998" x1="17.446" x2="19.02" y1="190.82" y2="193.578"/><line id="line14000" x1="19.02" x2="16.262" y1="193.578" y2="195.151"/><line id="line14002" x1="16.262" x2="17.835" y1="195.151" y2="197.909"/><line id="line14004" x1="17.835" x2="20.593" y1="197.909" y2="196.336"/><line id="line14006" x1="20.593" x2="22.166" y1="196.336" y2="199.094"/><line id="line14008" x1="22.166" x2="19.408" y1="199.094" y2="200.667"/><line id="line14010" x1="19.408" x2="21.012" y1="200.667" y2="203.479"/><line id="line14012" x1="21.012" x2="23.769" y1="203.479" y2="201.906"/><line id="line14014" x1="23.769" x2="25.342" y1="201.906" y2="204.663"/><line id="line14016" x1="25.342" x2="22.585" y1="204.663" y2="206.237"/><line id="line14018" x1="22.585" x2="24.158" y1="206.237" y2="208.994"/><line id="line14020" x1="24.158" x2="26.916" y1="208.994" y2="207.421"/><line id="line14022" x1="26.916" x2="28.489" y1="207.421" y2="210.179"/><line id="line14024" x1="28.489" x2="25.731" y1="210.179" y2="211.752"/><line id="line14026" x1="25.731" x2="27.304" y1="211.752" y2="214.51"/><line id="line14028" x1="27.304" x2="30.062" y1="214.51" y2="212.937"/><line id="line14030" x1="30.062" x2="31.635" y1="212.937" y2="215.695"/><line id="line14032" x1="31.635" x2="28.877" y1="215.695" y2="217.268"/><line id="line14034" x1="28.877" x2="30.45" y1="217.268" y2="220.026"/><line id="line14036" x1="30.45" x2="33.208" y1="220.026" y2="218.453"/><line id="line14038" x1="33.208" x2="34.781" y1="218.453" y2="221.211"/><line id="line14040" x1="34.781" x2="32.023" y1="221.211" y2="222.784"/><line id="line14042" x1="32.023" x2="33.596" y1="222.784" y2="225.542"/><line id="line14044" x1="33.596" x2="36.354" y1="225.542" y2="223.969"/><line id="line14046" x1="36.354" x2="37.927" y1="223.969" y2="226.727"/><line id="line14048" x1="37.927" x2="365.131" y1="226.727" y2="40.092"/><line id="line14050" x1="365.131" x2="361.302" y1="40.092" y2="29.912"/><line id="line14052" x1="361.302" x2="354.592" y1="29.912" y2="12.257"/><line id="line14054" x1="354.592" x2="354.65" y1="12.257" y2="12.224"/><line id="line14056" x1="354.65" x2="353.814" y1="12.224" y2="10"/><line id="line14058" x1="353.814" x2="331.754" y1="10" y2="22.583"/><line id="line14060" x1="331.754" x2="329.548" y1="22.583" y2="23.841"/><line id="line14062" x1="329.548" x2="331.246" y1="23.841" y2="26.82"/><line id="line14064" x1="331.246" x2="340.07" y1="26.82" y2="21.786"/><line id="line14066" x1="340.07" x2="342.335" y1="21.786" y2="25.757"/><line id="line14068" x1="342.335" x2="333.511" y1="25.757" y2="30.79"/><line id="line14070" x1="333.511" x2="334.082" y1="30.79" y2="31.815"/><line id="line14072" x1="334.082" x2="335.791" y1="31.815" y2="34.787"/><line id="line14074" x1="335.791" x2="335.839" y1="34.787" y2="34.872"/><line id="line14076" x1="335.839" x2="336.468" y1="34.872" y2="35.975"/><line id="line14078" x1="336.468" x2="334.262" y1="35.975" y2="37.233"/><line id="line14080" x1="334.262" x2="333.633" y1="37.233" y2="36.13"/><line id="line14082" x1="333.633" x2="311.573" y1="36.13" y2="48.713"/><line id="line14084" x1="311.573" x2="310.823" y1="48.713" y2="49.141"/><line id="line14086" x1="310.823" x2="309.564" y1="49.141" y2="46.935"/><line id="line14088" x1="309.564" x2="310.667" y1="46.935" y2="46.306"/><line id="line14090" x1="310.667" x2="300.151" y1="46.306" y2="18.66"/><line id="line14092" x1="269.342" x2="267.357" y1="49.258" y2="50.39"/><line id="line14094" x1="267.357" x2="266.224" y1="50.39" y2="48.405"/><line id="line14096" x1="266.224" x2="268.21" y1="48.405" y2="47.272"/><line id="line14098" x1="268.21" x2="269.342" y1="47.272" y2="49.258"/><line id="line14100" x1="276.181" x2="275.049" y1="45.357" y2="43.372"/><line id="line14102" x1="275.049" x2="277.034" y1="43.372" y2="42.239"/><line id="line14104" x1="277.034" x2="278.167" y1="42.239" y2="44.225"/><line id="line14106" x1="278.167" x2="276.181" y1="44.225" y2="45.357"/><line id="line14108" x1="276.892" x2="274.907" y1="62.494" y2="63.627"/><line id="line14110" x1="274.907" x2="273.774" y1="63.627" y2="61.641"/><line id="line14112" x1="273.774" x2="275.76" y1="61.641" y2="60.509"/><line id="line14114" x1="275.76" x2="276.892" y1="60.509" y2="62.494"/><line id="line14116" x1="281.324" x2="283.31" y1="74.877" y2="73.745"/><line id="line14118" x1="283.31" x2="284.442" y1="73.745" y2="75.73"/><line id="line14120" x1="284.442" x2="282.457" y1="75.73" y2="76.863"/><line id="line14122" x1="282.457" x2="281.324" y1="76.863" y2="74.877"/><line id="line14124" x1="283.731" x2="282.599" y1="58.593" y2="56.608"/><line id="line14126" x1="282.599" x2="284.584" y1="56.608" y2="55.475"/><line id="line14128" x1="284.584" x2="285.716" y1="55.475" y2="57.461"/><line id="line14130" x1="285.716" x2="283.731" y1="57.461" y2="58.593"/><line id="line14132" x1="290.148" x2="292.134" y1="69.844" y2="68.712"/><line id="line14134" x1="292.134" x2="293.266" y1="68.712" y2="70.697"/><line id="line14136" x1="293.266" x2="291.281" y1="70.697" y2="71.83"/><line id="line14138" x1="291.281" x2="290.148" y1="71.83" y2="69.844"/><line id="line14140" x1="46.599" x2="24.535" y1="177.847" y2="190.432"/><line id="line14142" x1="24.535" x2="21.389" y1="190.432" y2="184.916"/><line id="line14144" x1="21.389" x2="43.452" y1="184.916" y2="172.331"/><line id="line14146" x1="43.452" x2="46.599" y1="172.331" y2="177.847"/><line id="line14148" x1="178.826" x2="156.763" y1="102.426" y2="115.011"/><line id="line14150" x1="156.763" x2="153.616" y1="115.011" y2="109.495"/><line id="line14152" x1="153.616" x2="175.68" y1="109.495" y2="96.91"/><line id="line14154" x1="175.68" x2="178.826" y1="96.91" y2="102.426"/><line id="line14156" x1="194.557" x2="172.493" y1="130.005" y2="142.59"/><line id="line14158" x1="172.493" x2="169.347" y1="142.59" y2="137.074"/><line id="line14160" x1="169.347" x2="191.411" y1="137.074" y2="124.489"/><line id="line14162" x1="191.411" x2="194.557" y1="124.489" y2="130.005"/><line id="line14164" x1="62.36" x2="40.297" y1="205.48" y2="218.065"/><line id="line14166" x1="40.297" x2="37.151" y1="218.065" y2="212.549"/><line id="line14168" x1="37.151" x2="59.214" y1="212.549" y2="199.964"/><line id="line14170" x1="59.214" x2="62.36" y1="199.964" y2="205.48"/></g></svg>