<svg xmlns="http://www.w3.org/2000/svg" xmlns:svg="http://www.w3.org/2000/svg" id="svg3011" width="210.711" height="96.2mm" version="1.1" viewBox="0 0 55.751 96.2"><metadata id="metadata3071"/><desc id="desc3013">Output from Flights of Ideas SVG Sketchup Plugin</desc><g id="face0" fill="none" stroke="#00F" stroke-dasharray="none" stroke-linecap="round" stroke-linejoin="round" stroke-miterlimit="4" stroke-width="1"><line id="line3017" x1="33.813" x2="33.813" y1="10" y2="35.494"/><line id="line3019" x1="33.813" x2="10" y1="35.494" y2="73.5"/><line id="line3021" x1="10" x2="10" y1="73.5" y2="86.2"/><line id="line3023" x1="10" x2="14.762" y1="86.2" y2="86.2"/><line id="line3025" x1="14.762" x2="14.762" y1="86.2" y2="73.5"/><line id="line3027" x1="14.762" x2="19.525" y1="73.5" y2="73.5"/><line id="line3029" x1="19.525" x2="19.525" y1="73.5" y2="86.2"/><line id="line3031" x1="19.525" x2="24.288" y1="86.2" y2="86.2"/><line id="line3033" x1="24.288" x2="24.288" y1="86.2" y2="75.088"/><line id="line3035" x1="24.288" x2="35.4" y1="75.088" y2="75.088"/><line id="line3037" x1="35.4" x2="35.4" y1="75.088" y2="86.2"/><line id="line3039" x1="35.4" x2="38.575" y1="86.2" y2="86.2"/><line id="line3041" x1="38.575" x2="38.575" y1="86.2" y2="54.45"/><line id="line3043" x1="38.575" x2="41.75" y1="54.45" y2="54.45"/><line id="line3045" x1="41.75" x2="41.75" y1="54.45" y2="86.2"/><line id="line3047" x1="41.75" x2="45.751" y1="86.2" y2="86.2"/><line id="line3049" x1="45.751" x2="45.751" y1="86.2" y2="10"/><line id="line3051" x1="45.751" x2="41.75" y1="10" y2="10"/><line id="line3053" x1="41.75" x2="41.75" y1="10" y2="41.75"/><line id="line3055" x1="41.75" x2="38.575" y1="41.75" y2="41.75"/><line id="line3057" x1="38.575" x2="38.575" y1="41.75" y2="10"/><line id="line3059" x1="38.575" x2="33.813" y1="10" y2="10"/><line id="line3061" x1="35.4" x2="35.4" y1="48.194" y2="73.5"/><line id="line3063" x1="35.4" x2="22.7" y1="73.5" y2="73.5"/><line id="line3065" x1="22.7" x2="35.4" y1="73.5" y2="48.194"/></g></svg>